<?xml version="1.0" encoding="UTF-8" standalone="no"?><svg xmlns="http://www.w3.org/2000/svg" xmlns:xlink="http://www.w3.org/1999/xlink" contentScriptType="application/ecmascript" contentStyleType="text/css" height="1901px" preserveAspectRatio="none" style="width:1043px;height:1901px;" version="1.1" viewBox="0 0 1043 1901" width="1043px" zoomAndPan="magnify"><defs/><g><ellipse cx="127.5" cy="48.6982" fill="#000000" rx="10" ry="10" style="stroke:none;stroke-width:1.0;"/><rect fill="#FEFECE" height="33.9688" rx="12.5" ry="12.5" style="stroke:#A80036;stroke-width:1.5;" width="86" x="84.5" y="78.6982"/><text fill="#000000" font-family="Arial" font-size="12" lengthAdjust="spacing" textLength="66" x="94.5" y="99.8369">".java" files</text><rect fill="#FEFECE" height="33.9688" rx="12.5" ry="12.5" style="stroke:#A80036;stroke-width:1.5;" width="93" x="81" y="154.0659"/><text fill="#000000" font-family="Arial" font-size="12" lengthAdjust="spacing" textLength="73" x="91" y="175.2046">".class" files</text><polygon fill="#FEFECE" points="89,229.4336,166,229.4336,178,241.4336,166,253.4336,89,253.4336,77,241.4336,89,229.4336" style="stroke:#A80036;stroke-width:1.5;"/><text fill="#000000" font-family="Arial" font-size="11" lengthAdjust="spacing" textLength="77" x="89" y="245.2417">"jar/war/ear"?</text><text fill="#000000" font-family="Arial" font-size="11" lengthAdjust="spacing" textLength="57" x="20" y="238.8394">jar deploy</text><text fill="#000000" font-family="Arial" font-size="11" lengthAdjust="spacing" textLength="63" x="178" y="238.8394">war deploy</text><line style="stroke:#000000;stroke-width:2.0;" x1="15" x2="15" y1="12.7451" y2="1889.8652"/><rect fill="#FEFECE" height="33.9688" rx="12.5" ry="12.5" style="stroke:#A80036;stroke-width:1.5;" width="88" x="323" y="273.4336"/><text fill="#000000" font-family="Arial" font-size="12" lengthAdjust="spacing" textLength="68" x="333" y="294.5723">RE Location</text><ellipse cx="367" cy="338.4023" fill="#FFFFFF" rx="11" ry="11" style="stroke:#000000;stroke-width:1.0;"/><ellipse cx="367" cy="338.4023" fill="#000000" rx="6" ry="6" style="stroke:#7F7F7F;stroke-width:1.0;"/><ellipse cx="427.5" cy="369.4023" fill="#000000" rx="10" ry="10" style="stroke:none;stroke-width:1.0;"/><line style="stroke:#A80036;stroke-width:1.5;" x1="300" x2="489.5" y1="433.606" y2="433.606"/><rect fill="#FEFECE" height="33.9688" rx="12.5" ry="12.5" style="stroke:#A80036;stroke-width:1.5;" width="96" x="252" y="453.606"/><text fill="#000000" font-family="Arial" font-size="12" lengthAdjust="spacing" textLength="76" x="262" y="474.7446">java -jar ...jar</text><rect fill="#FEFECE" height="33.9688" rx="12.5" ry="12.5" style="stroke:#A80036;stroke-width:1.5;" width="227" x="376" y="453.606"/><text fill="#000000" font-family="Arial" font-size="12" lengthAdjust="spacing" textLength="207" x="386" y="474.7446">java -classpath ...jar:..jar mainClass</text><line style="stroke:#A80036;stroke-width:1.5;" x1="300" x2="489.5" y1="507.5747" y2="507.5747"/><rect fill="#FEFECE" height="33.9688" rx="12.5" ry="12.5" style="stroke:#A80036;stroke-width:1.5;" width="118" x="368.5" y="548.9736"/><text fill="#000000" font-family="Arial" font-size="12" lengthAdjust="spacing" textLength="98" x="378.5" y="570.1123">extracted folder</text><rect fill="#FEFECE" height="47.9375" rx="12.5" ry="12.5" style="stroke:#A80036;stroke-width:1.5;" width="122" x="366.5" y="624.3413"/><text fill="#000000" font-family="Arial" font-size="12" lengthAdjust="spacing" textLength="102" x="376.5" y="645.48">boot classloader</text><text fill="#000000" font-family="Arial" font-size="12" lengthAdjust="spacing" textLength="97" x="376.5" y="659.4487">with cp=JRE jars</text><rect fill="#FEFECE" height="47.9375" rx="12.5" ry="12.5" style="stroke:#A80036;stroke-width:1.5;" width="140" x="357.5" y="713.6777"/><text fill="#000000" font-family="Arial" font-size="12" lengthAdjust="spacing" textLength="93" x="367.5" y="734.8164">ext classloader</text><text fill="#000000" font-family="Arial" font-size="12" lengthAdjust="spacing" textLength="120" x="367.5" y="748.7852">with cp=JRE ext jars</text><rect fill="#FEFECE" height="47.9375" rx="12.5" ry="12.5" style="stroke:#A80036;stroke-width:1.5;" width="118" x="368.5" y="803.0142"/><text fill="#000000" font-family="Arial" font-size="12" lengthAdjust="spacing" textLength="98" x="378.5" y="824.1528">App classloader</text><text fill="#000000" font-family="Arial" font-size="12" lengthAdjust="spacing" textLength="96" x="378.5" y="838.1216">with cp=App jar</text><rect fill="#FEFECE" height="33.9688" rx="12.5" ry="12.5" style="stroke:#A80036;stroke-width:1.5;" width="83" x="386" y="892.3506"/><text fill="#000000" font-family="Arial" font-size="12" lengthAdjust="spacing" textLength="63" x="396" y="913.4893">main class</text><path d="M502.5,965.9756 L502.5,982.1084 L482.5,986.1084 L502.5,990.1084 L502.5,1006.2412 A0,0 0 0 0 502.5,1006.2412 L743.5,1006.2412 A0,0 0 0 0 743.5,1006.2412 L743.5,975.9756 L733.5,965.9756 L502.5,965.9756 A0,0 0 0 0 502.5,965.9756 " fill="#FBFB77" style="stroke:#A80036;stroke-width:1.0;"/><path d="M733.5,965.9756 L733.5,975.9756 L743.5,975.9756 L733.5,965.9756 " fill="#FBFB77" style="stroke:#A80036;stroke-width:1.0;"/><text fill="#000000" font-family="Arial" font-size="13" lengthAdjust="spacing" textLength="220" x="508.5" y="983.0425">apps can further load classloaders</text><text fill="#000000" font-family="Arial" font-size="13" lengthAdjust="spacing" textLength="143" x="508.5" y="998.1753">example: Spring Boot;</text><rect fill="#FEFECE" height="33.9688" rx="12.5" ry="12.5" style="stroke:#A80036;stroke-width:1.5;" width="110" x="372.5" y="969.124"/><text fill="#000000" font-family="Arial" font-size="12" lengthAdjust="spacing" textLength="90" x="382.5" y="990.2627">MainClass.main</text><rect fill="#FFFFFF" height="163.438" style="stroke:#000000;stroke-width:2.0;" width="136" x="359.5" y="1016.2412"/><path d="M440.5,1016.2412 L440.5,1025.5381 L430.5,1035.5381 L359.5,1035.5381 " fill="none" style="stroke:#000000;stroke-width:2.0;"/><text fill="#000000" font-family="Arial" font-size="14" lengthAdjust="spacing" textLength="71" x="362.5" y="1030.2363">Container</text><rect fill="#FEFECE" height="33.9688" rx="12.5" ry="12.5" style="stroke:#A80036;stroke-width:1.5;" width="110" x="372.5" y="1045.5381"/><text fill="#000000" font-family="Arial" font-size="12" lengthAdjust="spacing" textLength="90" x="382.5" y="1066.6768">MainClass.main</text><rect fill="#FEFECE" height="33.9688" rx="12.5" ry="12.5" style="stroke:#A80036;stroke-width:1.5;" width="116" x="369.5" y="1133.7104"/><text fill="#000000" font-family="Arial" font-size="12" lengthAdjust="spacing" textLength="96" x="379.5" y="1154.8491">URL classloader</text><ellipse cx="427.5" cy="1210.6792" fill="#FFFFFF" rx="11" ry="11" style="stroke:#000000;stroke-width:1.0;"/><ellipse cx="427.5" cy="1210.6792" fill="#000000" rx="6" ry="6" style="stroke:#7F7F7F;stroke-width:1.0;"/><path d="M458.5,1864.7324 L458.5,1889.8652 L719.5,1889.8652 L719.5,1874.7324 L709.5,1864.7324 L458.5,1864.7324 " fill="#FBFB77" style="stroke:#A80036;stroke-width:1.0;"/><path d="M709.5,1864.7324 L709.5,1874.7324 L719.5,1874.7324 L709.5,1864.7324 " fill="#FBFB77" style="stroke:#A80036;stroke-width:1.0;"/><text fill="#000000" font-family="Arial" font-size="13" lengthAdjust="spacing" textLength="240" x="464.5" y="1881.7993">listeners may create a spring context</text><line style="stroke:#000000;stroke-width:2.0;" x1="246" x2="246" y1="12.7451" y2="1889.8652"/><rect fill="#FEFECE" height="33.9688" rx="12.5" ry="12.5" style="stroke:#A80036;stroke-width:1.5;" width="109" x="883" y="273.4336"/><text fill="#000000" font-family="Arial" font-size="12" lengthAdjust="spacing" textLength="89" x="893" y="294.5723">webapp folder</text><ellipse cx="937.5" cy="338.4023" fill="#FFFFFF" rx="11" ry="11" style="stroke:#000000;stroke-width:1.0;"/><ellipse cx="937.5" cy="338.4023" fill="#000000" rx="6" ry="6" style="stroke:#7F7F7F;stroke-width:1.0;"/><ellipse cx="877" cy="1241.6792" fill="#000000" rx="10" ry="10" style="stroke:none;stroke-width:1.0;"/><rect fill="#87CEFA" height="33.9688" rx="12.5" ry="12.5" style="stroke:#A80036;stroke-width:1.5;" width="116" x="819" y="1293.0781"/><text fill="#000000" font-family="Arial" font-size="12" lengthAdjust="spacing" textLength="96" x="829" y="1314.2168">appname folder</text><rect fill="#87CEFA" height="61.9063" rx="12.5" ry="12.5" style="stroke:#A80036;stroke-width:1.5;" width="197" x="778.5" y="1368.4458"/><text fill="#000000" font-family="Arial" font-size="12" lengthAdjust="spacing" textLength="126" x="788.5" y="1389.5845">WebApp classloader</text><text fill="#000000" font-family="Arial" font-size="12" lengthAdjust="spacing" textLength="177" x="788.5" y="1403.5532">with cp=WEB-INF/classes/ dir</text><text fill="#000000" font-family="Arial" font-size="12" lengthAdjust="spacing" textLength="149" x="788.5" y="1417.522">and WEB-INF/lib/*.jar jars</text><rect fill="#87CEFA" height="33.9688" rx="12.5" ry="12.5" style="stroke:#A80036;stroke-width:1.5;" width="213" x="770.5" y="1471.751"/><text fill="#000000" font-family="Arial" font-size="12" lengthAdjust="spacing" textLength="193" x="780.5" y="1492.8896">JavaEE Servlet context with WCL</text><rect fill="#FEFECE" height="33.9688" rx="12.5" ry="12.5" style="stroke:#A80036;stroke-width:1.5;" width="160" x="797" y="1547.1187"/><text fill="#000000" font-family="Arial" font-size="12" lengthAdjust="spacing" textLength="140" x="807" y="1568.2573">App's Context listeners</text><rect fill="#FEFECE" height="33.9688" rx="12.5" ry="12.5" style="stroke:#A80036;stroke-width:1.5;" width="166" x="794" y="1622.4863"/><text fill="#000000" font-family="Arial" font-size="12" lengthAdjust="spacing" textLength="146" x="804" y="1643.625">App's Servlets with WCL</text><rect fill="#FEFECE" height="33.9688" rx="12.5" ry="12.5" style="stroke:#A80036;stroke-width:1.5;" width="197" x="778.5" y="1676.4551"/><text fill="#000000" font-family="Arial" font-size="12" lengthAdjust="spacing" textLength="177" x="788.5" y="1697.5938">Container inits App's Servlets</text><rect fill="#FEFECE" height="47.9375" rx="12.5" ry="12.5" style="stroke:#A80036;stroke-width:1.5;" width="245" x="754.5" y="1730.4238"/><text fill="#000000" font-family="Arial" font-size="12" lengthAdjust="spacing" textLength="225" x="764.5" y="1751.5625">Listeners may load further containers</text><text fill="#000000" font-family="Arial" font-size="12" lengthAdjust="spacing" textLength="64" x="764.5" y="1765.5313">like Spring</text><rect fill="#FEFECE" height="47.9375" rx="12.5" ry="12.5" style="stroke:#A80036;stroke-width:1.5;" width="204" x="775" y="1798.3613"/><text fill="#000000" font-family="Arial" font-size="12" lengthAdjust="spacing" textLength="180" x="789" y="1819.5">load new business class from</text><text fill="#000000" font-family="Arial" font-size="12" lengthAdjust="spacing" textLength="146" x="785" y="1833.4688">WCL or container on top</text><ellipse cx="877" cy="1877.2988" fill="#FFFFFF" rx="11" ry="11" style="stroke:#000000;stroke-width:1.0;"/><ellipse cx="877" cy="1877.2988" fill="#000000" rx="6" ry="6" style="stroke:#7F7F7F;stroke-width:1.0;"/><line style="stroke:#000000;stroke-width:2.0;" x1="748.5" x2="748.5" y1="12.7451" y2="1889.8652"/><line style="stroke:#000000;stroke-width:2.0;" x1="1023" x2="1023" y1="12.7451" y2="1889.8652"/><line style="stroke:#A80036;stroke-width:1.5;" x1="127.5" x2="127.5" y1="58.6982" y2="78.6982"/><polygon fill="#A80036" points="123.5,68.6982,127.5,78.6982,131.5,68.6982,127.5,72.6982" style="stroke:#A80036;stroke-width:1.0;"/><line style="stroke:#A80036;stroke-width:1.5;" x1="127.5" x2="127.5" y1="112.667" y2="154.0659"/><polygon fill="#A80036" points="123.5,144.0659,127.5,154.0659,131.5,144.0659,127.5,148.0659" style="stroke:#A80036;stroke-width:1.0;"/><text fill="#000000" font-family="Arial" font-size="11" lengthAdjust="spacing" textLength="45" x="131.5" y="133.9717">compile</text><line style="stroke:#A80036;stroke-width:1.5;" x1="127.5" x2="127.5" y1="188.0347" y2="229.4336"/><polygon fill="#A80036" points="123.5,219.4336,127.5,229.4336,131.5,219.4336,127.5,223.4336" style="stroke:#A80036;stroke-width:1.0;"/><text fill="#000000" font-family="Arial" font-size="11" lengthAdjust="spacing" textLength="48" x="131.5" y="209.3394">package</text><line style="stroke:#A80036;stroke-width:1.5;" x1="367" x2="367" y1="307.4023" y2="327.4023"/><polygon fill="#A80036" points="363,317.4023,367,327.4023,371,317.4023,367,321.4023" style="stroke:#A80036;stroke-width:1.0;"/><line style="stroke:#A80036;stroke-width:1.5;" x1="300" x2="300" y1="435.106" y2="453.606"/><polygon fill="#A80036" points="296,443.606,300,453.606,304,443.606,300,447.606" style="stroke:#A80036;stroke-width:1.0;"/><line style="stroke:#A80036;stroke-width:1.5;" x1="489.5" x2="489.5" y1="435.106" y2="453.606"/><polygon fill="#A80036" points="485.5,443.606,489.5,453.606,493.5,443.606,489.5,447.606" style="stroke:#A80036;stroke-width:1.0;"/><line style="stroke:#A80036;stroke-width:1.5;" x1="300" x2="300" y1="487.5747" y2="507.5747"/><polygon fill="#A80036" points="296,497.5747,300,507.5747,304,497.5747,300,501.5747" style="stroke:#A80036;stroke-width:1.0;"/><line style="stroke:#A80036;stroke-width:1.5;" x1="489.5" x2="489.5" y1="487.5747" y2="507.5747"/><polygon fill="#A80036" points="485.5,497.5747,489.5,507.5747,493.5,497.5747,489.5,501.5747" style="stroke:#A80036;stroke-width:1.0;"/><line style="stroke:#A80036;stroke-width:1.5;" x1="427.5" x2="427.5" y1="379.4023" y2="433.606"/><polygon fill="#A80036" points="423.5,423.606,427.5,433.606,431.5,423.606,427.5,427.606" style="stroke:#A80036;stroke-width:1.0;"/><text fill="#000000" font-family="Arial" font-size="11" lengthAdjust="spacing" textLength="57" x="431.5" y="400.707">service or</text><text fill="#000000" font-family="Arial" font-size="11" lengthAdjust="spacing" textLength="67" x="431.5" y="413.5117">human runs</text><line style="stroke:#A80036;stroke-width:1.5;" x1="427.5" x2="427.5" y1="509.0747" y2="548.9736"/><polygon fill="#A80036" points="423.5,538.9736,427.5,548.9736,431.5,538.9736,427.5,542.9736" style="stroke:#A80036;stroke-width:1.0;"/><text fill="#000000" font-family="Arial" font-size="11" lengthAdjust="spacing" textLength="85" x="431.5" y="528.8794">JVM extracts to</text><line style="stroke:#A80036;stroke-width:1.5;" x1="427.5" x2="427.5" y1="582.9424" y2="624.3413"/><polygon fill="#A80036" points="423.5,614.3413,427.5,624.3413,431.5,614.3413,427.5,618.3413" style="stroke:#A80036;stroke-width:1.0;"/><text fill="#000000" font-family="Arial" font-size="11" lengthAdjust="spacing" textLength="54" x="431.5" y="604.2471">JVM loads</text><line style="stroke:#A80036;stroke-width:1.5;" x1="427.5" x2="427.5" y1="672.2788" y2="713.6777"/><polygon fill="#A80036" points="423.5,703.6777,427.5,713.6777,431.5,703.6777,427.5,707.6777" style="stroke:#A80036;stroke-width:1.0;"/><text fill="#000000" font-family="Arial" font-size="11" lengthAdjust="spacing" textLength="102" x="431.5" y="693.5835">JVM loads child CL</text><line style="stroke:#A80036;stroke-width:1.5;" x1="427.5" x2="427.5" y1="761.6152" y2="803.0142"/><polygon fill="#A80036" points="423.5,793.0142,427.5,803.0142,431.5,793.0142,427.5,797.0142" style="stroke:#A80036;stroke-width:1.0;"/><text fill="#000000" font-family="Arial" font-size="11" lengthAdjust="spacing" textLength="102" x="431.5" y="782.9199">JVM loads child CL</text><line style="stroke:#A80036;stroke-width:1.5;" x1="427.5" x2="427.5" y1="850.9517" y2="892.3506"/><polygon fill="#A80036" points="423.5,882.3506,427.5,892.3506,431.5,882.3506,427.5,886.3506" style="stroke:#A80036;stroke-width:1.0;"/><text fill="#000000" font-family="Arial" font-size="11" lengthAdjust="spacing" textLength="161" x="431.5" y="872.2563">JVM calls AppCL.loadClass of</text><line style="stroke:#A80036;stroke-width:1.5;" x1="427.5" x2="427.5" y1="926.3193" y2="969.124"/><polygon fill="#A80036" points="423.5,959.124,427.5,969.124,431.5,959.124,427.5,963.124" style="stroke:#A80036;stroke-width:1.0;"/><text fill="#000000" font-family="Arial" font-size="11" lengthAdjust="spacing" textLength="49" x="431.5" y="947.624">JVM calls</text><line style="stroke:#A80036;stroke-width:1.5;" x1="427.5" x2="427.5" y1="1079.5068" y2="1133.7104"/><polygon fill="#A80036" points="423.5,1123.7104,427.5,1133.7104,431.5,1123.7104,427.5,1127.7104" style="stroke:#A80036;stroke-width:1.0;"/><text fill="#000000" font-family="Arial" font-size="11" lengthAdjust="spacing" textLength="54" x="431.5" y="1100.8115">JVM loads</text><text fill="#000000" font-family="Arial" font-size="11" lengthAdjust="spacing" textLength="44" x="431.5" y="1113.6162">child CL</text><line style="stroke:#A80036;stroke-width:1.5;" x1="427.5" x2="427.5" y1="1167.6792" y2="1199.6792"/><polygon fill="#A80036" points="423.5,1189.6792,427.5,1199.6792,431.5,1189.6792,427.5,1193.6792" style="stroke:#A80036;stroke-width:1.0;"/><line style="stroke:#A80036;stroke-width:1.5;" x1="937.5" x2="937.5" y1="307.4023" y2="327.4023"/><polygon fill="#A80036" points="933.5,317.4023,937.5,327.4023,941.5,317.4023,937.5,321.4023" style="stroke:#A80036;stroke-width:1.0;"/><line style="stroke:#A80036;stroke-width:1.5;" x1="877" x2="877" y1="1251.6792" y2="1293.0781"/><polygon fill="#A80036" points="873,1283.0781,877,1293.0781,881,1283.0781,877,1287.0781" style="stroke:#A80036;stroke-width:1.0;"/><text fill="#000000" font-family="Arial" font-size="11" lengthAdjust="spacing" textLength="120" x="881" y="1272.9839">Container extracts to</text><line style="stroke:#A80036;stroke-width:1.5;" x1="877" x2="877" y1="1327.0469" y2="1368.4458"/><polygon fill="#A80036" points="873,1358.4458,877,1368.4458,881,1358.4458,877,1362.4458" style="stroke:#A80036;stroke-width:1.0;"/><text fill="#000000" font-family="Arial" font-size="11" lengthAdjust="spacing" textLength="137" x="881" y="1348.3516">Container loads child CL</text><line style="stroke:#A80036;stroke-width:1.5;" x1="877" x2="877" y1="1430.3521" y2="1471.751"/><polygon fill="#A80036" points="873,1461.751,877,1471.751,881,1461.751,877,1465.751" style="stroke:#A80036;stroke-width:1.0;"/><text fill="#000000" font-family="Arial" font-size="11" lengthAdjust="spacing" textLength="102" x="881" y="1451.6567">Container creates</text><line style="stroke:#A80036;stroke-width:1.5;" x1="877" x2="877" y1="1505.7197" y2="1547.1187"/><polygon fill="#A80036" points="873,1537.1187,877,1547.1187,881,1537.1187,877,1541.1187" style="stroke:#A80036;stroke-width:1.0;"/><text fill="#000000" font-family="Arial" font-size="11" lengthAdjust="spacing" textLength="101" x="881" y="1527.0244">Container notifies</text><line style="stroke:#A80036;stroke-width:1.5;" x1="877" x2="877" y1="1581.0874" y2="1622.4863"/><polygon fill="#A80036" points="873,1612.4863,877,1622.4863,881,1612.4863,877,1616.4863" style="stroke:#A80036;stroke-width:1.0;"/><text fill="#000000" font-family="Arial" font-size="11" lengthAdjust="spacing" textLength="89" x="881" y="1602.3921">Container loads</text><line style="stroke:#A80036;stroke-width:1.5;" x1="877" x2="877" y1="1656.4551" y2="1676.4551"/><polygon fill="#A80036" points="873,1666.4551,877,1676.4551,881,1666.4551,877,1670.4551" style="stroke:#A80036;stroke-width:1.0;"/><line style="stroke:#A80036;stroke-width:1.5;" x1="877" x2="877" y1="1710.4238" y2="1730.4238"/><polygon fill="#A80036" points="873,1720.4238,877,1730.4238,881,1720.4238,877,1724.4238" style="stroke:#A80036;stroke-width:1.0;"/><line style="stroke:#A80036;stroke-width:1.5;" x1="877" x2="877" y1="1778.3613" y2="1798.3613"/><polygon fill="#A80036" points="873,1788.3613,877,1798.3613,881,1788.3613,877,1792.3613" style="stroke:#A80036;stroke-width:1.0;"/><line style="stroke:#A80036;stroke-width:1.5;" x1="877" x2="877" y1="1846.2988" y2="1866.2988"/><polygon fill="#A80036" points="873,1856.2988,877,1866.2988,881,1856.2988,877,1860.2988" style="stroke:#A80036;stroke-width:1.0;"/><line style="stroke:#A80036;stroke-width:1.5;" x1="77" x2="65" y1="241.4336" y2="241.4336"/><line style="stroke:#A80036;stroke-width:1.5;" x1="65" x2="65" y1="241.4336" y2="259.4336"/><line style="stroke:#A80036;stroke-width:1.5;" x1="65" x2="367" y1="259.4336" y2="259.4336"/><line style="stroke:#A80036;stroke-width:1.5;" x1="367" x2="367" y1="259.4336" y2="273.4336"/><polygon fill="#A80036" points="363,263.4336,367,273.4336,371,263.4336,367,267.4336" style="stroke:#A80036;stroke-width:1.0;"/><line style="stroke:#A80036;stroke-width:1.5;" x1="178" x2="937.5" y1="241.4336" y2="241.4336"/><line style="stroke:#A80036;stroke-width:1.5;" x1="937.5" x2="937.5" y1="241.4336" y2="273.4336"/><polygon fill="#A80036" points="933.5,263.4336,937.5,273.4336,941.5,263.4336,937.5,267.4336" style="stroke:#A80036;stroke-width:1.0;"/><text fill="#000000" font-family="Arial" font-size="18" lengthAdjust="spacing" textLength="87" x="87" y="29.4531">Dev/Build</text><text fill="#000000" font-family="Arial" font-size="18" lengthAdjust="spacing" textLength="206" x="394.25" y="29.4531">Runtime Environment</text><text fill="#000000" font-family="Arial" font-size="18" lengthAdjust="spacing" textLength="218" x="776.75" y="29.4531">Container Environment</text><!--MD5=[7cde2165b5bd015abe0fa41f75ffcc8b]
@startuml
skinparam style strictuml
skinparam defaultFontName Arial

|Dev/Build|
start
:".java" files;
-> compile;
:".class" files;
-> package;
if ("jar/war/ear"?) equals (jar) then
->jar deploy;
|Runtime Environment|
:RE Location;
stop
else
->war deploy;
|Container Environment|
:webapp folder;
stop
endif


|Runtime Environment|
start
-> service or 
human runs;
split
:java -jar ...jar;
split again
:java -classpath ...jar:..jar mainClass;
end split
->JVM extracts to;
:extracted folder;
->JVM loads;
:boot classloader
with cp=JRE jars;
->JVM loads child CL;
:ext classloader 
with cp=JRE ext jars;
->JVM loads child CL;
:App classloader
with cp=App jar;
->JVM calls AppCL.loadClass of;
:main class;
->JVM calls;
:MainClass.main;
note right
apps can further load classloaders
example: Spring Boot;
end note
-[hidden]->

partition Container {
:MainClass.main;
-> JVM loads 
child CL;
:URL classloader;
}
stop

|Container Environment|
start
->Container extracts to;
#LightSkyBlue:appname folder;
->Container loads child CL;
#LightSkyBlue:WebApp classloader
with cp=WEB-INF/classes/ dir
and WEB-INF/lib/*.jar jars;

->Container creates;
#LightSkyBlue:JavaEE Servlet context with WCL;
->Container notifies;
:App's Context listeners;
->Container loads;
:App's Servlets with WCL;
:Container inits App's Servlets;
:Listeners may load further containers
like Spring;
: load new business class from 
WCL or container on top;
stop

|Runtime Environment|
floating note right
listeners may create a spring context
end note
@enduml

PlantUML version 1.2021.2beta9(Unknown compile time)
(GPL source distribution)
Java Runtime: Java(TM) SE Runtime Environment
JVM: Java HotSpot(TM) 64-Bit Server VM
Default Encoding: UTF-8
Language: en
Country: US
--></g></svg>