<?xml version="1.0" encoding="UTF-8" standalone="no"?><svg xmlns="http://www.w3.org/2000/svg" xmlns:xlink="http://www.w3.org/1999/xlink" contentScriptType="application/ecmascript" contentStyleType="text/css" height="1826px" preserveAspectRatio="none" style="width:1158px;height:1826px;" version="1.1" viewBox="0 0 1158 1826" width="1158px" zoomAndPan="magnify"><defs/><g><ellipse cx="127.5" cy="48.6982" fill="#000000" rx="10" ry="10" style="stroke:none;stroke-width:1.0;"/><rect fill="#FEFECE" height="33.9688" rx="12.5" ry="12.5" style="stroke:#A80036;stroke-width:1.5;" width="93" x="81" y="78.6982"/><text fill="#000000" font-family="Arial" font-size="12" lengthAdjust="spacing" textLength="73" x="91" y="99.8369">".class files"</text><polygon fill="#FEFECE" points="89,154.0659,166,154.0659,178,166.0659,166,178.0659,89,178.0659,77,166.0659,89,154.0659" style="stroke:#A80036;stroke-width:1.5;"/><text fill="#000000" font-family="Arial" font-size="11" lengthAdjust="spacing" textLength="77" x="89" y="169.874">"jar/war/ear"?</text><text fill="#000000" font-family="Arial" font-size="11" lengthAdjust="spacing" textLength="57" x="20" y="163.4717">jar deploy</text><text fill="#000000" font-family="Arial" font-size="11" lengthAdjust="spacing" textLength="63" x="178" y="163.4717">war deploy</text><line style="stroke:#000000;stroke-width:2.0;" x1="15" x2="15" y1="12.7451" y2="1814.4976"/><rect fill="#FEFECE" height="33.9688" rx="12.5" ry="12.5" style="stroke:#A80036;stroke-width:1.5;" width="88" x="438.5" y="198.0659"/><text fill="#000000" font-family="Arial" font-size="12" lengthAdjust="spacing" textLength="68" x="448.5" y="219.2046">RE Location</text><ellipse cx="482.5" cy="263.0347" fill="#FFFFFF" rx="11" ry="11" style="stroke:#000000;stroke-width:1.0;"/><ellipse cx="482.5" cy="263.0347" fill="#000000" rx="6" ry="6" style="stroke:#7F7F7F;stroke-width:1.0;"/><ellipse cx="543" cy="294.0347" fill="#000000" rx="10" ry="10" style="stroke:none;stroke-width:1.0;"/><line style="stroke:#A80036;stroke-width:1.5;" x1="415.5" x2="605" y1="358.2383" y2="358.2383"/><rect fill="#FEFECE" height="33.9688" rx="12.5" ry="12.5" style="stroke:#A80036;stroke-width:1.5;" width="96" x="367.5" y="378.2383"/><text fill="#000000" font-family="Arial" font-size="12" lengthAdjust="spacing" textLength="76" x="377.5" y="399.377">java -jar ...jar</text><rect fill="#FEFECE" height="33.9688" rx="12.5" ry="12.5" style="stroke:#A80036;stroke-width:1.5;" width="227" x="491.5" y="378.2383"/><text fill="#000000" font-family="Arial" font-size="12" lengthAdjust="spacing" textLength="207" x="501.5" y="399.377">java -classpath ...jar:..jar mainClass</text><line style="stroke:#A80036;stroke-width:1.5;" x1="415.5" x2="605" y1="432.207" y2="432.207"/><rect fill="#FEFECE" height="33.9688" rx="12.5" ry="12.5" style="stroke:#A80036;stroke-width:1.5;" width="118" x="484" y="473.606"/><text fill="#000000" font-family="Arial" font-size="12" lengthAdjust="spacing" textLength="98" x="494" y="494.7446">extracted folder</text><rect fill="#FEFECE" height="47.9375" rx="12.5" ry="12.5" style="stroke:#A80036;stroke-width:1.5;" width="122" x="482" y="548.9736"/><text fill="#000000" font-family="Arial" font-size="12" lengthAdjust="spacing" textLength="102" x="492" y="570.1123">boot classloader</text><text fill="#000000" font-family="Arial" font-size="12" lengthAdjust="spacing" textLength="97" x="492" y="584.0811">with cp=JRE jars</text><rect fill="#FEFECE" height="47.9375" rx="12.5" ry="12.5" style="stroke:#A80036;stroke-width:1.5;" width="140" x="473" y="638.3101"/><text fill="#000000" font-family="Arial" font-size="12" lengthAdjust="spacing" textLength="93" x="483" y="659.4487">ext classloader</text><text fill="#000000" font-family="Arial" font-size="12" lengthAdjust="spacing" textLength="120" x="483" y="673.4175">with cp=JRE ext jars</text><rect fill="#FEFECE" height="47.9375" rx="12.5" ry="12.5" style="stroke:#A80036;stroke-width:1.5;" width="118" x="484" y="727.6465"/><text fill="#000000" font-family="Arial" font-size="12" lengthAdjust="spacing" textLength="98" x="494" y="748.7852">App classloader</text><text fill="#000000" font-family="Arial" font-size="12" lengthAdjust="spacing" textLength="96" x="494" y="762.7539">with cp=App jar</text><rect fill="#FEFECE" height="33.9688" rx="12.5" ry="12.5" style="stroke:#A80036;stroke-width:1.5;" width="83" x="501.5" y="816.9829"/><text fill="#000000" font-family="Arial" font-size="12" lengthAdjust="spacing" textLength="63" x="511.5" y="838.1216">main class</text><path d="M618,890.6079 L618,906.7407 L598,910.7407 L618,914.7407 L618,930.8735 A0,0 0 0 0 618,930.8735 L859,930.8735 A0,0 0 0 0 859,930.8735 L859,900.6079 L849,890.6079 L618,890.6079 A0,0 0 0 0 618,890.6079 " fill="#FBFB77" style="stroke:#A80036;stroke-width:1.0;"/><path d="M849,890.6079 L849,900.6079 L859,900.6079 L849,890.6079 " fill="#FBFB77" style="stroke:#A80036;stroke-width:1.0;"/><text fill="#000000" font-family="Arial" font-size="13" lengthAdjust="spacing" textLength="220" x="624" y="907.6748">apps can further load classloaders</text><text fill="#000000" font-family="Arial" font-size="13" lengthAdjust="spacing" textLength="143" x="624" y="922.8076">example: Spring Boot;</text><rect fill="#FEFECE" height="33.9688" rx="12.5" ry="12.5" style="stroke:#A80036;stroke-width:1.5;" width="110" x="488" y="893.7563"/><text fill="#000000" font-family="Arial" font-size="12" lengthAdjust="spacing" textLength="90" x="498" y="914.895">MainClass.main</text><rect fill="#FFFFFF" height="163.438" style="stroke:#000000;stroke-width:2.0;" width="136" x="475" y="940.8735"/><path d="M556,940.8735 L556,950.1704 L546,960.1704 L475,960.1704 " fill="none" style="stroke:#000000;stroke-width:2.0;"/><text fill="#000000" font-family="Arial" font-size="14" lengthAdjust="spacing" textLength="71" x="478" y="954.8687">Container</text><rect fill="#FEFECE" height="33.9688" rx="12.5" ry="12.5" style="stroke:#A80036;stroke-width:1.5;" width="110" x="488" y="970.1704"/><text fill="#000000" font-family="Arial" font-size="12" lengthAdjust="spacing" textLength="90" x="498" y="991.3091">MainClass.main</text><rect fill="#FEFECE" height="33.9688" rx="12.5" ry="12.5" style="stroke:#A80036;stroke-width:1.5;" width="116" x="485" y="1058.3428"/><text fill="#000000" font-family="Arial" font-size="12" lengthAdjust="spacing" textLength="96" x="495" y="1079.4814">URL classloader</text><ellipse cx="543" cy="1135.3115" fill="#FFFFFF" rx="11" ry="11" style="stroke:#000000;stroke-width:1.0;"/><ellipse cx="543" cy="1135.3115" fill="#000000" rx="6" ry="6" style="stroke:#7F7F7F;stroke-width:1.0;"/><path d="M251,1789.3647 L251,1814.4976 L512,1814.4976 L512,1799.3647 L502,1789.3647 L251,1789.3647 " fill="#FBFB77" style="stroke:#A80036;stroke-width:1.0;"/><path d="M502,1789.3647 L502,1799.3647 L512,1799.3647 L502,1789.3647 " fill="#FBFB77" style="stroke:#A80036;stroke-width:1.0;"/><text fill="#000000" font-family="Arial" font-size="13" lengthAdjust="spacing" textLength="240" x="257" y="1806.4316">listeners may create a spring context</text><line style="stroke:#000000;stroke-width:2.0;" x1="246" x2="246" y1="12.7451" y2="1814.4976"/><rect fill="#FEFECE" height="33.9688" rx="12.5" ry="12.5" style="stroke:#A80036;stroke-width:1.5;" width="109" x="998.5" y="198.0659"/><text fill="#000000" font-family="Arial" font-size="12" lengthAdjust="spacing" textLength="89" x="1008.5" y="219.2046">webapp folder</text><ellipse cx="1053" cy="263.0347" fill="#FFFFFF" rx="11" ry="11" style="stroke:#000000;stroke-width:1.0;"/><ellipse cx="1053" cy="263.0347" fill="#000000" rx="6" ry="6" style="stroke:#7F7F7F;stroke-width:1.0;"/><ellipse cx="992.5" cy="1166.3115" fill="#000000" rx="10" ry="10" style="stroke:none;stroke-width:1.0;"/><rect fill="#87CEFA" height="33.9688" rx="12.5" ry="12.5" style="stroke:#A80036;stroke-width:1.5;" width="116" x="934.5" y="1217.7104"/><text fill="#000000" font-family="Arial" font-size="12" lengthAdjust="spacing" textLength="96" x="944.5" y="1238.8491">appname folder</text><rect fill="#87CEFA" height="61.9063" rx="12.5" ry="12.5" style="stroke:#A80036;stroke-width:1.5;" width="197" x="894" y="1293.0781"/><text fill="#000000" font-family="Arial" font-size="12" lengthAdjust="spacing" textLength="126" x="904" y="1314.2168">WebApp classloader</text><text fill="#000000" font-family="Arial" font-size="12" lengthAdjust="spacing" textLength="177" x="904" y="1328.1855">with cp=WEB-INF/classes/ dir</text><text fill="#000000" font-family="Arial" font-size="12" lengthAdjust="spacing" textLength="149" x="904" y="1342.1543">and WEB-INF/lib/*.jar jars</text><rect fill="#87CEFA" height="33.9688" rx="12.5" ry="12.5" style="stroke:#A80036;stroke-width:1.5;" width="213" x="886" y="1396.3833"/><text fill="#000000" font-family="Arial" font-size="12" lengthAdjust="spacing" textLength="193" x="896" y="1417.522">JavaEE Servlet context with WCL</text><rect fill="#FEFECE" height="33.9688" rx="12.5" ry="12.5" style="stroke:#A80036;stroke-width:1.5;" width="160" x="912.5" y="1471.751"/><text fill="#000000" font-family="Arial" font-size="12" lengthAdjust="spacing" textLength="140" x="922.5" y="1492.8896">App's Context listeners</text><rect fill="#FEFECE" height="33.9688" rx="12.5" ry="12.5" style="stroke:#A80036;stroke-width:1.5;" width="166" x="909.5" y="1547.1187"/><text fill="#000000" font-family="Arial" font-size="12" lengthAdjust="spacing" textLength="146" x="919.5" y="1568.2573">App's Servlets with WCL</text><rect fill="#FEFECE" height="33.9688" rx="12.5" ry="12.5" style="stroke:#A80036;stroke-width:1.5;" width="197" x="894" y="1601.0874"/><text fill="#000000" font-family="Arial" font-size="12" lengthAdjust="spacing" textLength="177" x="904" y="1622.2261">Container inits App's Servlets</text><rect fill="#FEFECE" height="47.9375" rx="12.5" ry="12.5" style="stroke:#A80036;stroke-width:1.5;" width="245" x="870" y="1655.0562"/><text fill="#000000" font-family="Arial" font-size="12" lengthAdjust="spacing" textLength="225" x="880" y="1676.1948">Listeners may load further containers</text><text fill="#000000" font-family="Arial" font-size="12" lengthAdjust="spacing" textLength="64" x="880" y="1690.1636">like Spring</text><rect fill="#FEFECE" height="47.9375" rx="12.5" ry="12.5" style="stroke:#A80036;stroke-width:1.5;" width="204" x="890.5" y="1722.9937"/><text fill="#000000" font-family="Arial" font-size="12" lengthAdjust="spacing" textLength="180" x="904.5" y="1744.1323">load new business class from</text><text fill="#000000" font-family="Arial" font-size="12" lengthAdjust="spacing" textLength="146" x="900.5" y="1758.1011">WCL or container on top</text><ellipse cx="992.5" cy="1801.9312" fill="#FFFFFF" rx="11" ry="11" style="stroke:#000000;stroke-width:1.0;"/><ellipse cx="992.5" cy="1801.9312" fill="#000000" rx="6" ry="6" style="stroke:#7F7F7F;stroke-width:1.0;"/><line style="stroke:#000000;stroke-width:2.0;" x1="864" x2="864" y1="12.7451" y2="1814.4976"/><line style="stroke:#000000;stroke-width:2.0;" x1="1138.5" x2="1138.5" y1="12.7451" y2="1814.4976"/><line style="stroke:#A80036;stroke-width:1.5;" x1="127.5" x2="127.5" y1="58.6982" y2="78.6982"/><polygon fill="#A80036" points="123.5,68.6982,127.5,78.6982,131.5,68.6982,127.5,72.6982" style="stroke:#A80036;stroke-width:1.0;"/><line style="stroke:#A80036;stroke-width:1.5;" x1="127.5" x2="127.5" y1="112.667" y2="154.0659"/><polygon fill="#A80036" points="123.5,144.0659,127.5,154.0659,131.5,144.0659,127.5,148.0659" style="stroke:#A80036;stroke-width:1.0;"/><text fill="#000000" font-family="Arial" font-size="11" lengthAdjust="spacing" textLength="48" x="131.5" y="133.9717">package</text><line style="stroke:#A80036;stroke-width:1.5;" x1="482.5" x2="482.5" y1="232.0347" y2="252.0347"/><polygon fill="#A80036" points="478.5,242.0347,482.5,252.0347,486.5,242.0347,482.5,246.0347" style="stroke:#A80036;stroke-width:1.0;"/><line style="stroke:#A80036;stroke-width:1.5;" x1="415.5" x2="415.5" y1="359.7383" y2="378.2383"/><polygon fill="#A80036" points="411.5,368.2383,415.5,378.2383,419.5,368.2383,415.5,372.2383" style="stroke:#A80036;stroke-width:1.0;"/><line style="stroke:#A80036;stroke-width:1.5;" x1="605" x2="605" y1="359.7383" y2="378.2383"/><polygon fill="#A80036" points="601,368.2383,605,378.2383,609,368.2383,605,372.2383" style="stroke:#A80036;stroke-width:1.0;"/><line style="stroke:#A80036;stroke-width:1.5;" x1="415.5" x2="415.5" y1="412.207" y2="432.207"/><polygon fill="#A80036" points="411.5,422.207,415.5,432.207,419.5,422.207,415.5,426.207" style="stroke:#A80036;stroke-width:1.0;"/><line style="stroke:#A80036;stroke-width:1.5;" x1="605" x2="605" y1="412.207" y2="432.207"/><polygon fill="#A80036" points="601,422.207,605,432.207,609,422.207,605,426.207" style="stroke:#A80036;stroke-width:1.0;"/><line style="stroke:#A80036;stroke-width:1.5;" x1="543" x2="543" y1="304.0347" y2="358.2383"/><polygon fill="#A80036" points="539,348.2383,543,358.2383,547,348.2383,543,352.2383" style="stroke:#A80036;stroke-width:1.0;"/><text fill="#000000" font-family="Arial" font-size="11" lengthAdjust="spacing" textLength="57" x="547" y="325.3394">service or</text><text fill="#000000" font-family="Arial" font-size="11" lengthAdjust="spacing" textLength="67" x="547" y="338.144">human runs</text><line style="stroke:#A80036;stroke-width:1.5;" x1="543" x2="543" y1="433.707" y2="473.606"/><polygon fill="#A80036" points="539,463.606,543,473.606,547,463.606,543,467.606" style="stroke:#A80036;stroke-width:1.0;"/><text fill="#000000" font-family="Arial" font-size="11" lengthAdjust="spacing" textLength="85" x="547" y="453.5117">JVM extracts to</text><line style="stroke:#A80036;stroke-width:1.5;" x1="543" x2="543" y1="507.5747" y2="548.9736"/><polygon fill="#A80036" points="539,538.9736,543,548.9736,547,538.9736,543,542.9736" style="stroke:#A80036;stroke-width:1.0;"/><text fill="#000000" font-family="Arial" font-size="11" lengthAdjust="spacing" textLength="54" x="547" y="528.8794">JVM loads</text><line style="stroke:#A80036;stroke-width:1.5;" x1="543" x2="543" y1="596.9111" y2="638.3101"/><polygon fill="#A80036" points="539,628.3101,543,638.3101,547,628.3101,543,632.3101" style="stroke:#A80036;stroke-width:1.0;"/><text fill="#000000" font-family="Arial" font-size="11" lengthAdjust="spacing" textLength="102" x="547" y="618.2158">JVM loads child CL</text><line style="stroke:#A80036;stroke-width:1.5;" x1="543" x2="543" y1="686.2476" y2="727.6465"/><polygon fill="#A80036" points="539,717.6465,543,727.6465,547,717.6465,543,721.6465" style="stroke:#A80036;stroke-width:1.0;"/><text fill="#000000" font-family="Arial" font-size="11" lengthAdjust="spacing" textLength="102" x="547" y="707.5522">JVM loads child CL</text><line style="stroke:#A80036;stroke-width:1.5;" x1="543" x2="543" y1="775.584" y2="816.9829"/><polygon fill="#A80036" points="539,806.9829,543,816.9829,547,806.9829,543,810.9829" style="stroke:#A80036;stroke-width:1.0;"/><text fill="#000000" font-family="Arial" font-size="11" lengthAdjust="spacing" textLength="161" x="547" y="796.8887">JVM calls AppCL.loadClass of</text><line style="stroke:#A80036;stroke-width:1.5;" x1="543" x2="543" y1="850.9517" y2="893.7563"/><polygon fill="#A80036" points="539,883.7563,543,893.7563,547,883.7563,543,887.7563" style="stroke:#A80036;stroke-width:1.0;"/><text fill="#000000" font-family="Arial" font-size="11" lengthAdjust="spacing" textLength="49" x="547" y="872.2563">JVM calls</text><line style="stroke:#A80036;stroke-width:1.5;" x1="543" x2="543" y1="1004.1392" y2="1058.3428"/><polygon fill="#A80036" points="539,1048.3428,543,1058.3428,547,1048.3428,543,1052.3428" style="stroke:#A80036;stroke-width:1.0;"/><text fill="#000000" font-family="Arial" font-size="11" lengthAdjust="spacing" textLength="54" x="547" y="1025.4438">JVM loads</text><text fill="#000000" font-family="Arial" font-size="11" lengthAdjust="spacing" textLength="44" x="547" y="1038.2485">child CL</text><line style="stroke:#A80036;stroke-width:1.5;" x1="543" x2="543" y1="1092.3115" y2="1124.3115"/><polygon fill="#A80036" points="539,1114.3115,543,1124.3115,547,1114.3115,543,1118.3115" style="stroke:#A80036;stroke-width:1.0;"/><line style="stroke:#A80036;stroke-width:1.5;" x1="1053" x2="1053" y1="232.0347" y2="252.0347"/><polygon fill="#A80036" points="1049,242.0347,1053,252.0347,1057,242.0347,1053,246.0347" style="stroke:#A80036;stroke-width:1.0;"/><line style="stroke:#A80036;stroke-width:1.5;" x1="992.5" x2="992.5" y1="1176.3115" y2="1217.7104"/><polygon fill="#A80036" points="988.5,1207.7104,992.5,1217.7104,996.5,1207.7104,992.5,1211.7104" style="stroke:#A80036;stroke-width:1.0;"/><text fill="#000000" font-family="Arial" font-size="11" lengthAdjust="spacing" textLength="120" x="996.5" y="1197.6162">Container extracts to</text><line style="stroke:#A80036;stroke-width:1.5;" x1="992.5" x2="992.5" y1="1251.6792" y2="1293.0781"/><polygon fill="#A80036" points="988.5,1283.0781,992.5,1293.0781,996.5,1283.0781,992.5,1287.0781" style="stroke:#A80036;stroke-width:1.0;"/><text fill="#000000" font-family="Arial" font-size="11" lengthAdjust="spacing" textLength="137" x="996.5" y="1272.9839">Container loads child CL</text><line style="stroke:#A80036;stroke-width:1.5;" x1="992.5" x2="992.5" y1="1354.9844" y2="1396.3833"/><polygon fill="#A80036" points="988.5,1386.3833,992.5,1396.3833,996.5,1386.3833,992.5,1390.3833" style="stroke:#A80036;stroke-width:1.0;"/><text fill="#000000" font-family="Arial" font-size="11" lengthAdjust="spacing" textLength="102" x="996.5" y="1376.2891">Container creates</text><line style="stroke:#A80036;stroke-width:1.5;" x1="992.5" x2="992.5" y1="1430.3521" y2="1471.751"/><polygon fill="#A80036" points="988.5,1461.751,992.5,1471.751,996.5,1461.751,992.5,1465.751" style="stroke:#A80036;stroke-width:1.0;"/><text fill="#000000" font-family="Arial" font-size="11" lengthAdjust="spacing" textLength="101" x="996.5" y="1451.6567">Container notifies</text><line style="stroke:#A80036;stroke-width:1.5;" x1="992.5" x2="992.5" y1="1505.7197" y2="1547.1187"/><polygon fill="#A80036" points="988.5,1537.1187,992.5,1547.1187,996.5,1537.1187,992.5,1541.1187" style="stroke:#A80036;stroke-width:1.0;"/><text fill="#000000" font-family="Arial" font-size="11" lengthAdjust="spacing" textLength="89" x="996.5" y="1527.0244">Container loads</text><line style="stroke:#A80036;stroke-width:1.5;" x1="992.5" x2="992.5" y1="1581.0874" y2="1601.0874"/><polygon fill="#A80036" points="988.5,1591.0874,992.5,1601.0874,996.5,1591.0874,992.5,1595.0874" style="stroke:#A80036;stroke-width:1.0;"/><line style="stroke:#A80036;stroke-width:1.5;" x1="992.5" x2="992.5" y1="1635.0562" y2="1655.0562"/><polygon fill="#A80036" points="988.5,1645.0562,992.5,1655.0562,996.5,1645.0562,992.5,1649.0562" style="stroke:#A80036;stroke-width:1.0;"/><line style="stroke:#A80036;stroke-width:1.5;" x1="992.5" x2="992.5" y1="1702.9937" y2="1722.9937"/><polygon fill="#A80036" points="988.5,1712.9937,992.5,1722.9937,996.5,1712.9937,992.5,1716.9937" style="stroke:#A80036;stroke-width:1.0;"/><line style="stroke:#A80036;stroke-width:1.5;" x1="992.5" x2="992.5" y1="1770.9312" y2="1790.9312"/><polygon fill="#A80036" points="988.5,1780.9312,992.5,1790.9312,996.5,1780.9312,992.5,1784.9312" style="stroke:#A80036;stroke-width:1.0;"/><line style="stroke:#A80036;stroke-width:1.5;" x1="77" x2="65" y1="166.0659" y2="166.0659"/><line style="stroke:#A80036;stroke-width:1.5;" x1="65" x2="65" y1="166.0659" y2="184.0659"/><line style="stroke:#A80036;stroke-width:1.5;" x1="65" x2="482.5" y1="184.0659" y2="184.0659"/><line style="stroke:#A80036;stroke-width:1.5;" x1="482.5" x2="482.5" y1="184.0659" y2="198.0659"/><polygon fill="#A80036" points="478.5,188.0659,482.5,198.0659,486.5,188.0659,482.5,192.0659" style="stroke:#A80036;stroke-width:1.0;"/><line style="stroke:#A80036;stroke-width:1.5;" x1="178" x2="1053" y1="166.0659" y2="166.0659"/><line style="stroke:#A80036;stroke-width:1.5;" x1="1053" x2="1053" y1="166.0659" y2="198.0659"/><polygon fill="#A80036" points="1049,188.0659,1053,198.0659,1057,188.0659,1053,192.0659" style="stroke:#A80036;stroke-width:1.0;"/><text fill="#000000" font-family="Arial" font-size="18" lengthAdjust="spacing" textLength="87" x="87" y="29.4531">Dev/Build</text><text fill="#000000" font-family="Arial" font-size="18" lengthAdjust="spacing" textLength="206" x="452" y="29.4531">Runtime Environment</text><text fill="#000000" font-family="Arial" font-size="18" lengthAdjust="spacing" textLength="218" x="892.25" y="29.4531">Container Environment</text><!--MD5=[e9f2ee24adfd333f9f256864e9e41c45]
@startuml
skinparam style strictuml
skinparam defaultFontName Arial

|Dev/Build|
start
:".class files";
-> package;
if ("jar/war/ear"?) equals (jar) then
->jar deploy;
|Runtime Environment|
:RE Location;
stop
else
->war deploy;
|Container Environment|
:webapp folder;
stop
endif


|Runtime Environment|
start
-> service or 
human runs;
split
:java -jar ...jar;
split again
:java -classpath ...jar:..jar mainClass;
end split
->JVM extracts to;
:extracted folder;
->JVM loads;
:boot classloader
with cp=JRE jars;
->JVM loads child CL;
:ext classloader 
with cp=JRE ext jars;
->JVM loads child CL;
:App classloader
with cp=App jar;
->JVM calls AppCL.loadClass of;
:main class;
->JVM calls;
:MainClass.main;
note right
apps can further load classloaders
example: Spring Boot;
end note
-[hidden]->

partition Container {
:MainClass.main;
-> JVM loads 
child CL;
:URL classloader;
}
stop

|Container Environment|
start
->Container extracts to;
#LightSkyBlue:appname folder;
->Container loads child CL;
#LightSkyBlue:WebApp classloader
with cp=WEB-INF/classes/ dir
and WEB-INF/lib/*.jar jars;

->Container creates;
#LightSkyBlue:JavaEE Servlet context with WCL;
->Container notifies;
:App's Context listeners;
->Container loads;
:App's Servlets with WCL;
:Container inits App's Servlets;
:Listeners may load further containers
like Spring;
: load new business class from 
WCL or container on top;
stop

|Runtime Environment|
floating note left
listeners may create a spring context
end note
@enduml

PlantUML version 1.2021.2beta9(Unknown compile time)
(GPL source distribution)
Java Runtime: Java(TM) SE Runtime Environment
JVM: Java HotSpot(TM) 64-Bit Server VM
Default Encoding: UTF-8
Language: en
Country: US
--></g></svg>