<?xml version="1.0" encoding="UTF-8" standalone="no"?><svg xmlns="http://www.w3.org/2000/svg" xmlns:xlink="http://www.w3.org/1999/xlink" contentScriptType="application/ecmascript" contentStyleType="text/css" height="1826px" preserveAspectRatio="none" style="width:1043px;height:1826px;" version="1.1" viewBox="0 0 1043 1826" width="1043px" zoomAndPan="magnify"><defs/><g><ellipse cx="127.5" cy="48.6982" fill="#000000" rx="10" ry="10" style="stroke:none;stroke-width:1.0;"/><rect fill="#FEFECE" height="33.9688" rx="12.5" ry="12.5" style="stroke:#A80036;stroke-width:1.5;" width="93" x="81" y="78.6982"/><text fill="#000000" font-family="Arial" font-size="12" lengthAdjust="spacing" textLength="73" x="91" y="99.8369">".class files"</text><polygon fill="#FEFECE" points="89,154.0659,166,154.0659,178,166.0659,166,178.0659,89,178.0659,77,166.0659,89,154.0659" style="stroke:#A80036;stroke-width:1.5;"/><text fill="#000000" font-family="Arial" font-size="11" lengthAdjust="spacing" textLength="77" x="89" y="169.874">"jar/war/ear"?</text><text fill="#000000" font-family="Arial" font-size="11" lengthAdjust="spacing" textLength="57" x="20" y="163.4717">jar deploy</text><text fill="#000000" font-family="Arial" font-size="11" lengthAdjust="spacing" textLength="63" x="178" y="163.4717">war deploy</text><line style="stroke:#000000;stroke-width:2.0;" x1="15" x2="15" y1="12.7451" y2="1814.4976"/><rect fill="#FEFECE" height="33.9688" rx="12.5" ry="12.5" style="stroke:#A80036;stroke-width:1.5;" width="88" x="323" y="198.0659"/><text fill="#000000" font-family="Arial" font-size="12" lengthAdjust="spacing" textLength="68" x="333" y="219.2046">RE Location</text><ellipse cx="367" cy="263.0347" fill="#FFFFFF" rx="11" ry="11" style="stroke:#000000;stroke-width:1.0;"/><ellipse cx="367" cy="263.0347" fill="#000000" rx="6" ry="6" style="stroke:#7F7F7F;stroke-width:1.0;"/><ellipse cx="427.5" cy="294.0347" fill="#000000" rx="10" ry="10" style="stroke:none;stroke-width:1.0;"/><line style="stroke:#A80036;stroke-width:1.5;" x1="300" x2="489.5" y1="358.2383" y2="358.2383"/><rect fill="#FEFECE" height="33.9688" rx="12.5" ry="12.5" style="stroke:#A80036;stroke-width:1.5;" width="96" x="252" y="378.2383"/><text fill="#000000" font-family="Arial" font-size="12" lengthAdjust="spacing" textLength="76" x="262" y="399.377">java -jar ...jar</text><rect fill="#FEFECE" height="33.9688" rx="12.5" ry="12.5" style="stroke:#A80036;stroke-width:1.5;" width="227" x="376" y="378.2383"/><text fill="#000000" font-family="Arial" font-size="12" lengthAdjust="spacing" textLength="207" x="386" y="399.377">java -classpath ...jar:..jar mainClass</text><line style="stroke:#A80036;stroke-width:1.5;" x1="300" x2="489.5" y1="432.207" y2="432.207"/><rect fill="#FEFECE" height="33.9688" rx="12.5" ry="12.5" style="stroke:#A80036;stroke-width:1.5;" width="118" x="368.5" y="473.606"/><text fill="#000000" font-family="Arial" font-size="12" lengthAdjust="spacing" textLength="98" x="378.5" y="494.7446">extracted folder</text><rect fill="#FEFECE" height="47.9375" rx="12.5" ry="12.5" style="stroke:#A80036;stroke-width:1.5;" width="122" x="366.5" y="548.9736"/><text fill="#000000" font-family="Arial" font-size="12" lengthAdjust="spacing" textLength="102" x="376.5" y="570.1123">boot classloader</text><text fill="#000000" font-family="Arial" font-size="12" lengthAdjust="spacing" textLength="97" x="376.5" y="584.0811">with cp=JRE jars</text><rect fill="#FEFECE" height="47.9375" rx="12.5" ry="12.5" style="stroke:#A80036;stroke-width:1.5;" width="140" x="357.5" y="638.3101"/><text fill="#000000" font-family="Arial" font-size="12" lengthAdjust="spacing" textLength="93" x="367.5" y="659.4487">ext classloader</text><text fill="#000000" font-family="Arial" font-size="12" lengthAdjust="spacing" textLength="120" x="367.5" y="673.4175">with cp=JRE ext jars</text><rect fill="#FEFECE" height="47.9375" rx="12.5" ry="12.5" style="stroke:#A80036;stroke-width:1.5;" width="118" x="368.5" y="727.6465"/><text fill="#000000" font-family="Arial" font-size="12" lengthAdjust="spacing" textLength="98" x="378.5" y="748.7852">App classloader</text><text fill="#000000" font-family="Arial" font-size="12" lengthAdjust="spacing" textLength="96" x="378.5" y="762.7539">with cp=App jar</text><rect fill="#FEFECE" height="33.9688" rx="12.5" ry="12.5" style="stroke:#A80036;stroke-width:1.5;" width="83" x="386" y="816.9829"/><text fill="#000000" font-family="Arial" font-size="12" lengthAdjust="spacing" textLength="63" x="396" y="838.1216">main class</text><path d="M502.5,890.6079 L502.5,906.7407 L482.5,910.7407 L502.5,914.7407 L502.5,930.8735 A0,0 0 0 0 502.5,930.8735 L743.5,930.8735 A0,0 0 0 0 743.5,930.8735 L743.5,900.6079 L733.5,890.6079 L502.5,890.6079 A0,0 0 0 0 502.5,890.6079 " fill="#FBFB77" style="stroke:#A80036;stroke-width:1.0;"/><path d="M733.5,890.6079 L733.5,900.6079 L743.5,900.6079 L733.5,890.6079 " fill="#FBFB77" style="stroke:#A80036;stroke-width:1.0;"/><text fill="#000000" font-family="Arial" font-size="13" lengthAdjust="spacing" textLength="220" x="508.5" y="907.6748">apps can further load classloaders</text><text fill="#000000" font-family="Arial" font-size="13" lengthAdjust="spacing" textLength="143" x="508.5" y="922.8076">example: Spring Boot;</text><rect fill="#FEFECE" height="33.9688" rx="12.5" ry="12.5" style="stroke:#A80036;stroke-width:1.5;" width="110" x="372.5" y="893.7563"/><text fill="#000000" font-family="Arial" font-size="12" lengthAdjust="spacing" textLength="90" x="382.5" y="914.895">MainClass.main</text><rect fill="#FFFFFF" height="163.438" style="stroke:#000000;stroke-width:2.0;" width="136" x="359.5" y="940.8735"/><path d="M440.5,940.8735 L440.5,950.1704 L430.5,960.1704 L359.5,960.1704 " fill="none" style="stroke:#000000;stroke-width:2.0;"/><text fill="#000000" font-family="Arial" font-size="14" lengthAdjust="spacing" textLength="71" x="362.5" y="954.8687">Container</text><rect fill="#FEFECE" height="33.9688" rx="12.5" ry="12.5" style="stroke:#A80036;stroke-width:1.5;" width="110" x="372.5" y="970.1704"/><text fill="#000000" font-family="Arial" font-size="12" lengthAdjust="spacing" textLength="90" x="382.5" y="991.3091">MainClass.main</text><rect fill="#FEFECE" height="33.9688" rx="12.5" ry="12.5" style="stroke:#A80036;stroke-width:1.5;" width="116" x="369.5" y="1058.3428"/><text fill="#000000" font-family="Arial" font-size="12" lengthAdjust="spacing" textLength="96" x="379.5" y="1079.4814">URL classloader</text><ellipse cx="427.5" cy="1135.3115" fill="#FFFFFF" rx="11" ry="11" style="stroke:#000000;stroke-width:1.0;"/><ellipse cx="427.5" cy="1135.3115" fill="#000000" rx="6" ry="6" style="stroke:#7F7F7F;stroke-width:1.0;"/><path d="M458.5,1789.3647 L458.5,1797.9312 L438.5,1801.9312 L458.5,1805.9312 L458.5,1814.4976 A0,0 0 0 0 458.5,1814.4976 L719.5,1814.4976 A0,0 0 0 0 719.5,1814.4976 L719.5,1799.3647 L709.5,1789.3647 L458.5,1789.3647 A0,0 0 0 0 458.5,1789.3647 " fill="#FBFB77" style="stroke:#A80036;stroke-width:1.0;"/><path d="M709.5,1789.3647 L709.5,1799.3647 L719.5,1799.3647 L709.5,1789.3647 " fill="#FBFB77" style="stroke:#A80036;stroke-width:1.0;"/><text fill="#000000" font-family="Arial" font-size="13" lengthAdjust="spacing" textLength="240" x="464.5" y="1806.4316">listeners may create a spring context</text><line style="stroke:#000000;stroke-width:2.0;" x1="246" x2="246" y1="12.7451" y2="1814.4976"/><rect fill="#FEFECE" height="33.9688" rx="12.5" ry="12.5" style="stroke:#A80036;stroke-width:1.5;" width="109" x="883" y="198.0659"/><text fill="#000000" font-family="Arial" font-size="12" lengthAdjust="spacing" textLength="89" x="893" y="219.2046">webapp folder</text><ellipse cx="937.5" cy="263.0347" fill="#FFFFFF" rx="11" ry="11" style="stroke:#000000;stroke-width:1.0;"/><ellipse cx="937.5" cy="263.0347" fill="#000000" rx="6" ry="6" style="stroke:#7F7F7F;stroke-width:1.0;"/><ellipse cx="877" cy="1166.3115" fill="#000000" rx="10" ry="10" style="stroke:none;stroke-width:1.0;"/><rect fill="#87CEFA" height="33.9688" rx="12.5" ry="12.5" style="stroke:#A80036;stroke-width:1.5;" width="116" x="819" y="1217.7104"/><text fill="#000000" font-family="Arial" font-size="12" lengthAdjust="spacing" textLength="96" x="829" y="1238.8491">appname folder</text><rect fill="#87CEFA" height="61.9063" rx="12.5" ry="12.5" style="stroke:#A80036;stroke-width:1.5;" width="197" x="778.5" y="1293.0781"/><text fill="#000000" font-family="Arial" font-size="12" lengthAdjust="spacing" textLength="126" x="788.5" y="1314.2168">WebApp classloader</text><text fill="#000000" font-family="Arial" font-size="12" lengthAdjust="spacing" textLength="177" x="788.5" y="1328.1855">with cp=WEB-INF/classes/ dir</text><text fill="#000000" font-family="Arial" font-size="12" lengthAdjust="spacing" textLength="149" x="788.5" y="1342.1543">and WEB-INF/lib/*.jar jars</text><rect fill="#87CEFA" height="33.9688" rx="12.5" ry="12.5" style="stroke:#A80036;stroke-width:1.5;" width="213" x="770.5" y="1396.3833"/><text fill="#000000" font-family="Arial" font-size="12" lengthAdjust="spacing" textLength="193" x="780.5" y="1417.522">JavaEE Servlet context with WCL</text><rect fill="#FEFECE" height="33.9688" rx="12.5" ry="12.5" style="stroke:#A80036;stroke-width:1.5;" width="160" x="797" y="1471.751"/><text fill="#000000" font-family="Arial" font-size="12" lengthAdjust="spacing" textLength="140" x="807" y="1492.8896">App's Context listeners</text><rect fill="#FEFECE" height="33.9688" rx="12.5" ry="12.5" style="stroke:#A80036;stroke-width:1.5;" width="166" x="794" y="1547.1187"/><text fill="#000000" font-family="Arial" font-size="12" lengthAdjust="spacing" textLength="146" x="804" y="1568.2573">App's Servlets with WCL</text><rect fill="#FEFECE" height="33.9688" rx="12.5" ry="12.5" style="stroke:#A80036;stroke-width:1.5;" width="197" x="778.5" y="1601.0874"/><text fill="#000000" font-family="Arial" font-size="12" lengthAdjust="spacing" textLength="177" x="788.5" y="1622.2261">Container inits App's Servlets</text><rect fill="#FEFECE" height="47.9375" rx="12.5" ry="12.5" style="stroke:#A80036;stroke-width:1.5;" width="245" x="754.5" y="1655.0562"/><text fill="#000000" font-family="Arial" font-size="12" lengthAdjust="spacing" textLength="225" x="764.5" y="1676.1948">Listeners may load further containers</text><text fill="#000000" font-family="Arial" font-size="12" lengthAdjust="spacing" textLength="64" x="764.5" y="1690.1636">like Spring</text><rect fill="#FEFECE" height="47.9375" rx="12.5" ry="12.5" style="stroke:#A80036;stroke-width:1.5;" width="204" x="775" y="1722.9937"/><text fill="#000000" font-family="Arial" font-size="12" lengthAdjust="spacing" textLength="180" x="789" y="1744.1323">load new business class from</text><text fill="#000000" font-family="Arial" font-size="12" lengthAdjust="spacing" textLength="146" x="785" y="1758.1011">WCL or container on top</text><ellipse cx="877" cy="1801.9312" fill="#FFFFFF" rx="11" ry="11" style="stroke:#000000;stroke-width:1.0;"/><ellipse cx="877" cy="1801.9312" fill="#000000" rx="6" ry="6" style="stroke:#7F7F7F;stroke-width:1.0;"/><line style="stroke:#000000;stroke-width:2.0;" x1="748.5" x2="748.5" y1="12.7451" y2="1814.4976"/><line style="stroke:#000000;stroke-width:2.0;" x1="1023" x2="1023" y1="12.7451" y2="1814.4976"/><line style="stroke:#A80036;stroke-width:1.5;" x1="127.5" x2="127.5" y1="58.6982" y2="78.6982"/><polygon fill="#A80036" points="123.5,68.6982,127.5,78.6982,131.5,68.6982,127.5,72.6982" style="stroke:#A80036;stroke-width:1.0;"/><line style="stroke:#A80036;stroke-width:1.5;" x1="127.5" x2="127.5" y1="112.667" y2="154.0659"/><polygon fill="#A80036" points="123.5,144.0659,127.5,154.0659,131.5,144.0659,127.5,148.0659" style="stroke:#A80036;stroke-width:1.0;"/><text fill="#000000" font-family="Arial" font-size="11" lengthAdjust="spacing" textLength="48" x="131.5" y="133.9717">package</text><line style="stroke:#A80036;stroke-width:1.5;" x1="367" x2="367" y1="232.0347" y2="252.0347"/><polygon fill="#A80036" points="363,242.0347,367,252.0347,371,242.0347,367,246.0347" style="stroke:#A80036;stroke-width:1.0;"/><line style="stroke:#A80036;stroke-width:1.5;" x1="300" x2="300" y1="359.7383" y2="378.2383"/><polygon fill="#A80036" points="296,368.2383,300,378.2383,304,368.2383,300,372.2383" style="stroke:#A80036;stroke-width:1.0;"/><line style="stroke:#A80036;stroke-width:1.5;" x1="489.5" x2="489.5" y1="359.7383" y2="378.2383"/><polygon fill="#A80036" points="485.5,368.2383,489.5,378.2383,493.5,368.2383,489.5,372.2383" style="stroke:#A80036;stroke-width:1.0;"/><line style="stroke:#A80036;stroke-width:1.5;" x1="300" x2="300" y1="412.207" y2="432.207"/><polygon fill="#A80036" points="296,422.207,300,432.207,304,422.207,300,426.207" style="stroke:#A80036;stroke-width:1.0;"/><line style="stroke:#A80036;stroke-width:1.5;" x1="489.5" x2="489.5" y1="412.207" y2="432.207"/><polygon fill="#A80036" points="485.5,422.207,489.5,432.207,493.5,422.207,489.5,426.207" style="stroke:#A80036;stroke-width:1.0;"/><line style="stroke:#A80036;stroke-width:1.5;" x1="427.5" x2="427.5" y1="304.0347" y2="358.2383"/><polygon fill="#A80036" points="423.5,348.2383,427.5,358.2383,431.5,348.2383,427.5,352.2383" style="stroke:#A80036;stroke-width:1.0;"/><text fill="#000000" font-family="Arial" font-size="11" lengthAdjust="spacing" textLength="57" x="431.5" y="325.3394">service or</text><text fill="#000000" font-family="Arial" font-size="11" lengthAdjust="spacing" textLength="67" x="431.5" y="338.144">human runs</text><line style="stroke:#A80036;stroke-width:1.5;" x1="427.5" x2="427.5" y1="433.707" y2="473.606"/><polygon fill="#A80036" points="423.5,463.606,427.5,473.606,431.5,463.606,427.5,467.606" style="stroke:#A80036;stroke-width:1.0;"/><text fill="#000000" font-family="Arial" font-size="11" lengthAdjust="spacing" textLength="85" x="431.5" y="453.5117">JVM extracts to</text><line style="stroke:#A80036;stroke-width:1.5;" x1="427.5" x2="427.5" y1="507.5747" y2="548.9736"/><polygon fill="#A80036" points="423.5,538.9736,427.5,548.9736,431.5,538.9736,427.5,542.9736" style="stroke:#A80036;stroke-width:1.0;"/><text fill="#000000" font-family="Arial" font-size="11" lengthAdjust="spacing" textLength="54" x="431.5" y="528.8794">JVM loads</text><line style="stroke:#A80036;stroke-width:1.5;" x1="427.5" x2="427.5" y1="596.9111" y2="638.3101"/><polygon fill="#A80036" points="423.5,628.3101,427.5,638.3101,431.5,628.3101,427.5,632.3101" style="stroke:#A80036;stroke-width:1.0;"/><text fill="#000000" font-family="Arial" font-size="11" lengthAdjust="spacing" textLength="102" x="431.5" y="618.2158">JVM loads child CL</text><line style="stroke:#A80036;stroke-width:1.5;" x1="427.5" x2="427.5" y1="686.2476" y2="727.6465"/><polygon fill="#A80036" points="423.5,717.6465,427.5,727.6465,431.5,717.6465,427.5,721.6465" style="stroke:#A80036;stroke-width:1.0;"/><text fill="#000000" font-family="Arial" font-size="11" lengthAdjust="spacing" textLength="102" x="431.5" y="707.5522">JVM loads child CL</text><line style="stroke:#A80036;stroke-width:1.5;" x1="427.5" x2="427.5" y1="775.584" y2="816.9829"/><polygon fill="#A80036" points="423.5,806.9829,427.5,816.9829,431.5,806.9829,427.5,810.9829" style="stroke:#A80036;stroke-width:1.0;"/><text fill="#000000" font-family="Arial" font-size="11" lengthAdjust="spacing" textLength="161" x="431.5" y="796.8887">JVM calls AppCL.loadClass of</text><line style="stroke:#A80036;stroke-width:1.5;" x1="427.5" x2="427.5" y1="850.9517" y2="893.7563"/><polygon fill="#A80036" points="423.5,883.7563,427.5,893.7563,431.5,883.7563,427.5,887.7563" style="stroke:#A80036;stroke-width:1.0;"/><text fill="#000000" font-family="Arial" font-size="11" lengthAdjust="spacing" textLength="49" x="431.5" y="872.2563">JVM calls</text><line style="stroke:#A80036;stroke-width:1.5;" x1="427.5" x2="427.5" y1="1004.1392" y2="1058.3428"/><polygon fill="#A80036" points="423.5,1048.3428,427.5,1058.3428,431.5,1048.3428,427.5,1052.3428" style="stroke:#A80036;stroke-width:1.0;"/><text fill="#000000" font-family="Arial" font-size="11" lengthAdjust="spacing" textLength="54" x="431.5" y="1025.4438">JVM loads</text><text fill="#000000" font-family="Arial" font-size="11" lengthAdjust="spacing" textLength="44" x="431.5" y="1038.2485">child CL</text><line style="stroke:#A80036;stroke-width:1.5;" x1="427.5" x2="427.5" y1="1092.3115" y2="1124.3115"/><polygon fill="#A80036" points="423.5,1114.3115,427.5,1124.3115,431.5,1114.3115,427.5,1118.3115" style="stroke:#A80036;stroke-width:1.0;"/><line style="stroke:#A80036;stroke-width:1.5;" x1="937.5" x2="937.5" y1="232.0347" y2="252.0347"/><polygon fill="#A80036" points="933.5,242.0347,937.5,252.0347,941.5,242.0347,937.5,246.0347" style="stroke:#A80036;stroke-width:1.0;"/><line style="stroke:#A80036;stroke-width:1.5;" x1="877" x2="877" y1="1176.3115" y2="1217.7104"/><polygon fill="#A80036" points="873,1207.7104,877,1217.7104,881,1207.7104,877,1211.7104" style="stroke:#A80036;stroke-width:1.0;"/><text fill="#000000" font-family="Arial" font-size="11" lengthAdjust="spacing" textLength="120" x="881" y="1197.6162">Container extracts to</text><line style="stroke:#A80036;stroke-width:1.5;" x1="877" x2="877" y1="1251.6792" y2="1293.0781"/><polygon fill="#A80036" points="873,1283.0781,877,1293.0781,881,1283.0781,877,1287.0781" style="stroke:#A80036;stroke-width:1.0;"/><text fill="#000000" font-family="Arial" font-size="11" lengthAdjust="spacing" textLength="137" x="881" y="1272.9839">Container loads child CL</text><line style="stroke:#A80036;stroke-width:1.5;" x1="877" x2="877" y1="1354.9844" y2="1396.3833"/><polygon fill="#A80036" points="873,1386.3833,877,1396.3833,881,1386.3833,877,1390.3833" style="stroke:#A80036;stroke-width:1.0;"/><text fill="#000000" font-family="Arial" font-size="11" lengthAdjust="spacing" textLength="102" x="881" y="1376.2891">Container creates</text><line style="stroke:#A80036;stroke-width:1.5;" x1="877" x2="877" y1="1430.3521" y2="1471.751"/><polygon fill="#A80036" points="873,1461.751,877,1471.751,881,1461.751,877,1465.751" style="stroke:#A80036;stroke-width:1.0;"/><text fill="#000000" font-family="Arial" font-size="11" lengthAdjust="spacing" textLength="101" x="881" y="1451.6567">Container notifies</text><line style="stroke:#A80036;stroke-width:1.5;" x1="877" x2="877" y1="1505.7197" y2="1547.1187"/><polygon fill="#A80036" points="873,1537.1187,877,1547.1187,881,1537.1187,877,1541.1187" style="stroke:#A80036;stroke-width:1.0;"/><text fill="#000000" font-family="Arial" font-size="11" lengthAdjust="spacing" textLength="89" x="881" y="1527.0244">Container loads</text><line style="stroke:#A80036;stroke-width:1.5;" x1="877" x2="877" y1="1581.0874" y2="1601.0874"/><polygon fill="#A80036" points="873,1591.0874,877,1601.0874,881,1591.0874,877,1595.0874" style="stroke:#A80036;stroke-width:1.0;"/><line style="stroke:#A80036;stroke-width:1.5;" x1="877" x2="877" y1="1635.0562" y2="1655.0562"/><polygon fill="#A80036" points="873,1645.0562,877,1655.0562,881,1645.0562,877,1649.0562" style="stroke:#A80036;stroke-width:1.0;"/><line style="stroke:#A80036;stroke-width:1.5;" x1="877" x2="877" y1="1702.9937" y2="1722.9937"/><polygon fill="#A80036" points="873,1712.9937,877,1722.9937,881,1712.9937,877,1716.9937" style="stroke:#A80036;stroke-width:1.0;"/><line style="stroke:#A80036;stroke-width:1.5;" x1="877" x2="877" y1="1770.9312" y2="1790.9312"/><polygon fill="#A80036" points="873,1780.9312,877,1790.9312,881,1780.9312,877,1784.9312" style="stroke:#A80036;stroke-width:1.0;"/><line style="stroke:#A80036;stroke-width:1.5;" x1="77" x2="65" y1="166.0659" y2="166.0659"/><line style="stroke:#A80036;stroke-width:1.5;" x1="65" x2="65" y1="166.0659" y2="184.0659"/><line style="stroke:#A80036;stroke-width:1.5;" x1="65" x2="367" y1="184.0659" y2="184.0659"/><line style="stroke:#A80036;stroke-width:1.5;" x1="367" x2="367" y1="184.0659" y2="198.0659"/><polygon fill="#A80036" points="363,188.0659,367,198.0659,371,188.0659,367,192.0659" style="stroke:#A80036;stroke-width:1.0;"/><line style="stroke:#A80036;stroke-width:1.5;" x1="178" x2="937.5" y1="166.0659" y2="166.0659"/><line style="stroke:#A80036;stroke-width:1.5;" x1="937.5" x2="937.5" y1="166.0659" y2="198.0659"/><polygon fill="#A80036" points="933.5,188.0659,937.5,198.0659,941.5,188.0659,937.5,192.0659" style="stroke:#A80036;stroke-width:1.0;"/><text fill="#000000" font-family="Arial" font-size="18" lengthAdjust="spacing" textLength="87" x="87" y="29.4531">Dev/Build</text><text fill="#000000" font-family="Arial" font-size="18" lengthAdjust="spacing" textLength="206" x="394.25" y="29.4531">Runtime Environment</text><text fill="#000000" font-family="Arial" font-size="18" lengthAdjust="spacing" textLength="218" x="776.75" y="29.4531">Container Environment</text><!--MD5=[9e3818a9e13f8b620ccc86d5876c21b6]
@startuml
skinparam style strictuml
skinparam defaultFontName Arial

|Dev/Build|
start
:".class files";
-> package;
if ("jar/war/ear"?) equals (jar) then
->jar deploy;
|Runtime Environment|
:RE Location;
stop
else
->war deploy;
|Container Environment|
:webapp folder;
stop
endif


|Runtime Environment|
start
-> service or 
human runs;
split
:java -jar ...jar;
split again
:java -classpath ...jar:..jar mainClass;
end split
->JVM extracts to;
:extracted folder;
->JVM loads;
:boot classloader
with cp=JRE jars;
->JVM loads child CL;
:ext classloader 
with cp=JRE ext jars;
->JVM loads child CL;
:App classloader
with cp=App jar;
->JVM calls AppCL.loadClass of;
:main class;
->JVM calls;
:MainClass.main;
note right
apps can further load classloaders
example: Spring Boot;
end note
-[hidden]->

partition Container {
:MainClass.main;
-> JVM loads 
child CL;
:URL classloader;
}
stop

|Container Environment|
start
->Container extracts to;
#LightSkyBlue:appname folder;
->Container loads child CL;
#LightSkyBlue:WebApp classloader
with cp=WEB-INF/classes/ dir
and WEB-INF/lib/*.jar jars;

->Container creates;
#LightSkyBlue:JavaEE Servlet context with WCL;
->Container notifies;
:App's Context listeners;
->Container loads;
:App's Servlets with WCL;
:Container inits App's Servlets;
:Listeners may load further containers
like Spring;
: load new business class from 
WCL or container on top;
stop

|Runtime Environment|
note right
listeners may create a spring context
end note
@enduml

PlantUML version 1.2021.2beta9(Unknown compile time)
(GPL source distribution)
Java Runtime: Java(TM) SE Runtime Environment
JVM: Java HotSpot(TM) 64-Bit Server VM
Default Encoding: UTF-8
Language: en
Country: US
--></g></svg>