<?xml version="1.0" encoding="UTF-8" standalone="no"?><svg xmlns="http://www.w3.org/2000/svg" xmlns:xlink="http://www.w3.org/1999/xlink" contentScriptType="application/ecmascript" contentStyleType="text/css" height="2256px" preserveAspectRatio="none" style="width:1216px;height:2256px;background:#FFFFFF;" version="1.1" viewBox="0 0 1216 2256" width="1216px" zoomAndPan="magnify"><defs><filter height="300%" id="f1xlfkymvokjkq" width="300%" x="-1" y="-1"><feGaussianBlur result="blurOut" stdDeviation="2.0"/><feColorMatrix in="blurOut" result="blurOut2" type="matrix" values="0 0 0 0 0 0 0 0 0 0 0 0 0 0 0 0 0 0 .4 0"/><feOffset dx="4.0" dy="4.0" in="blurOut2" result="blurOut3"/><feBlend in="SourceGraphic" in2="blurOut3" mode="normal"/></filter></defs><g><rect fill="#FFFFFF" filter="url(#f1xlfkymvokjkq)" height="2018.1016" style="stroke:#A80036;stroke-width:1.0;" width="10" x="158.5" y="119.4297"/><rect fill="#FFFFFF" filter="url(#f1xlfkymvokjkq)" height="28" style="stroke:#A80036;stroke-width:1.0;" width="10" x="163.5" y="156.5625"/><rect fill="#FFFFFF" filter="url(#f1xlfkymvokjkq)" height="89.2656" style="stroke:#A80036;stroke-width:1.0;" width="10" x="163.5" y="228.6953"/><rect fill="#FFFFFF" filter="url(#f1xlfkymvokjkq)" height="28" style="stroke:#A80036;stroke-width:1.0;" width="10" x="163.5" y="363.1602"/><rect fill="#FFFFFF" filter="url(#f1xlfkymvokjkq)" height="967.1172" style="stroke:#A80036;stroke-width:1.0;" width="10" x="163.5" y="569.0234"/><rect fill="#FFFFFF" filter="url(#f1xlfkymvokjkq)" height="264.0625" style="stroke:#A80036;stroke-width:1.0;" width="10" x="163.5" y="1615.2734"/><rect fill="#FFFFFF" filter="url(#f1xlfkymvokjkq)" height="12" style="stroke:#A80036;stroke-width:1.0;" width="10" x="504.5" y="262.8281"/><rect fill="#FFFFFF" filter="url(#f1xlfkymvokjkq)" height="12" style="stroke:#A80036;stroke-width:1.0;" width="10" x="504.5" y="305.9609"/><rect fill="#FFFFFF" filter="url(#f1xlfkymvokjkq)" height="96.5313" style="stroke:#A80036;stroke-width:1.0;" width="10" x="504.5" y="433.3594"/><rect fill="#FFFFFF" filter="url(#f1xlfkymvokjkq)" height="12" style="stroke:#A80036;stroke-width:1.0;" width="10" x="504.5" y="1910.4688"/><rect fill="#FFFFFF" filter="url(#f1xlfkymvokjkq)" height="12" style="stroke:#A80036;stroke-width:1.0;" width="10" x="605.5" y="677.4219"/><rect fill="#FFFFFF" filter="url(#f1xlfkymvokjkq)" height="12" style="stroke:#A80036;stroke-width:1.0;" width="10" x="605.5" y="948.75"/><rect fill="#FFFFFF" filter="url(#f1xlfkymvokjkq)" height="12" style="stroke:#A80036;stroke-width:1.0;" width="10" x="605.5" y="1174.8125"/><rect fill="#FFFFFF" filter="url(#f1xlfkymvokjkq)" height="12" style="stroke:#A80036;stroke-width:1.0;" width="10" x="605.5" y="1339.3438"/><rect fill="#FFFFFF" filter="url(#f1xlfkymvokjkq)" height="12" style="stroke:#A80036;stroke-width:1.0;" width="10" x="605.5" y="1649.4063"/><rect fill="#FFFFFF" filter="url(#f1xlfkymvokjkq)" height="12" style="stroke:#A80036;stroke-width:1.0;" width="10" x="605.5" y="1810.2031"/><rect fill="#FFFFFF" filter="url(#f1xlfkymvokjkq)" height="12" style="stroke:#A80036;stroke-width:1.0;" width="10" x="605.5" y="1867.3359"/><rect fill="#FFFFFF" filter="url(#f1xlfkymvokjkq)" height="12" style="stroke:#A80036;stroke-width:1.0;" width="10" x="605.5" y="1953.6016"/><rect fill="#FFFFFF" filter="url(#f1xlfkymvokjkq)" height="12" style="stroke:#A80036;stroke-width:1.0;" width="10" x="605.5" y="1996.7344"/><rect fill="#FFFFFF" filter="url(#f1xlfkymvokjkq)" height="12" style="stroke:#A80036;stroke-width:1.0;" width="10" x="813.5" y="627.2891"/><rect fill="#FFFFFF" filter="url(#f1xlfkymvokjkq)" height="12" style="stroke:#A80036;stroke-width:1.0;" width="10" x="813.5" y="829.2188"/><rect fill="#FFFFFF" filter="url(#f1xlfkymvokjkq)" height="12" style="stroke:#A80036;stroke-width:1.0;" width="10" x="813.5" y="1031.1484"/><rect fill="#FFFFFF" filter="url(#f1xlfkymvokjkq)" height="12" style="stroke:#A80036;stroke-width:1.0;" width="10" x="813.5" y="1257.2109"/><rect fill="#FFFFFF" filter="url(#f1xlfkymvokjkq)" height="12" style="stroke:#A80036;stroke-width:1.0;" width="10" x="1072.5" y="1500.1406"/><rect fill="#FFFFFF" filter="url(#f1xlfkymvokjkq)" height="60.2656" style="stroke:#000000;stroke-width:2.0;" width="930.5" x="42" y="589.0234"/><rect fill="#FFFFFF" filter="url(#f1xlfkymvokjkq)" height="60.2656" style="stroke:#000000;stroke-width:2.0;" width="930.5" x="42" y="790.9531"/><rect fill="#FFFFFF" filter="url(#f1xlfkymvokjkq)" height="60.2656" style="stroke:#000000;stroke-width:2.0;" width="930.5" x="42" y="992.8828"/><rect fill="#FFFFFF" filter="url(#f1xlfkymvokjkq)" height="219.0625" style="stroke:#000000;stroke-width:2.0;" width="950.5" x="32" y="1067.1484"/><rect fill="#FFFFFF" filter="url(#f1xlfkymvokjkq)" height="60.2656" style="stroke:#000000;stroke-width:2.0;" width="930.5" x="42" y="1218.9453"/><rect fill="#FFFFFF" filter="url(#f1xlfkymvokjkq)" height="91.3984" style="stroke:#000000;stroke-width:2.0;" width="1170.5" x="32" y="1437.7422"/><rect fill="#FFFFFF" filter="url(#f1xlfkymvokjkq)" height="60.2656" style="stroke:#000000;stroke-width:2.0;" width="1150.5" x="42" y="1461.875"/><rect fill="#FFFFFF" filter="url(#f1xlfkymvokjkq)" height="91.3984" style="stroke:#000000;stroke-width:2.0;" width="652.5" x="32" y="1747.8047"/><rect fill="#FFFFFF" filter="url(#f1xlfkymvokjkq)" height="60.2656" style="stroke:#000000;stroke-width:2.0;" width="632.5" x="42" y="1771.9375"/><line style="stroke:#A80036;stroke-width:1.0;stroke-dasharray:5.0,5.0;" x1="23" x2="23" y1="88.2969" y2="2172.6641"/><line style="stroke:#A80036;stroke-width:1.0;stroke-dasharray:5.0,5.0;" x1="163" x2="163" y1="88.2969" y2="2172.6641"/><line style="stroke:#A80036;stroke-width:1.0;stroke-dasharray:5.0,5.0;" x1="509.5" x2="509.5" y1="88.2969" y2="2172.6641"/><line style="stroke:#A80036;stroke-width:1.0;stroke-dasharray:5.0,5.0;" x1="610.5" x2="610.5" y1="88.2969" y2="2172.6641"/><line style="stroke:#A80036;stroke-width:1.0;stroke-dasharray:5.0,5.0;" x1="818.5" x2="818.5" y1="88.2969" y2="2172.6641"/><line style="stroke:#A80036;stroke-width:1.0;stroke-dasharray:5.0,5.0;" x1="1077.5" x2="1077.5" y1="88.2969" y2="2172.6641"/><text fill="#000000" font-family="sans-serif" font-size="14" lengthAdjust="spacing" textLength="31" x="5" y="84.9951">User</text><ellipse cx="23.5" cy="15" fill="#FEFECE" filter="url(#f1xlfkymvokjkq)" rx="8" ry="8" style="stroke:#A80036;stroke-width:2.0;"/><path d="M23.5,23 L23.5,50 M10.5,31 L36.5,31 M23.5,50 L10.5,65 M23.5,50 L36.5,65 " fill="none" filter="url(#f1xlfkymvokjkq)" style="stroke:#A80036;stroke-width:2.0;"/><text fill="#000000" font-family="sans-serif" font-size="14" lengthAdjust="spacing" textLength="31" x="5" y="2184.6592">User</text><ellipse cx="23.5" cy="2197.9609" fill="#FEFECE" filter="url(#f1xlfkymvokjkq)" rx="8" ry="8" style="stroke:#A80036;stroke-width:2.0;"/><path d="M23.5,2205.9609 L23.5,2232.9609 M10.5,2213.9609 L36.5,2213.9609 M23.5,2232.9609 L10.5,2247.9609 M23.5,2232.9609 L36.5,2247.9609 " fill="none" filter="url(#f1xlfkymvokjkq)" style="stroke:#A80036;stroke-width:2.0;"/><rect fill="#FEFECE" filter="url(#f1xlfkymvokjkq)" height="30.2969" style="stroke:#A80036;stroke-width:1.5;" width="219" x="52" y="53"/><text fill="#000000" font-family="sans-serif" font-size="14" lengthAdjust="spacing" textLength="205" x="59" y="72.9951">AbstractApplicationContext</text><rect fill="#FEFECE" filter="url(#f1xlfkymvokjkq)" height="30.2969" style="stroke:#A80036;stroke-width:1.5;" width="219" x="52" y="2171.6641"/><text fill="#000000" font-family="sans-serif" font-size="14" lengthAdjust="spacing" textLength="205" x="59" y="2191.6592">AbstractApplicationContext</text><rect fill="#FEFECE" filter="url(#f1xlfkymvokjkq)" height="30.2969" style="stroke:#A80036;stroke-width:1.5;" width="70" x="472.5" y="53"/><text fill="#000000" font-family="sans-serif" font-size="14" lengthAdjust="spacing" textLength="56" x="479.5" y="72.9951">Derived</text><rect fill="#FEFECE" filter="url(#f1xlfkymvokjkq)" height="30.2969" style="stroke:#A80036;stroke-width:1.5;" width="70" x="472.5" y="2171.6641"/><text fill="#000000" font-family="sans-serif" font-size="14" lengthAdjust="spacing" textLength="56" x="479.5" y="2191.6592">Derived</text><rect fill="#FEFECE" filter="url(#f1xlfkymvokjkq)" height="30.2969" style="stroke:#A80036;stroke-width:1.5;" width="104" x="556.5" y="53"/><text fill="#000000" font-family="sans-serif" font-size="14" lengthAdjust="spacing" textLength="90" x="563.5" y="72.9951">BeanFactory</text><rect fill="#FEFECE" filter="url(#f1xlfkymvokjkq)" height="30.2969" style="stroke:#A80036;stroke-width:1.5;" width="104" x="556.5" y="2171.6641"/><text fill="#000000" font-family="sans-serif" font-size="14" lengthAdjust="spacing" textLength="90" x="563.5" y="2191.6592">BeanFactory</text><rect fill="#FEFECE" filter="url(#f1xlfkymvokjkq)" height="30.2969" style="stroke:#A80036;stroke-width:1.5;" width="284" x="674.5" y="53"/><text fill="#000000" font-family="sans-serif" font-size="14" lengthAdjust="spacing" textLength="270" x="681.5" y="72.9951">BeanDefinitionRegistryPostProcessor</text><rect fill="#FEFECE" filter="url(#f1xlfkymvokjkq)" height="30.2969" style="stroke:#A80036;stroke-width:1.5;" width="284" x="674.5" y="2171.6641"/><text fill="#000000" font-family="sans-serif" font-size="14" lengthAdjust="spacing" textLength="270" x="681.5" y="2191.6592">BeanDefinitionRegistryPostProcessor</text><rect fill="#FEFECE" filter="url(#f1xlfkymvokjkq)" height="30.2969" style="stroke:#A80036;stroke-width:1.5;" width="206" x="972.5" y="53"/><text fill="#000000" font-family="sans-serif" font-size="14" lengthAdjust="spacing" textLength="192" x="979.5" y="72.9951">BeanFactoryPostProcessor</text><rect fill="#FEFECE" filter="url(#f1xlfkymvokjkq)" height="30.2969" style="stroke:#A80036;stroke-width:1.5;" width="206" x="972.5" y="2171.6641"/><text fill="#000000" font-family="sans-serif" font-size="14" lengthAdjust="spacing" textLength="192" x="979.5" y="2191.6592">BeanFactoryPostProcessor</text><rect fill="#FFFFFF" filter="url(#f1xlfkymvokjkq)" height="2018.1016" style="stroke:#A80036;stroke-width:1.0;" width="10" x="158.5" y="119.4297"/><rect fill="#FFFFFF" filter="url(#f1xlfkymvokjkq)" height="28" style="stroke:#A80036;stroke-width:1.0;" width="10" x="163.5" y="156.5625"/><rect fill="#FFFFFF" filter="url(#f1xlfkymvokjkq)" height="89.2656" style="stroke:#A80036;stroke-width:1.0;" width="10" x="163.5" y="228.6953"/><rect fill="#FFFFFF" filter="url(#f1xlfkymvokjkq)" height="28" style="stroke:#A80036;stroke-width:1.0;" width="10" x="163.5" y="363.1602"/><rect fill="#FFFFFF" filter="url(#f1xlfkymvokjkq)" height="967.1172" style="stroke:#A80036;stroke-width:1.0;" width="10" x="163.5" y="569.0234"/><rect fill="#FFFFFF" filter="url(#f1xlfkymvokjkq)" height="264.0625" style="stroke:#A80036;stroke-width:1.0;" width="10" x="163.5" y="1615.2734"/><rect fill="#FFFFFF" filter="url(#f1xlfkymvokjkq)" height="12" style="stroke:#A80036;stroke-width:1.0;" width="10" x="504.5" y="262.8281"/><rect fill="#FFFFFF" filter="url(#f1xlfkymvokjkq)" height="12" style="stroke:#A80036;stroke-width:1.0;" width="10" x="504.5" y="305.9609"/><rect fill="#FFFFFF" filter="url(#f1xlfkymvokjkq)" height="96.5313" style="stroke:#A80036;stroke-width:1.0;" width="10" x="504.5" y="433.3594"/><rect fill="#FFFFFF" filter="url(#f1xlfkymvokjkq)" height="12" style="stroke:#A80036;stroke-width:1.0;" width="10" x="504.5" y="1910.4688"/><rect fill="#FFFFFF" filter="url(#f1xlfkymvokjkq)" height="12" style="stroke:#A80036;stroke-width:1.0;" width="10" x="605.5" y="677.4219"/><rect fill="#FFFFFF" filter="url(#f1xlfkymvokjkq)" height="12" style="stroke:#A80036;stroke-width:1.0;" width="10" x="605.5" y="948.75"/><rect fill="#FFFFFF" filter="url(#f1xlfkymvokjkq)" height="12" style="stroke:#A80036;stroke-width:1.0;" width="10" x="605.5" y="1174.8125"/><rect fill="#FFFFFF" filter="url(#f1xlfkymvokjkq)" height="12" style="stroke:#A80036;stroke-width:1.0;" width="10" x="605.5" y="1339.3438"/><rect fill="#FFFFFF" filter="url(#f1xlfkymvokjkq)" height="12" style="stroke:#A80036;stroke-width:1.0;" width="10" x="605.5" y="1649.4063"/><rect fill="#FFFFFF" filter="url(#f1xlfkymvokjkq)" height="12" style="stroke:#A80036;stroke-width:1.0;" width="10" x="605.5" y="1810.2031"/><rect fill="#FFFFFF" filter="url(#f1xlfkymvokjkq)" height="12" style="stroke:#A80036;stroke-width:1.0;" width="10" x="605.5" y="1867.3359"/><rect fill="#FFFFFF" filter="url(#f1xlfkymvokjkq)" height="12" style="stroke:#A80036;stroke-width:1.0;" width="10" x="605.5" y="1953.6016"/><rect fill="#FFFFFF" filter="url(#f1xlfkymvokjkq)" height="12" style="stroke:#A80036;stroke-width:1.0;" width="10" x="605.5" y="1996.7344"/><rect fill="#FFFFFF" filter="url(#f1xlfkymvokjkq)" height="12" style="stroke:#A80036;stroke-width:1.0;" width="10" x="813.5" y="627.2891"/><rect fill="#FFFFFF" filter="url(#f1xlfkymvokjkq)" height="12" style="stroke:#A80036;stroke-width:1.0;" width="10" x="813.5" y="829.2188"/><rect fill="#FFFFFF" filter="url(#f1xlfkymvokjkq)" height="12" style="stroke:#A80036;stroke-width:1.0;" width="10" x="813.5" y="1031.1484"/><rect fill="#FFFFFF" filter="url(#f1xlfkymvokjkq)" height="12" style="stroke:#A80036;stroke-width:1.0;" width="10" x="813.5" y="1257.2109"/><rect fill="#FFFFFF" filter="url(#f1xlfkymvokjkq)" height="12" style="stroke:#A80036;stroke-width:1.0;" width="10" x="1072.5" y="1500.1406"/><polygon fill="#A80036" points="146.5,115.4297,156.5,119.4297,146.5,123.4297,150.5,119.4297" style="stroke:#A80036;stroke-width:1.0;"/><line style="stroke:#A80036;stroke-width:1.0;" x1="23.5" x2="152.5" y1="119.4297" y2="119.4297"/><text fill="#000000" font-family="sans-serif" font-size="13" lengthAdjust="spacing" textLength="46" x="30.5" y="114.3638">refresh</text><line style="stroke:#A80036;stroke-width:1.0;" x1="173.5" x2="215.5" y1="148.5625" y2="148.5625"/><line style="stroke:#A80036;stroke-width:1.0;" x1="215.5" x2="215.5" y1="148.5625" y2="161.5625"/><line style="stroke:#A80036;stroke-width:1.0;" x1="174.5" x2="215.5" y1="161.5625" y2="161.5625"/><polygon fill="#A80036" points="184.5,157.5625,174.5,161.5625,184.5,165.5625,180.5,161.5625" style="stroke:#A80036;stroke-width:1.0;"/><text fill="#000000" font-family="sans-serif" font-size="13" lengthAdjust="spacing" textLength="107" x="180.5" y="143.4966">prepareRefresh*</text><line style="stroke:#A80036;stroke-width:1.0;" x1="168.5" x2="215.5" y1="215.6953" y2="215.6953"/><line style="stroke:#A80036;stroke-width:1.0;" x1="215.5" x2="215.5" y1="215.6953" y2="228.6953"/><line style="stroke:#A80036;stroke-width:1.0;" x1="174.5" x2="215.5" y1="228.6953" y2="228.6953"/><polygon fill="#A80036" points="184.5,224.6953,174.5,228.6953,184.5,232.6953,180.5,228.6953" style="stroke:#A80036;stroke-width:1.0;"/><text fill="#000000" font-family="sans-serif" font-size="13" lengthAdjust="spacing" textLength="155" x="180.5" y="210.6294">obtainFreshBeanFactory</text><polygon fill="#A80036" points="492.5,258.8281,502.5,262.8281,492.5,266.8281,496.5,262.8281" style="stroke:#A80036;stroke-width:1.0;"/><line style="stroke:#A80036;stroke-width:1.0;" x1="173.5" x2="498.5" y1="262.8281" y2="262.8281"/><text fill="#000000" font-family="sans-serif" font-size="13" lengthAdjust="spacing" textLength="126" x="180.5" y="257.7622">refreshBeanFactory</text><polygon fill="#A80036" points="184.5,270.8281,174.5,274.8281,184.5,278.8281,180.5,274.8281" style="stroke:#A80036;stroke-width:1.0;"/><line style="stroke:#A80036;stroke-width:1.0;stroke-dasharray:2.0,2.0;" x1="178.5" x2="508.5" y1="274.8281" y2="274.8281"/><polygon fill="#A80036" points="492.5,301.9609,502.5,305.9609,492.5,309.9609,496.5,305.9609" style="stroke:#A80036;stroke-width:1.0;"/><line style="stroke:#A80036;stroke-width:1.0;" x1="173.5" x2="498.5" y1="305.9609" y2="305.9609"/><text fill="#000000" font-family="sans-serif" font-size="13" lengthAdjust="spacing" textLength="101" x="180.5" y="300.895">getBeanFactory</text><polygon fill="#A80036" points="179.5,313.9609,169.5,317.9609,179.5,321.9609,175.5,317.9609" style="stroke:#A80036;stroke-width:1.0;"/><line style="stroke:#A80036;stroke-width:1.0;stroke-dasharray:2.0,2.0;" x1="173.5" x2="508.5" y1="317.9609" y2="317.9609"/><line style="stroke:#A80036;stroke-width:1.0;" x1="173.5" x2="215.5" y1="355.1602" y2="355.1602"/><line style="stroke:#A80036;stroke-width:1.0;" x1="215.5" x2="215.5" y1="355.1602" y2="368.1602"/><line style="stroke:#A80036;stroke-width:1.0;" x1="174.5" x2="215.5" y1="368.1602" y2="368.1602"/><polygon fill="#A80036" points="184.5,364.1602,174.5,368.1602,184.5,372.1602,180.5,368.1602" style="stroke:#A80036;stroke-width:1.0;"/><text fill="#000000" font-family="sans-serif" font-size="13" lengthAdjust="spacing" textLength="227" x="180.5" y="350.0942">prepareBeanFactory(beanFactory)*</text><path d="M419,332.9609 L419,372.9609 L518,372.9609 L518,342.9609 L508,332.9609 L419,332.9609 " fill="#FBFB77" filter="url(#f1xlfkymvokjkq)" style="stroke:#A80036;stroke-width:1.0;"/><path d="M508,332.9609 L508,342.9609 L518,342.9609 L508,332.9609 " fill="#FBFB77" style="stroke:#A80036;stroke-width:1.0;"/><text fill="#000000" font-family="sans-serif" font-size="13" lengthAdjust="spacing" textLength="69" x="425" y="350.0278">Configures</text><text fill="#000000" font-family="sans-serif" font-size="13" lengthAdjust="spacing" textLength="78" x="425" y="365.1606">Beanfactory</text><polygon fill="#A80036" points="492.5,429.3594,502.5,433.3594,492.5,437.3594,496.5,433.3594" style="stroke:#A80036;stroke-width:1.0;"/><line style="stroke:#A80036;stroke-width:1.0;" x1="168.5" x2="498.5" y1="433.3594" y2="433.3594"/><text fill="#000000" font-family="sans-serif" font-size="13" lengthAdjust="spacing" textLength="255" x="175.5" y="428.2935">postProcessBeanFactory(beanFactory)*</text><path d="M173,446.3594 L173,516.3594 L652,516.3594 L652,456.3594 L642,446.3594 L173,446.3594 " fill="#FBFB77" filter="url(#f1xlfkymvokjkq)" style="stroke:#A80036;stroke-width:1.0;"/><path d="M642,446.3594 L642,456.3594 L652,456.3594 L642,446.3594 " fill="#FBFB77" style="stroke:#A80036;stroke-width:1.0;"/><text fill="#000000" font-family="sans-serif" font-size="13" lengthAdjust="spacing" textLength="456" x="179" y="463.4263">Modify the application context's internal bean factory after its standard</text><text fill="#000000" font-family="sans-serif" font-size="13" lengthAdjust="spacing" textLength="439" x="179" y="478.5591">initialization. All bean definitions will have been loaded, but no beans</text><text fill="#000000" font-family="sans-serif" font-size="13" lengthAdjust="spacing" textLength="417" x="179" y="493.6919">will have been instantiated yet. This allows for registering special</text><text fill="#000000" font-family="sans-serif" font-size="13" lengthAdjust="spacing" textLength="458" x="179" y="508.8247">BeanPostProcessors etc in certain ApplicationContext implementations.</text><polygon fill="#A80036" points="179.5,525.8906,169.5,529.8906,179.5,533.8906,175.5,529.8906" style="stroke:#A80036;stroke-width:1.0;"/><line style="stroke:#A80036;stroke-width:1.0;stroke-dasharray:2.0,2.0;" x1="173.5" x2="508.5" y1="529.8906" y2="529.8906"/><line style="stroke:#A80036;stroke-width:1.0;" x1="168.5" x2="215.5" y1="556.0234" y2="556.0234"/><line style="stroke:#A80036;stroke-width:1.0;" x1="215.5" x2="215.5" y1="556.0234" y2="569.0234"/><line style="stroke:#A80036;stroke-width:1.0;" x1="174.5" x2="215.5" y1="569.0234" y2="569.0234"/><polygon fill="#A80036" points="184.5,565.0234,174.5,569.0234,184.5,573.0234,180.5,569.0234" style="stroke:#A80036;stroke-width:1.0;"/><text fill="#000000" font-family="sans-serif" font-size="13" lengthAdjust="spacing" textLength="322" x="180.5" y="550.9575">invokeBeanFactoryPostProcessors(bf, list&lt;&gt; bfpp)</text><path d="M42,589.0234 L120,589.0234 L120,596.0234 L110,606.0234 L42,606.0234 L42,589.0234 " fill="#EEEEEE" style="stroke:#000000;stroke-width:1.0;"/><rect fill="none" height="60.2656" style="stroke:#000000;stroke-width:2.0;" width="930.5" x="42" y="589.0234"/><text fill="#000000" font-family="sans-serif" font-size="13" font-weight="bold" lengthAdjust="spacing" textLength="33" x="57" y="602.0903">loop</text><polygon fill="#A80036" points="801.5,623.2891,811.5,627.2891,801.5,631.2891,805.5,627.2891" style="stroke:#A80036;stroke-width:1.0;"/><line style="stroke:#A80036;stroke-width:1.0;" x1="173.5" x2="807.5" y1="627.2891" y2="627.2891"/><text fill="#000000" font-family="sans-serif" font-size="13" lengthAdjust="spacing" textLength="263" x="180.5" y="622.2231">postProcessBeanDefinitionRegistry(bfpp)</text><polygon fill="#A80036" points="184.5,635.2891,174.5,639.2891,184.5,643.2891,180.5,639.2891" style="stroke:#A80036;stroke-width:1.0;"/><line style="stroke:#A80036;stroke-width:1.0;stroke-dasharray:2.0,2.0;" x1="178.5" x2="817.5" y1="639.2891" y2="639.2891"/><polygon fill="#A80036" points="593.5,673.4219,603.5,677.4219,593.5,681.4219,597.5,677.4219" style="stroke:#A80036;stroke-width:1.0;"/><line style="stroke:#A80036;stroke-width:1.0;" x1="173.5" x2="599.5" y1="677.4219" y2="677.4219"/><text fill="#000000" font-family="sans-serif" font-size="13" lengthAdjust="spacing" textLength="233" x="180.5" y="672.356">getBeanNamesForType(bdrpp.class)</text><polygon fill="#A80036" points="184.5,685.4219,174.5,689.4219,184.5,693.4219,180.5,689.4219" style="stroke:#A80036;stroke-width:1.0;"/><line style="stroke:#A80036;stroke-width:1.0;stroke-dasharray:2.0,2.0;" x1="178.5" x2="609.5" y1="689.4219" y2="689.4219"/><text fill="#000000" font-family="sans-serif" font-size="13" lengthAdjust="spacing" textLength="18" x="190.5" y="702.4888">list</text><path d="M178,719.5547 L178,774.5547 L438,774.5547 L438,729.5547 L428,719.5547 L178,719.5547 " fill="#FBFB77" filter="url(#f1xlfkymvokjkq)" style="stroke:#A80036;stroke-width:1.0;"/><path d="M428,719.5547 L428,729.5547 L438,729.5547 L428,719.5547 " fill="#FBFB77" style="stroke:#A80036;stroke-width:1.0;"/><text fill="#000000" font-family="sans-serif" font-size="13" lengthAdjust="spacing" textLength="239" x="184" y="736.6216">select priority ordered bdrpp from list</text><text fill="#000000" font-family="sans-serif" font-size="13" lengthAdjust="spacing" textLength="63" x="184" y="751.7544">sort them</text><text fill="#000000" font-family="sans-serif" font-size="13" lengthAdjust="spacing" textLength="195" x="184" y="766.8872">and add after bdrpps from arg</text><path d="M42,790.9531 L120,790.9531 L120,797.9531 L110,807.9531 L42,807.9531 L42,790.9531 " fill="#EEEEEE" style="stroke:#000000;stroke-width:1.0;"/><rect fill="none" height="60.2656" style="stroke:#000000;stroke-width:2.0;" width="930.5" x="42" y="790.9531"/><text fill="#000000" font-family="sans-serif" font-size="13" font-weight="bold" lengthAdjust="spacing" textLength="33" x="57" y="804.02">loop</text><polygon fill="#A80036" points="801.5,825.2188,811.5,829.2188,801.5,833.2188,805.5,829.2188" style="stroke:#A80036;stroke-width:1.0;"/><line style="stroke:#A80036;stroke-width:1.0;" x1="173.5" x2="807.5" y1="829.2188" y2="829.2188"/><text fill="#000000" font-family="sans-serif" font-size="13" lengthAdjust="spacing" textLength="247" x="180.5" y="824.1528">postProcessBeanDefinitionRegistry(bf)</text><polygon fill="#A80036" points="184.5,837.2188,174.5,841.2188,184.5,845.2188,180.5,841.2188" style="stroke:#A80036;stroke-width:1.0;"/><line style="stroke:#A80036;stroke-width:1.0;stroke-dasharray:2.0,2.0;" x1="178.5" x2="817.5" y1="841.2188" y2="841.2188"/><path d="M178,863.2188 L178,918.2188 L394,918.2188 L394,873.2188 L384,863.2188 L178,863.2188 " fill="#FBFB77" filter="url(#f1xlfkymvokjkq)" style="stroke:#A80036;stroke-width:1.0;"/><path d="M384,863.2188 L384,873.2188 L394,873.2188 L384,863.2188 " fill="#FBFB77" style="stroke:#A80036;stroke-width:1.0;"/><text fill="#000000" font-family="sans-serif" font-size="13" lengthAdjust="spacing" textLength="190" x="184" y="880.2856">select ordered bdrpp from list</text><text fill="#000000" font-family="sans-serif" font-size="13" lengthAdjust="spacing" textLength="63" x="184" y="895.4185">sort them</text><text fill="#000000" font-family="sans-serif" font-size="13" lengthAdjust="spacing" textLength="195" x="184" y="910.5513">and add after bdrpps from arg</text><polygon fill="#A80036" points="593.5,944.75,603.5,948.75,593.5,952.75,597.5,948.75" style="stroke:#A80036;stroke-width:1.0;"/><line style="stroke:#A80036;stroke-width:1.0;" x1="173.5" x2="599.5" y1="948.75" y2="948.75"/><text fill="#000000" font-family="sans-serif" font-size="13" lengthAdjust="spacing" textLength="233" x="180.5" y="943.6841">getBeanNamesForType(bdrpp.class)</text><polygon fill="#A80036" points="184.5,956.75,174.5,960.75,184.5,964.75,180.5,960.75" style="stroke:#A80036;stroke-width:1.0;"/><line style="stroke:#A80036;stroke-width:1.0;stroke-dasharray:2.0,2.0;" x1="178.5" x2="609.5" y1="960.75" y2="960.75"/><text fill="#000000" font-family="sans-serif" font-size="13" lengthAdjust="spacing" textLength="18" x="190.5" y="973.8169">list</text><path d="M42,992.8828 L120,992.8828 L120,999.8828 L110,1009.8828 L42,1009.8828 L42,992.8828 " fill="#EEEEEE" style="stroke:#000000;stroke-width:1.0;"/><rect fill="none" height="60.2656" style="stroke:#000000;stroke-width:2.0;" width="930.5" x="42" y="992.8828"/><text fill="#000000" font-family="sans-serif" font-size="13" font-weight="bold" lengthAdjust="spacing" textLength="33" x="57" y="1005.9497">loop</text><polygon fill="#A80036" points="801.5,1027.1484,811.5,1031.1484,801.5,1035.1484,805.5,1031.1484" style="stroke:#A80036;stroke-width:1.0;"/><line style="stroke:#A80036;stroke-width:1.0;" x1="173.5" x2="807.5" y1="1031.1484" y2="1031.1484"/><text fill="#000000" font-family="sans-serif" font-size="13" lengthAdjust="spacing" textLength="247" x="180.5" y="1026.0825">postProcessBeanDefinitionRegistry(bf)</text><polygon fill="#A80036" points="184.5,1039.1484,174.5,1043.1484,184.5,1047.1484,180.5,1043.1484" style="stroke:#A80036;stroke-width:1.0;"/><line style="stroke:#A80036;stroke-width:1.0;stroke-dasharray:2.0,2.0;" x1="178.5" x2="817.5" y1="1043.1484" y2="1043.1484"/><path d="M32,1067.1484 L110,1067.1484 L110,1074.1484 L100,1084.1484 L32,1084.1484 L32,1067.1484 " fill="#EEEEEE" style="stroke:#000000;stroke-width:1.0;"/><rect fill="none" height="219.0625" style="stroke:#000000;stroke-width:2.0;" width="950.5" x="32" y="1067.1484"/><text fill="#000000" font-family="sans-serif" font-size="13" font-weight="bold" lengthAdjust="spacing" textLength="33" x="47" y="1080.2153">loop</text><text fill="#000000" font-family="sans-serif" font-size="11" font-weight="bold" lengthAdjust="spacing" textLength="173" x="125" y="1079.3589">[until all bdrpps are done]</text><path d="M178,1089.2813 L178,1144.2813 L394,1144.2813 L394,1099.2813 L384,1089.2813 L178,1089.2813 " fill="#FBFB77" filter="url(#f1xlfkymvokjkq)" style="stroke:#A80036;stroke-width:1.0;"/><path d="M384,1089.2813 L384,1099.2813 L394,1099.2813 L384,1089.2813 " fill="#FBFB77" style="stroke:#A80036;stroke-width:1.0;"/><text fill="#000000" font-family="sans-serif" font-size="13" lengthAdjust="spacing" textLength="136" x="184" y="1106.3481">select bdrpp from list</text><text fill="#000000" font-family="sans-serif" font-size="13" lengthAdjust="spacing" textLength="63" x="184" y="1121.481">sort them</text><text fill="#000000" font-family="sans-serif" font-size="13" lengthAdjust="spacing" textLength="195" x="184" y="1136.6138">and add after bdrpps from arg</text><polygon fill="#A80036" points="593.5,1170.8125,603.5,1174.8125,593.5,1178.8125,597.5,1174.8125" style="stroke:#A80036;stroke-width:1.0;"/><line style="stroke:#A80036;stroke-width:1.0;" x1="173.5" x2="599.5" y1="1174.8125" y2="1174.8125"/><text fill="#000000" font-family="sans-serif" font-size="13" lengthAdjust="spacing" textLength="233" x="180.5" y="1169.7466">getBeanNamesForType(bdrpp.class)</text><polygon fill="#A80036" points="184.5,1182.8125,174.5,1186.8125,184.5,1190.8125,180.5,1186.8125" style="stroke:#A80036;stroke-width:1.0;"/><line style="stroke:#A80036;stroke-width:1.0;stroke-dasharray:2.0,2.0;" x1="178.5" x2="609.5" y1="1186.8125" y2="1186.8125"/><text fill="#000000" font-family="sans-serif" font-size="13" lengthAdjust="spacing" textLength="18" x="190.5" y="1199.8794">list</text><path d="M42,1218.9453 L120,1218.9453 L120,1225.9453 L110,1235.9453 L42,1235.9453 L42,1218.9453 " fill="#EEEEEE" style="stroke:#000000;stroke-width:1.0;"/><rect fill="none" height="60.2656" style="stroke:#000000;stroke-width:2.0;" width="930.5" x="42" y="1218.9453"/><text fill="#000000" font-family="sans-serif" font-size="13" font-weight="bold" lengthAdjust="spacing" textLength="33" x="57" y="1232.0122">loop</text><polygon fill="#A80036" points="801.5,1253.2109,811.5,1257.2109,801.5,1261.2109,805.5,1257.2109" style="stroke:#A80036;stroke-width:1.0;"/><line style="stroke:#A80036;stroke-width:1.0;" x1="173.5" x2="807.5" y1="1257.2109" y2="1257.2109"/><text fill="#000000" font-family="sans-serif" font-size="13" lengthAdjust="spacing" textLength="247" x="180.5" y="1252.145">postProcessBeanDefinitionRegistry(bf)</text><polygon fill="#A80036" points="184.5,1265.2109,174.5,1269.2109,184.5,1273.2109,180.5,1269.2109" style="stroke:#A80036;stroke-width:1.0;"/><line style="stroke:#A80036;stroke-width:1.0;stroke-dasharray:2.0,2.0;" x1="178.5" x2="817.5" y1="1269.2109" y2="1269.2109"/><polygon fill="#A80036" points="593.5,1335.3438,603.5,1339.3438,593.5,1343.3438,597.5,1339.3438" style="stroke:#A80036;stroke-width:1.0;"/><line style="stroke:#A80036;stroke-width:1.0;" x1="173.5" x2="599.5" y1="1339.3438" y2="1339.3438"/><text fill="#000000" font-family="sans-serif" font-size="13" lengthAdjust="spacing" textLength="227" x="180.5" y="1334.2778">getBeanNamesForType(BFPP.class)</text><polygon fill="#A80036" points="184.5,1347.3438,174.5,1351.3438,184.5,1355.3438,180.5,1351.3438" style="stroke:#A80036;stroke-width:1.0;"/><line style="stroke:#A80036;stroke-width:1.0;stroke-dasharray:2.0,2.0;" x1="178.5" x2="609.5" y1="1351.3438" y2="1351.3438"/><text fill="#000000" font-family="sans-serif" font-size="13" lengthAdjust="spacing" textLength="18" x="190.5" y="1364.4106">list</text><path d="M178,1381.4766 L178,1421.4766 L425,1421.4766 L425,1391.4766 L415,1381.4766 L178,1381.4766 " fill="#FBFB77" filter="url(#f1xlfkymvokjkq)" style="stroke:#A80036;stroke-width:1.0;"/><path d="M415,1381.4766 L415,1391.4766 L425,1391.4766 L415,1381.4766 " fill="#FBFB77" style="stroke:#A80036;stroke-width:1.0;"/><text fill="#000000" font-family="sans-serif" font-size="13" lengthAdjust="spacing" textLength="222" x="184" y="1398.5435">segregate priorityordered, ordered</text><text fill="#000000" font-family="sans-serif" font-size="13" lengthAdjust="spacing" textLength="110" x="184" y="1413.6763">and rest of bfpps</text><path d="M32,1437.7422 L286,1437.7422 L286,1444.7422 L276,1454.7422 L32,1454.7422 L32,1437.7422 " fill="#EEEEEE" style="stroke:#000000;stroke-width:1.0;"/><rect fill="none" height="91.3984" style="stroke:#000000;stroke-width:2.0;" width="1170.5" x="32" y="1437.7422"/><text fill="#000000" font-family="sans-serif" font-size="13" font-weight="bold" lengthAdjust="spacing" textLength="209" x="47" y="1450.8091">Sort each category and call</text><path d="M42,1461.875 L120,1461.875 L120,1468.875 L110,1478.875 L42,1478.875 L42,1461.875 " fill="#EEEEEE" style="stroke:#000000;stroke-width:1.0;"/><rect fill="none" height="60.2656" style="stroke:#000000;stroke-width:2.0;" width="1150.5" x="42" y="1461.875"/><text fill="#000000" font-family="sans-serif" font-size="13" font-weight="bold" lengthAdjust="spacing" textLength="33" x="57" y="1474.9419">loop</text><polygon fill="#A80036" points="1060.5,1496.1406,1070.5,1500.1406,1060.5,1504.1406,1064.5,1500.1406" style="stroke:#A80036;stroke-width:1.0;"/><line style="stroke:#A80036;stroke-width:1.0;" x1="173.5" x2="1066.5" y1="1500.1406" y2="1500.1406"/><text fill="#000000" font-family="sans-serif" font-size="13" lengthAdjust="spacing" textLength="158" x="180.5" y="1495.0747">postProcessBeanFactory</text><polygon fill="#A80036" points="184.5,1508.1406,174.5,1512.1406,184.5,1516.1406,180.5,1512.1406" style="stroke:#A80036;stroke-width:1.0;"/><line style="stroke:#A80036;stroke-width:1.0;stroke-dasharray:2.0,2.0;" x1="178.5" x2="1076.5" y1="1512.1406" y2="1512.1406"/><line style="stroke:#A80036;stroke-width:1.0;" x1="168.5" x2="215.5" y1="1602.2734" y2="1602.2734"/><line style="stroke:#A80036;stroke-width:1.0;" x1="215.5" x2="215.5" y1="1602.2734" y2="1615.2734"/><line style="stroke:#A80036;stroke-width:1.0;" x1="174.5" x2="215.5" y1="1615.2734" y2="1615.2734"/><polygon fill="#A80036" points="184.5,1611.2734,174.5,1615.2734,184.5,1619.2734,180.5,1615.2734" style="stroke:#A80036;stroke-width:1.0;"/><text fill="#000000" font-family="sans-serif" font-size="13" lengthAdjust="spacing" textLength="179" x="180.5" y="1597.2075">registerBeanPostProcessors</text><polygon fill="#A80036" points="593.5,1645.4063,603.5,1649.4063,593.5,1653.4063,597.5,1649.4063" style="stroke:#A80036;stroke-width:1.0;"/><line style="stroke:#A80036;stroke-width:1.0;" x1="173.5" x2="599.5" y1="1649.4063" y2="1649.4063"/><text fill="#000000" font-family="sans-serif" font-size="13" lengthAdjust="spacing" textLength="220" x="180.5" y="1644.3403">getBeanNamesForType(BPP.class)</text><polygon fill="#A80036" points="184.5,1657.4063,174.5,1661.4063,184.5,1665.4063,180.5,1661.4063" style="stroke:#A80036;stroke-width:1.0;"/><line style="stroke:#A80036;stroke-width:1.0;stroke-dasharray:2.0,2.0;" x1="178.5" x2="609.5" y1="1661.4063" y2="1661.4063"/><text fill="#000000" font-family="sans-serif" font-size="13" lengthAdjust="spacing" textLength="18" x="190.5" y="1674.4731">list</text><path d="M178,1691.5391 L178,1731.5391 L425,1731.5391 L425,1701.5391 L415,1691.5391 L178,1691.5391 " fill="#FBFB77" filter="url(#f1xlfkymvokjkq)" style="stroke:#A80036;stroke-width:1.0;"/><path d="M415,1691.5391 L415,1701.5391 L425,1701.5391 L415,1691.5391 " fill="#FBFB77" style="stroke:#A80036;stroke-width:1.0;"/><text fill="#000000" font-family="sans-serif" font-size="13" lengthAdjust="spacing" textLength="222" x="184" y="1708.606">segregate priorityordered, ordered</text><text fill="#000000" font-family="sans-serif" font-size="13" lengthAdjust="spacing" textLength="105" x="184" y="1723.7388">and rest of bpps</text><path d="M32,1747.8047 L286,1747.8047 L286,1754.8047 L276,1764.8047 L32,1764.8047 L32,1747.8047 " fill="#EEEEEE" style="stroke:#000000;stroke-width:1.0;"/><rect fill="none" height="91.3984" style="stroke:#000000;stroke-width:2.0;" width="652.5" x="32" y="1747.8047"/><text fill="#000000" font-family="sans-serif" font-size="13" font-weight="bold" lengthAdjust="spacing" textLength="209" x="47" y="1760.8716">Sort each category and call</text><path d="M42,1771.9375 L120,1771.9375 L120,1778.9375 L110,1788.9375 L42,1788.9375 L42,1771.9375 " fill="#EEEEEE" style="stroke:#000000;stroke-width:1.0;"/><rect fill="none" height="60.2656" style="stroke:#000000;stroke-width:2.0;" width="632.5" x="42" y="1771.9375"/><text fill="#000000" font-family="sans-serif" font-size="13" font-weight="bold" lengthAdjust="spacing" textLength="33" x="57" y="1785.0044">loop</text><polygon fill="#A80036" points="593.5,1806.2031,603.5,1810.2031,593.5,1814.2031,597.5,1810.2031" style="stroke:#A80036;stroke-width:1.0;"/><line style="stroke:#A80036;stroke-width:1.0;" x1="173.5" x2="599.5" y1="1810.2031" y2="1810.2031"/><text fill="#000000" font-family="sans-serif" font-size="13" lengthAdjust="spacing" textLength="181" x="180.5" y="1805.1372">addBeanPostProcessor(bpp)</text><polygon fill="#A80036" points="184.5,1818.2031,174.5,1822.2031,184.5,1826.2031,180.5,1822.2031" style="stroke:#A80036;stroke-width:1.0;"/><line style="stroke:#A80036;stroke-width:1.0;stroke-dasharray:2.0,2.0;" x1="178.5" x2="609.5" y1="1822.2031" y2="1822.2031"/><polygon fill="#A80036" points="593.5,1863.3359,603.5,1867.3359,593.5,1871.3359,597.5,1867.3359" style="stroke:#A80036;stroke-width:1.0;"/><line style="stroke:#A80036;stroke-width:1.0;" x1="173.5" x2="599.5" y1="1867.3359" y2="1867.3359"/><text fill="#000000" font-family="sans-serif" font-size="13" lengthAdjust="spacing" textLength="334" x="180.5" y="1862.27">addBeanPostProcessor(ApplicationListenerDetector)</text><polygon fill="#A80036" points="179.5,1875.3359,169.5,1879.3359,179.5,1883.3359,175.5,1879.3359" style="stroke:#A80036;stroke-width:1.0;"/><line style="stroke:#A80036;stroke-width:1.0;stroke-dasharray:2.0,2.0;" x1="173.5" x2="609.5" y1="1879.3359" y2="1879.3359"/><polygon fill="#A80036" points="492.5,1906.4688,502.5,1910.4688,492.5,1914.4688,496.5,1910.4688" style="stroke:#A80036;stroke-width:1.0;"/><line style="stroke:#A80036;stroke-width:1.0;" x1="168.5" x2="498.5" y1="1910.4688" y2="1910.4688"/><text fill="#000000" font-family="sans-serif" font-size="13" lengthAdjust="spacing" textLength="76" x="175.5" y="1905.4028">onRefresh()</text><polygon fill="#A80036" points="179.5,1918.4688,169.5,1922.4688,179.5,1926.4688,175.5,1922.4688" style="stroke:#A80036;stroke-width:1.0;"/><line style="stroke:#A80036;stroke-width:1.0;stroke-dasharray:2.0,2.0;" x1="173.5" x2="508.5" y1="1922.4688" y2="1922.4688"/><polygon fill="#A80036" points="593.5,1949.6016,603.5,1953.6016,593.5,1957.6016,597.5,1953.6016" style="stroke:#A80036;stroke-width:1.0;"/><line style="stroke:#A80036;stroke-width:1.0;" x1="168.5" x2="599.5" y1="1953.6016" y2="1953.6016"/><text fill="#000000" font-family="sans-serif" font-size="13" lengthAdjust="spacing" textLength="127" x="175.5" y="1948.5356">freezeConfiguration</text><polygon fill="#A80036" points="179.5,1961.6016,169.5,1965.6016,179.5,1969.6016,175.5,1965.6016" style="stroke:#A80036;stroke-width:1.0;"/><line style="stroke:#A80036;stroke-width:1.0;stroke-dasharray:2.0,2.0;" x1="173.5" x2="609.5" y1="1965.6016" y2="1965.6016"/><polygon fill="#A80036" points="593.5,1992.7344,603.5,1996.7344,593.5,2000.7344,597.5,1996.7344" style="stroke:#A80036;stroke-width:1.0;"/><line style="stroke:#A80036;stroke-width:1.0;" x1="168.5" x2="599.5" y1="1996.7344" y2="1996.7344"/><text fill="#000000" font-family="sans-serif" font-size="13" lengthAdjust="spacing" textLength="155" x="175.5" y="1991.6685">preInstantiateSingletons</text><polygon fill="#A80036" points="179.5,2004.7344,169.5,2008.7344,179.5,2012.7344,175.5,2008.7344" style="stroke:#A80036;stroke-width:1.0;"/><line style="stroke:#A80036;stroke-width:1.0;stroke-dasharray:2.0,2.0;" x1="173.5" x2="609.5" y1="2008.7344" y2="2008.7344"/><path d="M173,2023.7344 L173,2123.7344 L440,2123.7344 L440,2033.7344 L430,2023.7344 L173,2023.7344 " fill="#FBFB77" filter="url(#f1xlfkymvokjkq)" style="stroke:#A80036;stroke-width:1.0;"/><path d="M430,2023.7344 L430,2033.7344 L440,2033.7344 L430,2023.7344 " fill="#FBFB77" style="stroke:#A80036;stroke-width:1.0;"/><text fill="#000000" font-family="sans-serif" font-size="13" lengthAdjust="spacing" textLength="213" x="179" y="2040.8013">Create DefaultLifecycleProcessor</text><text fill="#000000" font-family="sans-serif" font-size="13" lengthAdjust="spacing" textLength="153" x="179" y="2055.9341">and add to BeanFactory</text><text fill="#000000" font-family="sans-serif" font-size="13" lengthAdjust="spacing" textLength="0" x="183" y="2071.0669"/><text fill="#000000" font-family="sans-serif" font-size="13" lengthAdjust="spacing" textLength="197" x="179" y="2086.1997">Call lifeCycleProc...onRefresh()</text><text fill="#000000" font-family="sans-serif" font-size="13" lengthAdjust="spacing" textLength="0" x="183" y="2101.3325"/><text fill="#000000" font-family="sans-serif" font-size="13" lengthAdjust="spacing" textLength="246" x="179" y="2116.4653">publishEvent(ContextRefreshedEvent)</text><polygon fill="#A80036" points="34.5,2133.5313,24.5,2137.5313,34.5,2141.5313,30.5,2137.5313" style="stroke:#A80036;stroke-width:1.0;"/><line style="stroke:#A80036;stroke-width:1.0;stroke-dasharray:2.0,2.0;" x1="28.5" x2="162.5" y1="2137.5313" y2="2137.5313"/><text fill="#000000" font-family="sans-serif" font-size="13" lengthAdjust="spacing" textLength="27" x="40.5" y="2150.5981">void</text><!--MD5=[4869d02ed7cc94b6aff2ea806dde9a41]
@startuml
skinparam responseMessageBelowArrow true

actor User
participant AbstractApplicationContext as AAC
participant Derived
participant BeanFactory
participant BeanDefinitionRegistryPostProcessor as BDRPP
participant BeanFactoryPostProcessor as BFPP

autoactivate on
User -> AAC: refresh

AAC -> AAC : prepareRefresh*
deactivate

AAC -> AAC : obtainFreshBeanFactory

AAC -> Derived : refreshBeanFactory
AAC <- - Derived

AAC -> Derived : getBeanFactory
AAC <- - Derived

deactivate

AAC -> AAC : prepareBeanFactory(beanFactory)*
note right
Configures
Beanfactory
end note
deactivate

AAC -> Derived : postProcessBeanFactory(beanFactory)*
note right of AAC
Modify the application context's internal bean factory after its standard
initialization. All bean definitions will have been loaded, but no beans
will have been instantiated yet. This allows for registering special
BeanPostProcessors etc in certain ApplicationContext implementations.
end note
AAC <- - Derived

AAC -> AAC : invokeBeanFactoryPostProcessors(bf, list<> bfpp)
loop
AAC -> BDRPP : postProcessBeanDefinitionRegistry(bfpp)
AAC <- - BDRPP
end


AAC -> BeanFactory : getBeanNamesForType(bdrpp.class)
AAC <- - BeanFactory : list

note right of AAC
select priority ordered bdrpp from list
sort them
and add after bdrpps from arg
end note

loop
AAC -> BDRPP : postProcessBeanDefinitionRegistry(bf)
AAC <- - BDRPP
end

note right of AAC
select ordered bdrpp from list
sort them
and add after bdrpps from arg
end note

AAC -> BeanFactory : getBeanNamesForType(bdrpp.class)
AAC <- - BeanFactory : list

loop
AAC -> BDRPP : postProcessBeanDefinitionRegistry(bf)
AAC <- - BDRPP
end

loop  until all bdrpps are done

note right of AAC
select bdrpp from list
sort them
and add after bdrpps from arg
end note

AAC -> BeanFactory : getBeanNamesForType(bdrpp.class)
AAC <- - BeanFactory : list

loop
AAC -> BDRPP : postProcessBeanDefinitionRegistry(bf)
AAC <- - BDRPP
end

end

|||

AAC -> BeanFactory : getBeanNamesForType(BFPP.class)
AAC <- - BeanFactory : list

note right of AAC
segregate priorityordered, ordered 
and rest of bfpps
end note

group Sort each category and call
loop
AAC -> BFPP : postProcessBeanFactory
AAC <- - BFPP
end
end

deactivate

|||
|||

AAC -> AAC : registerBeanPostProcessors

AAC -> BeanFactory : getBeanNamesForType(BPP.class)
AAC <- - BeanFactory : list

note right of AAC
segregate priorityordered, ordered 
and rest of bpps
end note

group Sort each category and call
loop
AAC -> BeanFactory : addBeanPostProcessor(bpp)
AAC <- - BeanFactory
end
end

AAC -> BeanFactory : addBeanPostProcessor(ApplicationListenerDetector)
AAC <- - BeanFactory
deactivate


AAC -> Derived : onRefresh()
AAC <- - Derived

AAC -> BeanFactory : freezeConfiguration
AAC <- - BeanFactory

AAC -> BeanFactory : preInstantiateSingletons
AAC <- - BeanFactory

note right of AAC
Create DefaultLifecycleProcessor
and add to BeanFactory
 
Call lifeCycleProc...onRefresh()
 
publishEvent(ContextRefreshedEvent)
end note

return void
@enduml

PlantUML version 1.2021.6beta6(Unknown compile time)
(GPL source distribution)
Java Runtime: Java(TM) SE Runtime Environment
JVM: Java HotSpot(TM) 64-Bit Server VM
Default Encoding: UTF-8
Language: en
Country: US
--></g></svg>