<?xml version="1.0" encoding="UTF-8" standalone="no"?><svg xmlns="http://www.w3.org/2000/svg" xmlns:xlink="http://www.w3.org/1999/xlink" contentScriptType="application/ecmascript" contentStyleType="text/css" height="1817px" preserveAspectRatio="none" style="width:2580px;height:1817px;" version="1.1" viewBox="0 0 2580 1817" width="2580px" zoomAndPan="magnify"><defs><filter height="300%" id="fb9jbe54cqqyt" width="300%" x="-1" y="-1"><feGaussianBlur result="blurOut" stdDeviation="2.0"/><feColorMatrix in="blurOut" result="blurOut2" type="matrix" values="0 0 0 0 0 0 0 0 0 0 0 0 0 0 0 0 0 0 .4 0"/><feOffset dx="4.0" dy="4.0" in="blurOut2" result="blurOut3"/><feBlend in="SourceGraphic" in2="blurOut3" mode="normal"/></filter></defs><g><!--MD5=[4334fba47d3201d8c33d2191fe51daca]
cluster Spring_BeanFactory_Interfaces--><polygon fill="#FFFFFF" filter="url(#fb9jbe54cqqyt)" points="1734,6,1991,6,1998,28.2969,2001,28.2969,2001,105,1734,105,1734,6" style="stroke:#000000;stroke-width:1.5;"/><line style="stroke:#000000;stroke-width:1.5;" x1="1734" x2="1998" y1="28.2969" y2="28.2969"/><text fill="#000000" font-family="sans-serif" font-size="14" font-weight="bold" lengthAdjust="spacing" textLength="251" x="1738" y="20.9951">Spring_BeanFactory_Interfaces</text><!--MD5=[44847872fcdc77a8614f939923441b87]
cluster Spring_Context_Interfaces--><polygon fill="#FFFFFF" filter="url(#fb9jbe54cqqyt)" points="1337,129,1556,129,1563,151.2969,2028,151.2969,2028,564.5,1337,564.5,1337,129" style="stroke:#000000;stroke-width:1.5;"/><line style="stroke:#000000;stroke-width:1.5;" x1="1337" x2="1563" y1="151.2969" y2="151.2969"/><text fill="#000000" font-family="sans-serif" font-size="14" font-weight="bold" lengthAdjust="spacing" textLength="213" x="1341" y="143.9951">Spring_Context_Interfaces</text><!--MD5=[59e768d4b1835074dfdae707b29902fb]
cluster Spring_Context_Abstract--><rect fill="#FFFFFF" filter="url(#fb9jbe54cqqyt)" height="676" style="stroke:#000000;stroke-width:1.5;" width="753" x="560" y="396"/><text fill="#000000" font-family="sans-serif" font-size="14" font-weight="bold" lengthAdjust="spacing" textLength="202" x="835.5" y="410.9951">Spring_Context_Abstract</text><!--MD5=[7ed36a1445ea3392d00d3c6f9a8dbfd3]
cluster Spring_Context_Concretes--><rect fill="#FFFFFF" filter="url(#fb9jbe54cqqyt)" height="419" style="stroke:#000000;stroke-width:1.5;" width="1685" x="7" y="1096"/><text fill="#000000" font-family="sans-serif" font-size="14" font-weight="bold" lengthAdjust="spacing" textLength="211" x="744" y="1110.9951">Spring_Context_Concretes</text><!--MD5=[beab4ceb924fd2611a75d481f1bc5ed6]
cluster SpringBoot_Context_Interfaces--><rect fill="#FFFFFF" filter="url(#fb9jbe54cqqyt)" height="296" style="stroke:#000000;stroke-width:1.5;" width="516" x="2052" y="256"/><text fill="#000000" font-family="sans-serif" font-size="14" font-weight="bold" lengthAdjust="spacing" textLength="252" x="2184" y="270.9951">SpringBoot_Context_Interfaces</text><!--MD5=[4d9a7e603c78a29bc4972ca06fb5d890]
cluster SpringBoot_Context_Concretes--><polygon fill="#FFFFFF" filter="url(#fb9jbe54cqqyt)" points="1493,1539,1749,1539,1756,1561.2969,2021,1561.2969,2021,1810,1493,1810,1493,1539" style="stroke:#000000;stroke-width:1.5;"/><line style="stroke:#000000;stroke-width:1.5;" x1="1493" x2="1756" y1="1561.2969" y2="1561.2969"/><text fill="#000000" font-family="sans-serif" font-size="14" font-weight="bold" lengthAdjust="spacing" textLength="250" x="1497" y="1553.9951">SpringBoot_Context_Concretes</text><!--MD5=[c7d0440a47874ff7b72a6fe2c1166267]
class ListableBeanFactory--><rect codeLine="2" fill="#FEFECE" filter="url(#fb9jbe54cqqyt)" height="48" id="ListableBeanFactory" style="stroke:#A80036;stroke-width:1.5;" width="153" x="1790.5" y="41"/><ellipse cx="1805.5" cy="57" fill="#B4A7E5" rx="11" ry="11" style="stroke:#A80036;stroke-width:1.0;"/><path d="M1806.4531,53.7813 L1808.1719,53.7813 C1808.5625,53.7813 1808.75,53.75 1808.875,53.6719 C1809.1406,53.5156 1809.2813,53.2344 1809.2813,52.9375 C1809.2813,52.6719 1809.1719,52.4063 1808.9375,52.2344 C1808.7656,52.125 1808.625,52.0938 1808.1719,52.0938 L1803.0313,52.0938 C1802.5938,52.0938 1802.4688,52.1094 1802.3125,52.2031 C1802.0625,52.3594 1801.9063,52.6563 1801.9063,52.9375 C1801.9063,53.2188 1802.0469,53.4688 1802.2656,53.6406 C1802.4219,53.75 1802.6094,53.7813 1803.0313,53.7813 L1804.75,53.7813 L1804.75,60.2969 L1803.0313,60.2969 C1802.5938,60.2969 1802.4688,60.3125 1802.3125,60.4219 C1802.0625,60.5781 1801.9063,60.8594 1801.9063,61.1563 C1801.9063,61.4063 1802.0469,61.6719 1802.2656,61.8281 C1802.4219,61.9531 1802.625,62 1803.0313,62 L1808.1719,62 C1808.9219,62 1809.2813,61.7188 1809.2813,61.1563 C1809.2813,60.875 1809.1719,60.625 1808.9375,60.4531 C1808.7656,60.3281 1808.625,60.2969 1808.1719,60.2969 L1806.4531,60.2969 L1806.4531,53.7813 Z " fill="#000000"/><text fill="#000000" font-family="sans-serif" font-size="12" font-style="italic" lengthAdjust="spacing" textLength="121" x="1819.5" y="61.1543">ListableBeanFactory</text><line style="stroke:#A80036;stroke-width:1.5;" x1="1791.5" x2="1942.5" y1="73" y2="73"/><line style="stroke:#A80036;stroke-width:1.5;" x1="1791.5" x2="1942.5" y1="81" y2="81"/><!--MD5=[bd5220611d0c28d928ccc89c278a01cf]
class ApplicationContext--><rect codeLine="7" fill="#FEFECE" filter="url(#fb9jbe54cqqyt)" height="60.8047" id="ApplicationContext" style="stroke:#A80036;stroke-width:1.5;" width="257" x="1738.5" y="164"/><ellipse cx="1805.75" cy="180" fill="#B4A7E5" rx="11" ry="11" style="stroke:#A80036;stroke-width:1.0;"/><path d="M1806.7031,176.7813 L1808.4219,176.7813 C1808.8125,176.7813 1809,176.75 1809.125,176.6719 C1809.3906,176.5156 1809.5313,176.2344 1809.5313,175.9375 C1809.5313,175.6719 1809.4219,175.4063 1809.1875,175.2344 C1809.0156,175.125 1808.875,175.0938 1808.4219,175.0938 L1803.2813,175.0938 C1802.8438,175.0938 1802.7188,175.1094 1802.5625,175.2031 C1802.3125,175.3594 1802.1563,175.6563 1802.1563,175.9375 C1802.1563,176.2188 1802.2969,176.4688 1802.5156,176.6406 C1802.6719,176.75 1802.8594,176.7813 1803.2813,176.7813 L1805,176.7813 L1805,183.2969 L1803.2813,183.2969 C1802.8438,183.2969 1802.7188,183.3125 1802.5625,183.4219 C1802.3125,183.5781 1802.1563,183.8594 1802.1563,184.1563 C1802.1563,184.4063 1802.2969,184.6719 1802.5156,184.8281 C1802.6719,184.9531 1802.875,185 1803.2813,185 L1808.4219,185 C1809.1719,185 1809.5313,184.7188 1809.5313,184.1563 C1809.5313,183.875 1809.4219,183.625 1809.1875,183.4531 C1809.0156,183.3281 1808.875,183.2969 1808.4219,183.2969 L1806.7031,183.2969 L1806.7031,176.7813 Z " fill="#000000"/><text fill="#000000" font-family="sans-serif" font-size="12" font-style="italic" lengthAdjust="spacing" textLength="114" x="1826.25" y="184.1543">ApplicationContext</text><line style="stroke:#A80036;stroke-width:1.5;" x1="1739.5" x2="1994.5" y1="196" y2="196"/><text fill="#000000" font-family="sans-serif" font-size="11" lengthAdjust="spacing" textLength="245" x="1744.5" y="210.2104">Proxy for bean factory, resource loader etc</text><line style="stroke:#A80036;stroke-width:1.5;" x1="1739.5" x2="1994.5" y1="216.8047" y2="216.8047"/><!--MD5=[0d935ab01ab745f54ea50b53c0359c1d]
class ConfigurableApplicationContext--><rect codeLine="11" fill="#FEFECE" filter="url(#fb9jbe54cqqyt)" height="86.4141" id="ConfigurableApplicationContext" style="stroke:#A80036;stroke-width:1.5;" width="334" x="1353" y="285"/><ellipse cx="1420.75" cy="301" fill="#B4A7E5" rx="11" ry="11" style="stroke:#A80036;stroke-width:1.0;"/><path d="M1421.7031,297.7813 L1423.4219,297.7813 C1423.8125,297.7813 1424,297.75 1424.125,297.6719 C1424.3906,297.5156 1424.5313,297.2344 1424.5313,296.9375 C1424.5313,296.6719 1424.4219,296.4063 1424.1875,296.2344 C1424.0156,296.125 1423.875,296.0938 1423.4219,296.0938 L1418.2813,296.0938 C1417.8438,296.0938 1417.7188,296.1094 1417.5625,296.2031 C1417.3125,296.3594 1417.1563,296.6563 1417.1563,296.9375 C1417.1563,297.2188 1417.2969,297.4688 1417.5156,297.6406 C1417.6719,297.75 1417.8594,297.7813 1418.2813,297.7813 L1420,297.7813 L1420,304.2969 L1418.2813,304.2969 C1417.8438,304.2969 1417.7188,304.3125 1417.5625,304.4219 C1417.3125,304.5781 1417.1563,304.8594 1417.1563,305.1563 C1417.1563,305.4063 1417.2969,305.6719 1417.5156,305.8281 C1417.6719,305.9531 1417.875,306 1418.2813,306 L1423.4219,306 C1424.1719,306 1424.5313,305.7188 1424.5313,305.1563 C1424.5313,304.875 1424.4219,304.625 1424.1875,304.4531 C1424.0156,304.3281 1423.875,304.2969 1423.4219,304.2969 L1421.7031,304.2969 L1421.7031,297.7813 Z " fill="#000000"/><text fill="#000000" font-family="sans-serif" font-size="12" font-style="italic" lengthAdjust="spacing" textLength="190" x="1441.25" y="305.1543">ConfigurableApplicationContext</text><line style="stroke:#A80036;stroke-width:1.5;" x1="1354" x2="1686" y1="317" y2="317"/><text fill="#000000" font-family="sans-serif" font-size="11" lengthAdjust="spacing" textLength="322" x="1359" y="331.2104">API to set/add class loader, parent, env, bean factory PP,</text><text fill="#000000" font-family="sans-serif" font-size="11" lengthAdjust="spacing" textLength="68" x="1359" y="344.0151">app listener</text><line style="stroke:#A80036;stroke-width:1.0;stroke-dasharray:1.0,2.0;" x1="1354" x2="1686" y1="350.6094" y2="350.6094"/><text fill="#000000" font-family="sans-serif" font-size="11" lengthAdjust="spacing" textLength="96" x="1359" y="364.8198">Key API refresh()</text><!--MD5=[25babdaaa420b6624a10302656c23378]
class WebApplicationContext--><rect codeLine="18" fill="#FFFFE0" filter="url(#fb9jbe54cqqyt)" height="73.6094" id="WebApplicationContext" style="stroke:#008000;stroke-width:2.0;" width="290" x="1722" y="291"/><ellipse cx="1792.25" cy="307" fill="#B4A7E5" rx="11" ry="11" style="stroke:#008000;stroke-width:1.0;"/><path d="M1793.2031,303.7813 L1794.9219,303.7813 C1795.3125,303.7813 1795.5,303.75 1795.625,303.6719 C1795.8906,303.5156 1796.0313,303.2344 1796.0313,302.9375 C1796.0313,302.6719 1795.9219,302.4063 1795.6875,302.2344 C1795.5156,302.125 1795.375,302.0938 1794.9219,302.0938 L1789.7813,302.0938 C1789.3438,302.0938 1789.2188,302.1094 1789.0625,302.2031 C1788.8125,302.3594 1788.6563,302.6563 1788.6563,302.9375 C1788.6563,303.2188 1788.7969,303.4688 1789.0156,303.6406 C1789.1719,303.75 1789.3594,303.7813 1789.7813,303.7813 L1791.5,303.7813 L1791.5,310.2969 L1789.7813,310.2969 C1789.3438,310.2969 1789.2188,310.3125 1789.0625,310.4219 C1788.8125,310.5781 1788.6563,310.8594 1788.6563,311.1563 C1788.6563,311.4063 1788.7969,311.6719 1789.0156,311.8281 C1789.1719,311.9531 1789.375,312 1789.7813,312 L1794.9219,312 C1795.6719,312 1796.0313,311.7188 1796.0313,311.1563 C1796.0313,310.875 1795.9219,310.625 1795.6875,310.4531 C1795.5156,310.3281 1795.375,310.2969 1794.9219,310.2969 L1793.2031,310.2969 L1793.2031,303.7813 Z " fill="#000000"/><text fill="#000000" font-family="sans-serif" font-size="12" font-style="italic" lengthAdjust="spacing" textLength="141" x="1812.75" y="311.1543">WebApplicationContext</text><line style="stroke:#008000;stroke-width:1.5;" x1="1723" x2="2011" y1="323" y2="323"/><text fill="#000000" font-family="sans-serif" font-size="11" lengthAdjust="spacing" textLength="201" x="1728" y="337.2104">ServletConfig=getServletContext()</text><text fill="#000000" font-family="sans-serif" font-size="11" lengthAdjust="spacing" textLength="278" x="1728" y="350.0151">defines bean names for storing Config attributes</text><line style="stroke:#008000;stroke-width:1.0;stroke-dasharray:1.0,2.0;" x1="1723" x2="2011" y1="356.6094" y2="356.6094"/><!--MD5=[bc42f8007547cbb7408e9d726a1110ed]
class ConfigurableWebApplicationContext--><rect codeLine="24" fill="#FFFFE0" filter="url(#fb9jbe54cqqyt)" height="86.4141" id="ConfigurableWebApplicationContext" style="stroke:#008000;stroke-width:2.0;" width="327" x="1461.5" y="462.5"/><ellipse cx="1512.25" cy="478.5" fill="#B4A7E5" rx="11" ry="11" style="stroke:#008000;stroke-width:1.0;"/><path d="M1513.2031,475.2813 L1514.9219,475.2813 C1515.3125,475.2813 1515.5,475.25 1515.625,475.1719 C1515.8906,475.0156 1516.0313,474.7344 1516.0313,474.4375 C1516.0313,474.1719 1515.9219,473.9063 1515.6875,473.7344 C1515.5156,473.625 1515.375,473.5938 1514.9219,473.5938 L1509.7813,473.5938 C1509.3438,473.5938 1509.2188,473.6094 1509.0625,473.7031 C1508.8125,473.8594 1508.6563,474.1563 1508.6563,474.4375 C1508.6563,474.7188 1508.7969,474.9688 1509.0156,475.1406 C1509.1719,475.25 1509.3594,475.2813 1509.7813,475.2813 L1511.5,475.2813 L1511.5,481.7969 L1509.7813,481.7969 C1509.3438,481.7969 1509.2188,481.8125 1509.0625,481.9219 C1508.8125,482.0781 1508.6563,482.3594 1508.6563,482.6563 C1508.6563,482.9063 1508.7969,483.1719 1509.0156,483.3281 C1509.1719,483.4531 1509.375,483.5 1509.7813,483.5 L1514.9219,483.5 C1515.6719,483.5 1516.0313,483.2188 1516.0313,482.6563 C1516.0313,482.375 1515.9219,482.125 1515.6875,481.9531 C1515.5156,481.8281 1515.375,481.7969 1514.9219,481.7969 L1513.2031,481.7969 L1513.2031,475.2813 Z " fill="#000000"/><text fill="#000000" font-family="sans-serif" font-size="12" font-style="italic" lengthAdjust="spacing" textLength="217" x="1532.75" y="482.6543">ConfigurableWebApplicationContext</text><line style="stroke:#008000;stroke-width:2.0;" x1="1462.5" x2="1787.5" y1="494.5" y2="494.5"/><text fill="#000000" font-family="sans-serif" font-size="11" lengthAdjust="spacing" textLength="312" x="1467.5" y="508.7104">setServletContext, setServletConfig, getServletConfig</text><line style="stroke:#008000;stroke-width:2.0;" x1="1462.5" x2="1787.5" y1="515.3047" y2="515.3047"/><text fill="#000000" font-family="sans-serif" font-size="11" lengthAdjust="spacing" textLength="315" x="1467.5" y="529.5151">setConfigLocation(s) - loc of configs like bean def XMLs</text><text fill="#000000" font-family="sans-serif" font-size="11" lengthAdjust="spacing" textLength="243" x="1467.5" y="542.3198">(can be set by helpers who read web.xml)</text><!--MD5=[a65f6e9aeee0d27719d64de862c98991]
class AbstractApplicationContext--><rect codeLine="34" fill="#FEFECE" filter="url(#fb9jbe54cqqyt)" height="148.8281" id="AbstractApplicationContext" style="stroke:#A80036;stroke-width:1.5;" width="355" x="718.5" y="431"/><ellipse cx="809.25" cy="447" fill="#A9DCDF" rx="11" ry="11" style="stroke:#A80036;stroke-width:1.0;"/><path d="M811.3281,448.8125 L811.7188,449.7969 L811.3281,449.7969 C810.875,449.7969 810.7656,449.8125 810.6094,449.9219 C810.3594,450.0781 810.2031,450.3594 810.2031,450.6563 C810.2031,450.9219 810.3438,451.1719 810.5625,451.3281 C810.7031,451.4531 810.9063,451.5 811.3281,451.5 L813.6875,451.5 C814.0469,451.5 814.2656,451.4688 814.4063,451.375 C814.6563,451.2344 814.8125,450.9375 814.8125,450.6563 C814.8125,450.375 814.6719,450.125 814.4531,449.9688 C814.2813,449.8281 814.125,449.7969 813.6563,449.7969 L810.2656,441.5938 L806.5938,441.5938 C806.1406,441.5938 806.0156,441.6094 805.8594,441.7031 C805.6094,441.875 805.4531,442.1563 805.4531,442.4375 C805.4531,442.7188 805.5938,442.9688 805.8125,443.1406 C805.9844,443.25 806.1563,443.2813 806.5938,443.2813 L807.6719,443.2813 L805.0313,449.7969 C804.6094,449.7969 804.4531,449.8125 804.2969,449.9219 C804.0469,450.0781 803.8906,450.3594 803.8906,450.6563 C803.8906,451.2188 804.2656,451.5 805.0156,451.5 L807.2813,451.5 C807.6406,451.5 807.8594,451.4688 807.9844,451.375 C808.25,451.2344 808.3906,450.9375 808.3906,450.6563 C808.3906,450.375 808.2656,450.125 808.0469,449.9531 C807.875,449.8281 807.7344,449.7969 807.2813,449.7969 L806.8906,449.7969 L807.2813,448.8125 L811.3281,448.8125 Z M810.625,447.1094 L807.9531,447.1094 L809.2969,443.8438 L810.625,447.1094 Z " fill="#000000"/><text fill="#000000" font-family="sans-serif" font-size="12" font-style="italic" lengthAdjust="spacing" textLength="165" x="829.75" y="451.1543">AbstractApplicationContext</text><line style="stroke:#A80036;stroke-width:1.5;" x1="719.5" x2="1072.5" y1="463" y2="463"/><text fill="#000000" font-family="sans-serif" font-size="11" lengthAdjust="spacing" textLength="235" x="724.5" y="477.2104">Skeleton impl with home for parent, env,</text><text fill="#000000" font-family="sans-serif" font-size="11" lengthAdjust="spacing" textLength="177" x="724.5" y="490.0151">bean factory pps, app listeners</text><line style="stroke:#A80036;stroke-width:1.0;stroke-dasharray:1.0,2.0;" x1="719.5" x2="1072.5" y1="496.6094" y2="496.6094"/><text fill="#000000" font-family="sans-serif" font-size="11" lengthAdjust="spacing" textLength="288" x="724.5" y="510.8198">Impl refresh() by obtain bean factory from derived</text><line style="stroke:#A80036;stroke-width:1.0;stroke-dasharray:1.0,2.0;" x1="719.5" x2="1072.5" y1="517.4141" y2="517.4141"/><text fill="#000000" font-family="sans-serif" font-size="11" lengthAdjust="spacing" textLength="268" x="724.5" y="531.6245">refresh calls derived postProcessBeanFactory()</text><line style="stroke:#A80036;stroke-width:1.0;stroke-dasharray:1.0,2.0;" x1="719.5" x2="1072.5" y1="538.2188" y2="538.2188"/><text fill="#000000" font-family="sans-serif" font-size="11" lengthAdjust="spacing" textLength="343" x="724.5" y="552.4292">Demands derived - refreshBeanFactory(), getBeanFactory(),</text><text fill="#000000" font-family="sans-serif" font-size="11" lengthAdjust="spacing" textLength="109" x="724.5" y="565.2339">closeBeanFactory()</text><line style="stroke:#A80036;stroke-width:1.0;stroke-dasharray:1.0,2.0;" x1="719.5" x2="1072.5" y1="571.8281" y2="571.8281"/><!--MD5=[fd73bff280e943dfe3161fd376d30331]
class AbstractRefreshableApplicationContext--><rect codeLine="49" fill="#FEFECE" filter="url(#fb9jbe54cqqyt)" height="148.8281" id="AbstractRefreshableApplicationContext" style="stroke:#A80036;stroke-width:1.5;" width="355" x="718.5" y="640"/><ellipse cx="774.25" cy="656" fill="#A9DCDF" rx="11" ry="11" style="stroke:#A80036;stroke-width:1.0;"/><path d="M776.3281,657.8125 L776.7188,658.7969 L776.3281,658.7969 C775.875,658.7969 775.7656,658.8125 775.6094,658.9219 C775.3594,659.0781 775.2031,659.3594 775.2031,659.6563 C775.2031,659.9219 775.3438,660.1719 775.5625,660.3281 C775.7031,660.4531 775.9063,660.5 776.3281,660.5 L778.6875,660.5 C779.0469,660.5 779.2656,660.4688 779.4063,660.375 C779.6563,660.2344 779.8125,659.9375 779.8125,659.6563 C779.8125,659.375 779.6719,659.125 779.4531,658.9688 C779.2813,658.8281 779.125,658.7969 778.6563,658.7969 L775.2656,650.5938 L771.5938,650.5938 C771.1406,650.5938 771.0156,650.6094 770.8594,650.7031 C770.6094,650.875 770.4531,651.1563 770.4531,651.4375 C770.4531,651.7188 770.5938,651.9688 770.8125,652.1406 C770.9844,652.25 771.1563,652.2813 771.5938,652.2813 L772.6719,652.2813 L770.0313,658.7969 C769.6094,658.7969 769.4531,658.8125 769.2969,658.9219 C769.0469,659.0781 768.8906,659.3594 768.8906,659.6563 C768.8906,660.2188 769.2656,660.5 770.0156,660.5 L772.2813,660.5 C772.6406,660.5 772.8594,660.4688 772.9844,660.375 C773.25,660.2344 773.3906,659.9375 773.3906,659.6563 C773.3906,659.375 773.2656,659.125 773.0469,658.9531 C772.875,658.8281 772.7344,658.7969 772.2813,658.7969 L771.8906,658.7969 L772.2813,657.8125 L776.3281,657.8125 Z M775.625,656.1094 L772.9531,656.1094 L774.2969,652.8438 L775.625,656.1094 Z " fill="#000000"/><text fill="#000000" font-family="sans-serif" font-size="12" font-style="italic" lengthAdjust="spacing" textLength="235" x="794.75" y="660.1543">AbstractRefreshableApplicationContext</text><line style="stroke:#A80036;stroke-width:1.5;" x1="719.5" x2="1072.5" y1="672" y2="672"/><text fill="#000000" font-family="sans-serif" font-size="11" lengthAdjust="spacing" textLength="235" x="724.5" y="686.2104">Skeleton impl with home for parent, env,</text><text fill="#000000" font-family="sans-serif" font-size="11" lengthAdjust="spacing" textLength="177" x="724.5" y="699.0151">bean factory pps, app listeners</text><line style="stroke:#A80036;stroke-width:1.0;stroke-dasharray:1.0,2.0;" x1="719.5" x2="1072.5" y1="705.6094" y2="705.6094"/><text fill="#000000" font-family="sans-serif" font-size="11" lengthAdjust="spacing" textLength="288" x="724.5" y="719.8198">Impl refresh() by obtain bean factory from derived</text><line style="stroke:#A80036;stroke-width:1.0;stroke-dasharray:1.0,2.0;" x1="719.5" x2="1072.5" y1="726.4141" y2="726.4141"/><text fill="#000000" font-family="sans-serif" font-size="11" lengthAdjust="spacing" textLength="268" x="724.5" y="740.6245">refresh calls derived postProcessBeanFactory()</text><line style="stroke:#A80036;stroke-width:1.0;stroke-dasharray:1.0,2.0;" x1="719.5" x2="1072.5" y1="747.2188" y2="747.2188"/><text fill="#000000" font-family="sans-serif" font-size="11" lengthAdjust="spacing" textLength="343" x="724.5" y="761.4292">Demands derived - refreshBeanFactory(), getBeanFactory(),</text><text fill="#000000" font-family="sans-serif" font-size="11" lengthAdjust="spacing" textLength="109" x="724.5" y="774.2339">closeBeanFactory()</text><line style="stroke:#A80036;stroke-width:1.0;stroke-dasharray:1.0,2.0;" x1="719.5" x2="1072.5" y1="780.8281" y2="780.8281"/><!--MD5=[9d101a53141b43caf9b055f955bebac6]
class AbstractRefreshableConfigApplicationContext--><rect codeLine="62" fill="#FEFECE" filter="url(#fb9jbe54cqqyt)" height="60.8047" id="AbstractRefreshableConfigApplicationContext" style="stroke:#A80036;stroke-width:1.5;" width="305" x="743.5" y="849"/><ellipse cx="758.5" cy="865" fill="#A9DCDF" rx="11" ry="11" style="stroke:#A80036;stroke-width:1.0;"/><path d="M760.5781,866.8125 L760.9688,867.7969 L760.5781,867.7969 C760.125,867.7969 760.0156,867.8125 759.8594,867.9219 C759.6094,868.0781 759.4531,868.3594 759.4531,868.6563 C759.4531,868.9219 759.5938,869.1719 759.8125,869.3281 C759.9531,869.4531 760.1563,869.5 760.5781,869.5 L762.9375,869.5 C763.2969,869.5 763.5156,869.4688 763.6563,869.375 C763.9063,869.2344 764.0625,868.9375 764.0625,868.6563 C764.0625,868.375 763.9219,868.125 763.7031,867.9688 C763.5313,867.8281 763.375,867.7969 762.9063,867.7969 L759.5156,859.5938 L755.8438,859.5938 C755.3906,859.5938 755.2656,859.6094 755.1094,859.7031 C754.8594,859.875 754.7031,860.1563 754.7031,860.4375 C754.7031,860.7188 754.8438,860.9688 755.0625,861.1406 C755.2344,861.25 755.4063,861.2813 755.8438,861.2813 L756.9219,861.2813 L754.2813,867.7969 C753.8594,867.7969 753.7031,867.8125 753.5469,867.9219 C753.2969,868.0781 753.1406,868.3594 753.1406,868.6563 C753.1406,869.2188 753.5156,869.5 754.2656,869.5 L756.5313,869.5 C756.8906,869.5 757.1094,869.4688 757.2344,869.375 C757.5,869.2344 757.6406,868.9375 757.6406,868.6563 C757.6406,868.375 757.5156,868.125 757.2969,867.9531 C757.125,867.8281 756.9844,867.7969 756.5313,867.7969 L756.1406,867.7969 L756.5313,866.8125 L760.5781,866.8125 Z M759.875,865.1094 L757.2031,865.1094 L758.5469,861.8438 L759.875,865.1094 Z " fill="#000000"/><text fill="#000000" font-family="sans-serif" font-size="12" font-style="italic" lengthAdjust="spacing" textLength="273" x="772.5" y="869.1543">AbstractRefreshableConfigApplicationContext</text><line style="stroke:#A80036;stroke-width:1.5;" x1="744.5" x2="1047.5" y1="881" y2="881"/><text fill="#000000" font-family="sans-serif" font-size="11" lengthAdjust="spacing" textLength="255" x="749.5" y="895.2104">Simple impl to set and store config locations</text><line style="stroke:#A80036;stroke-width:1.5;" x1="744.5" x2="1047.5" y1="901.8047" y2="901.8047"/><!--MD5=[e842170f97f9ef58e17e81c8d993c83a]
class AbstractXmlApplicationContext--><rect codeLine="66" fill="#FEFECE" filter="url(#fb9jbe54cqqyt)" height="86.4141" id="AbstractXmlApplicationContext" style="stroke:#A80036;stroke-width:1.5;" width="392" x="576" y="970"/><ellipse cx="673.75" cy="986" fill="#A9DCDF" rx="11" ry="11" style="stroke:#A80036;stroke-width:1.0;"/><path d="M675.8281,987.8125 L676.2188,988.7969 L675.8281,988.7969 C675.375,988.7969 675.2656,988.8125 675.1094,988.9219 C674.8594,989.0781 674.7031,989.3594 674.7031,989.6563 C674.7031,989.9219 674.8438,990.1719 675.0625,990.3281 C675.2031,990.4531 675.4063,990.5 675.8281,990.5 L678.1875,990.5 C678.5469,990.5 678.7656,990.4688 678.9063,990.375 C679.1563,990.2344 679.3125,989.9375 679.3125,989.6563 C679.3125,989.375 679.1719,989.125 678.9531,988.9688 C678.7813,988.8281 678.625,988.7969 678.1563,988.7969 L674.7656,980.5938 L671.0938,980.5938 C670.6406,980.5938 670.5156,980.6094 670.3594,980.7031 C670.1094,980.875 669.9531,981.1563 669.9531,981.4375 C669.9531,981.7188 670.0938,981.9688 670.3125,982.1406 C670.4844,982.25 670.6563,982.2813 671.0938,982.2813 L672.1719,982.2813 L669.5313,988.7969 C669.1094,988.7969 668.9531,988.8125 668.7969,988.9219 C668.5469,989.0781 668.3906,989.3594 668.3906,989.6563 C668.3906,990.2188 668.7656,990.5 669.5156,990.5 L671.7813,990.5 C672.1406,990.5 672.3594,990.4688 672.4844,990.375 C672.75,990.2344 672.8906,989.9375 672.8906,989.6563 C672.8906,989.375 672.7656,989.125 672.5469,988.9531 C672.375,988.8281 672.2344,988.7969 671.7813,988.7969 L671.3906,988.7969 L671.7813,987.8125 L675.8281,987.8125 Z M675.125,986.1094 L672.4531,986.1094 L673.7969,982.8438 L675.125,986.1094 Z " fill="#000000"/><text fill="#000000" font-family="sans-serif" font-size="12" font-style="italic" lengthAdjust="spacing" textLength="188" x="694.25" y="990.1543">AbstractXmlApplicationContext</text><line style="stroke:#A80036;stroke-width:1.5;" x1="577" x2="967" y1="1002" y2="1002"/><text fill="#000000" font-family="sans-serif" font-size="11" lengthAdjust="spacing" textLength="332" x="582" y="1016.2104">Implements loadBeanDefinitions() - which loads defs from</text><text fill="#000000" font-family="sans-serif" font-size="11" lengthAdjust="spacing" textLength="380" x="582" y="1029.0151">config locations in XML format and/or resources from derived class</text><line style="stroke:#A80036;stroke-width:1.0;stroke-dasharray:1.0,2.0;" x1="577" x2="967" y1="1035.6094" y2="1035.6094"/><text fill="#000000" font-family="sans-serif" font-size="11" lengthAdjust="spacing" textLength="254" x="582" y="1049.8198">Requires getConfigResources() from derived</text><!--MD5=[04685d28980d4b25c14a8a8744ca97b7]
class AbstractRefreshableWebApplicationContext--><rect codeLine="74" fill="#FFFFE0" filter="url(#fb9jbe54cqqyt)" height="86.4141" id="AbstractRefreshableWebApplicationContext" style="stroke:#008000;stroke-width:2.0;" width="294" x="1003" y="970"/><ellipse cx="1018" cy="986" fill="#A9DCDF" rx="11" ry="11" style="stroke:#008000;stroke-width:1.0;"/><path d="M1020.0781,987.8125 L1020.4688,988.7969 L1020.0781,988.7969 C1019.625,988.7969 1019.5156,988.8125 1019.3594,988.9219 C1019.1094,989.0781 1018.9531,989.3594 1018.9531,989.6563 C1018.9531,989.9219 1019.0938,990.1719 1019.3125,990.3281 C1019.4531,990.4531 1019.6563,990.5 1020.0781,990.5 L1022.4375,990.5 C1022.7969,990.5 1023.0156,990.4688 1023.1563,990.375 C1023.4063,990.2344 1023.5625,989.9375 1023.5625,989.6563 C1023.5625,989.375 1023.4219,989.125 1023.2031,988.9688 C1023.0313,988.8281 1022.875,988.7969 1022.4063,988.7969 L1019.0156,980.5938 L1015.3438,980.5938 C1014.8906,980.5938 1014.7656,980.6094 1014.6094,980.7031 C1014.3594,980.875 1014.2031,981.1563 1014.2031,981.4375 C1014.2031,981.7188 1014.3438,981.9688 1014.5625,982.1406 C1014.7344,982.25 1014.9063,982.2813 1015.3438,982.2813 L1016.4219,982.2813 L1013.7813,988.7969 C1013.3594,988.7969 1013.2031,988.8125 1013.0469,988.9219 C1012.7969,989.0781 1012.6406,989.3594 1012.6406,989.6563 C1012.6406,990.2188 1013.0156,990.5 1013.7656,990.5 L1016.0313,990.5 C1016.3906,990.5 1016.6094,990.4688 1016.7344,990.375 C1017,990.2344 1017.1406,989.9375 1017.1406,989.6563 C1017.1406,989.375 1017.0156,989.125 1016.7969,988.9531 C1016.625,988.8281 1016.4844,988.7969 1016.0313,988.7969 L1015.6406,988.7969 L1016.0313,987.8125 L1020.0781,987.8125 Z M1019.375,986.1094 L1016.7031,986.1094 L1018.0469,982.8438 L1019.375,986.1094 Z " fill="#000000"/><text fill="#000000" font-family="sans-serif" font-size="12" font-style="italic" lengthAdjust="spacing" textLength="262" x="1032" y="990.1543">AbstractRefreshableWebApplicationContext</text><line style="stroke:#008000;stroke-width:2.0;" x1="1004" x2="1296" y1="1002" y2="1002"/><text fill="#000000" font-family="sans-serif" font-size="11" lengthAdjust="spacing" textLength="192" x="1009" y="1016.2104">Similar to base; adds "web" impls</text><text fill="#000000" font-family="sans-serif" font-size="11" lengthAdjust="spacing" textLength="144" x="1009" y="1029.0151">factory and add bean PPs</text><line style="stroke:#008000;stroke-width:2.0;" x1="1004" x2="1296" y1="1035.6094" y2="1035.6094"/><text fill="#000000" font-family="sans-serif" font-size="11" lengthAdjust="spacing" textLength="279" x="1009" y="1049.8198">Impl postProcessBeanFactory() to configure bean</text><!--MD5=[957fa70b0cf830f543d45538d1893298]
class GenericApplicationContext--><rect codeLine="84" fill="#FEFECE" filter="url(#fb9jbe54cqqyt)" height="161.6328" id="GenericApplicationContext" style="stroke:#A80036;stroke-width:1.5;" width="375" x="23.5" y="1131"/><ellipse cx="127.25" cy="1147" fill="#ADD1B2" rx="11" ry="11" style="stroke:#A80036;stroke-width:1.0;"/><path d="M129.5938,1142.6719 C128.6563,1142.2344 128.0625,1142.0938 127.1875,1142.0938 C124.5625,1142.0938 122.5625,1144.1719 122.5625,1146.8906 L122.5625,1148.0156 C122.5625,1150.5938 124.6719,1152.4844 127.5625,1152.4844 C128.7813,1152.4844 129.9375,1152.1875 130.6875,1151.6406 C131.2656,1151.2344 131.5938,1150.7813 131.5938,1150.3906 C131.5938,1149.9375 131.2031,1149.5469 130.7344,1149.5469 C130.5156,1149.5469 130.3125,1149.625 130.125,1149.8125 C129.6719,1150.2969 129.6719,1150.2969 129.4844,1150.3906 C129.0625,1150.6563 128.375,1150.7813 127.6094,1150.7813 C125.5625,1150.7813 124.2656,1149.6875 124.2656,1147.9844 L124.2656,1146.8906 C124.2656,1145.1094 125.5156,1143.7969 127.25,1143.7969 C127.8281,1143.7969 128.4375,1143.9531 128.9063,1144.2031 C129.3906,1144.4844 129.5625,1144.7031 129.6563,1145.1094 C129.7188,1145.5156 129.75,1145.6406 129.8906,1145.7656 C130.0313,1145.9063 130.2656,1146.0156 130.4844,1146.0156 C130.75,1146.0156 131.0156,1145.875 131.1875,1145.6563 C131.2969,1145.5 131.3281,1145.3125 131.3281,1144.8906 L131.3281,1143.4688 C131.3281,1143.0313 131.3125,1142.9063 131.2188,1142.75 C131.0625,1142.4844 130.7813,1142.3438 130.4844,1142.3438 C130.1875,1142.3438 129.9844,1142.4375 129.7656,1142.75 L129.5938,1142.6719 Z " fill="#000000"/><text fill="#000000" font-family="sans-serif" font-size="12" lengthAdjust="spacing" textLength="159" x="147.75" y="1151.1543">GenericApplicationContext</text><line style="stroke:#A80036;stroke-width:1.5;" x1="24.5" x2="397.5" y1="1163" y2="1163"/><text fill="#000000" font-family="sans-serif" font-size="11" lengthAdjust="spacing" textLength="99" x="29.5" y="1177.2104">Concrete context</text><line style="stroke:#A80036;stroke-width:1.0;stroke-dasharray:1.0,2.0;" x1="24.5" x2="397.5" y1="1183.8047" y2="1183.8047"/><text fill="#000000" font-family="sans-serif" font-size="11" lengthAdjust="spacing" textLength="268" x="29.5" y="1198.0151">Owns DefaultListableBeanFactory which is also</text><text fill="#000000" font-family="sans-serif" font-size="11" lengthAdjust="spacing" textLength="131" x="29.5" y="1210.8198">BeanDefinitionRegistry</text><line style="stroke:#A80036;stroke-width:1.0;stroke-dasharray:1.0,2.0;" x1="24.5" x2="397.5" y1="1217.4141" y2="1217.4141"/><text fill="#000000" font-family="sans-serif" font-size="11" lengthAdjust="spacing" textLength="217" x="29.5" y="1231.6245">Proxies BDR api calls to above factory</text><line style="stroke:#A80036;stroke-width:1.0;stroke-dasharray:1.0,2.0;" x1="24.5" x2="397.5" y1="1238.2188" y2="1238.2188"/><text fill="#000000" font-family="sans-serif" font-size="11" lengthAdjust="spacing" textLength="174" x="29.5" y="1252.4292">Impl all demanded apis above</text><line style="stroke:#A80036;stroke-width:1.0;stroke-dasharray:1.0,2.0;" x1="24.5" x2="397.5" y1="1259.0234" y2="1259.0234"/><text fill="#000000" font-family="sans-serif" font-size="11" lengthAdjust="spacing" textLength="281" x="29.5" y="1273.2339">Sugg Usage: bean defs can be fed from utils like</text><text fill="#000000" font-family="sans-serif" font-size="11" lengthAdjust="spacing" textLength="363" x="29.5" y="1286.0386">XmlBeanDefinitionReader and PropertiesBeanDefinitionReader.</text><!--MD5=[03b475f2db410d86c89ea5c92a71caa3]
class GenericWebApplicationContext--><rect codeLine="98" fill="#FFFFE0" filter="url(#fb9jbe54cqqyt)" height="86.4141" id="GenericWebApplicationContext" style="stroke:#008000;stroke-width:2.0;" width="333" x="1342.5" y="1383"/><ellipse cx="1411.25" cy="1399" fill="#ADD1B2" rx="11" ry="11" style="stroke:#008000;stroke-width:1.0;"/><path d="M1413.5938,1394.6719 C1412.6563,1394.2344 1412.0625,1394.0938 1411.1875,1394.0938 C1408.5625,1394.0938 1406.5625,1396.1719 1406.5625,1398.8906 L1406.5625,1400.0156 C1406.5625,1402.5938 1408.6719,1404.4844 1411.5625,1404.4844 C1412.7813,1404.4844 1413.9375,1404.1875 1414.6875,1403.6406 C1415.2656,1403.2344 1415.5938,1402.7813 1415.5938,1402.3906 C1415.5938,1401.9375 1415.2031,1401.5469 1414.7344,1401.5469 C1414.5156,1401.5469 1414.3125,1401.625 1414.125,1401.8125 C1413.6719,1402.2969 1413.6719,1402.2969 1413.4844,1402.3906 C1413.0625,1402.6563 1412.375,1402.7813 1411.6094,1402.7813 C1409.5625,1402.7813 1408.2656,1401.6875 1408.2656,1399.9844 L1408.2656,1398.8906 C1408.2656,1397.1094 1409.5156,1395.7969 1411.25,1395.7969 C1411.8281,1395.7969 1412.4375,1395.9531 1412.9063,1396.2031 C1413.3906,1396.4844 1413.5625,1396.7031 1413.6563,1397.1094 C1413.7188,1397.5156 1413.75,1397.6406 1413.8906,1397.7656 C1414.0313,1397.9063 1414.2656,1398.0156 1414.4844,1398.0156 C1414.75,1398.0156 1415.0156,1397.875 1415.1875,1397.6563 C1415.2969,1397.5 1415.3281,1397.3125 1415.3281,1396.8906 L1415.3281,1395.4688 C1415.3281,1395.0313 1415.3125,1394.9063 1415.2188,1394.75 C1415.0625,1394.4844 1414.7813,1394.3438 1414.4844,1394.3438 C1414.1875,1394.3438 1413.9844,1394.4375 1413.7656,1394.75 L1413.5938,1394.6719 Z " fill="#000000"/><text fill="#000000" font-family="sans-serif" font-size="12" lengthAdjust="spacing" textLength="187" x="1431.75" y="1403.1543">GenericWebApplicationContext</text><line style="stroke:#008000;stroke-width:1.5;" x1="1343.5" x2="1674.5" y1="1415" y2="1415"/><text fill="#000000" font-family="sans-serif" font-size="11" lengthAdjust="spacing" textLength="269" x="1348.5" y="1429.2104">Impls "web" apis (setConfigLoc.. not supported)</text><line style="stroke:#008000;stroke-width:1.0;stroke-dasharray:1.0,2.0;" x1="1343.5" x2="1674.5" y1="1435.8047" y2="1435.8047"/><text fill="#000000" font-family="sans-serif" font-size="11" lengthAdjust="spacing" textLength="321" x="1348.5" y="1450.0151">Impl postProcessBeanFactory() to configure beanfactory,</text><text fill="#000000" font-family="sans-serif" font-size="11" lengthAdjust="spacing" textLength="155" x="1348.5" y="1462.8198">add web related beans etc</text><!--MD5=[cda2b11856ba6980467e145a4f8e0c01]
class AnnotationConfigApplicationContext--><rect codeLine="105" fill="#FEFECE" filter="url(#fb9jbe54cqqyt)" height="145.6328" id="AnnotationConfigApplicationContext" style="stroke:#A80036;stroke-width:1.5;" width="282" x="70" y="1353"/><ellipse cx="101.65" cy="1369" fill="#ADD1B2" rx="11" ry="11" style="stroke:#A80036;stroke-width:1.0;"/><path d="M103.9938,1364.6719 C103.0563,1364.2344 102.4625,1364.0938 101.5875,1364.0938 C98.9625,1364.0938 96.9625,1366.1719 96.9625,1368.8906 L96.9625,1370.0156 C96.9625,1372.5938 99.0719,1374.4844 101.9625,1374.4844 C103.1813,1374.4844 104.3375,1374.1875 105.0875,1373.6406 C105.6656,1373.2344 105.9938,1372.7813 105.9938,1372.3906 C105.9938,1371.9375 105.6031,1371.5469 105.1344,1371.5469 C104.9156,1371.5469 104.7125,1371.625 104.525,1371.8125 C104.0719,1372.2969 104.0719,1372.2969 103.8844,1372.3906 C103.4625,1372.6563 102.775,1372.7813 102.0094,1372.7813 C99.9625,1372.7813 98.6656,1371.6875 98.6656,1369.9844 L98.6656,1368.8906 C98.6656,1367.1094 99.9156,1365.7969 101.65,1365.7969 C102.2281,1365.7969 102.8375,1365.9531 103.3063,1366.2031 C103.7906,1366.4844 103.9625,1366.7031 104.0563,1367.1094 C104.1188,1367.5156 104.15,1367.6406 104.2906,1367.7656 C104.4313,1367.9063 104.6656,1368.0156 104.8844,1368.0156 C105.15,1368.0156 105.4156,1367.875 105.5875,1367.6563 C105.6969,1367.5 105.7281,1367.3125 105.7281,1366.8906 L105.7281,1365.4688 C105.7281,1365.0313 105.7125,1364.9063 105.6188,1364.75 C105.4625,1364.4844 105.1813,1364.3438 104.8844,1364.3438 C104.5875,1364.3438 104.3844,1364.4375 104.1656,1364.75 L103.9938,1364.6719 Z " fill="#000000"/><text fill="#000000" font-family="sans-serif" font-size="12" lengthAdjust="spacing" textLength="213" x="119.35" y="1373.1543">AnnotationConfigApplicationContext</text><line style="stroke:#A80036;stroke-width:1.5;" x1="71" x2="351" y1="1385" y2="1385"/><text fill="#000000" font-family="sans-serif" font-size="11" lengthAdjust="spacing" textLength="52" x="76" y="1399.2104">Concrete</text><line style="stroke:#A80036;stroke-width:1.0;stroke-dasharray:1.0,2.0;" x1="71" x2="351" y1="1405.8047" y2="1405.8047"/><text fill="#000000" font-family="sans-serif" font-size="11" lengthAdjust="spacing" textLength="235" x="76" y="1420.0151">Bean def registration is internalised now.</text><text fill="#000000" font-family="sans-serif" font-size="11" lengthAdjust="spacing" textLength="229" x="76" y="1432.8198">Specialized to scan/add bean defs from</text><text fill="#000000" font-family="sans-serif" font-size="11" lengthAdjust="spacing" textLength="270" x="76" y="1445.6245">@Configuration/@Bean annotations recursively</text><text fill="#000000" font-family="sans-serif" font-size="11" lengthAdjust="spacing" textLength="158" x="76" y="1458.4292">by scanning base packages</text><text fill="#000000" font-family="sans-serif" font-size="11" lengthAdjust="spacing" textLength="228" x="76" y="1471.2339">(using ClassPathBeanDefinitionScanner)</text><line style="stroke:#A80036;stroke-width:1.0;stroke-dasharray:1.0,2.0;" x1="71" x2="351" y1="1477.8281" y2="1477.8281"/><text fill="#000000" font-family="sans-serif" font-size="11" lengthAdjust="spacing" textLength="235" x="76" y="1492.0386">Role of AnnotatedBeanDefinitionReader?</text><!--MD5=[aeaabfa2a85afdbe7994c7ea720e4a63]
class ClassPathXmlApplicationContext--><rect codeLine="117" fill="#FEFECE" filter="url(#fb9jbe54cqqyt)" height="132.8281" id="ClassPathXmlApplicationContext" style="stroke:#A80036;stroke-width:1.5;" width="273" x="433.5" y="1145.5"/><ellipse cx="471.45" cy="1161.5" fill="#ADD1B2" rx="11" ry="11" style="stroke:#A80036;stroke-width:1.0;"/><path d="M473.7938,1157.1719 C472.8563,1156.7344 472.2625,1156.5938 471.3875,1156.5938 C468.7625,1156.5938 466.7625,1158.6719 466.7625,1161.3906 L466.7625,1162.5156 C466.7625,1165.0938 468.8719,1166.9844 471.7625,1166.9844 C472.9813,1166.9844 474.1375,1166.6875 474.8875,1166.1406 C475.4656,1165.7344 475.7938,1165.2813 475.7938,1164.8906 C475.7938,1164.4375 475.4031,1164.0469 474.9344,1164.0469 C474.7156,1164.0469 474.5125,1164.125 474.325,1164.3125 C473.8719,1164.7969 473.8719,1164.7969 473.6844,1164.8906 C473.2625,1165.1563 472.575,1165.2813 471.8094,1165.2813 C469.7625,1165.2813 468.4656,1164.1875 468.4656,1162.4844 L468.4656,1161.3906 C468.4656,1159.6094 469.7156,1158.2969 471.45,1158.2969 C472.0281,1158.2969 472.6375,1158.4531 473.1063,1158.7031 C473.5906,1158.9844 473.7625,1159.2031 473.8563,1159.6094 C473.9188,1160.0156 473.95,1160.1406 474.0906,1160.2656 C474.2313,1160.4063 474.4656,1160.5156 474.6844,1160.5156 C474.95,1160.5156 475.2156,1160.375 475.3875,1160.1563 C475.4969,1160 475.5281,1159.8125 475.5281,1159.3906 L475.5281,1157.9688 C475.5281,1157.5313 475.5125,1157.4063 475.4188,1157.25 C475.2625,1156.9844 474.9813,1156.8438 474.6844,1156.8438 C474.3875,1156.8438 474.1844,1156.9375 473.9656,1157.25 L473.7938,1157.1719 Z " fill="#000000"/><text fill="#000000" font-family="sans-serif" font-size="12" lengthAdjust="spacing" textLength="190" x="490.55" y="1165.6543">ClassPathXmlApplicationContext</text><line style="stroke:#A80036;stroke-width:1.5;" x1="434.5" x2="705.5" y1="1177.5" y2="1177.5"/><text fill="#000000" font-family="sans-serif" font-size="11" lengthAdjust="spacing" textLength="261" x="439.5" y="1191.7104">Implements getConfigResources() - interprets</text><text fill="#000000" font-family="sans-serif" font-size="11" lengthAdjust="spacing" textLength="240" x="439.5" y="1204.5151">plain paths as class path resource names.</text><line style="stroke:#A80036;stroke-width:1.0;stroke-dasharray:1.0,2.0;" x1="434.5" x2="705.5" y1="1211.1094" y2="1211.1094"/><text fill="#000000" font-family="sans-serif" font-size="11" lengthAdjust="spacing" textLength="224" x="439.5" y="1225.3198">Useful for test harnesses as well as for</text><text fill="#000000" font-family="sans-serif" font-size="11" lengthAdjust="spacing" textLength="249" x="439.5" y="1238.1245">application contexts embedded within JARs.</text><line style="stroke:#A80036;stroke-width:1.0;stroke-dasharray:1.0,2.0;" x1="434.5" x2="705.5" y1="1244.7188" y2="1244.7188"/><text fill="#000000" font-family="sans-serif" font-size="11" lengthAdjust="spacing" textLength="252" x="439.5" y="1258.9292">has APIs such that both indiv resource paths</text><text fill="#000000" font-family="sans-serif" font-size="11" lengthAdjust="spacing" textLength="178" x="439.5" y="1271.7339">and config locations can be set</text><!--MD5=[b942b311bef472b1e82e53dfb801bce9]
class FileSystemXmlApplicationContext--><rect codeLine="128" fill="#FEFECE" filter="url(#fb9jbe54cqqyt)" height="48" id="FileSystemXmlApplicationContext" style="stroke:#A80036;stroke-width:1.5;" width="232" x="742" y="1188"/><ellipse cx="757" cy="1204" fill="#ADD1B2" rx="11" ry="11" style="stroke:#A80036;stroke-width:1.0;"/><path d="M759.3438,1199.6719 C758.4063,1199.2344 757.8125,1199.0938 756.9375,1199.0938 C754.3125,1199.0938 752.3125,1201.1719 752.3125,1203.8906 L752.3125,1205.0156 C752.3125,1207.5938 754.4219,1209.4844 757.3125,1209.4844 C758.5313,1209.4844 759.6875,1209.1875 760.4375,1208.6406 C761.0156,1208.2344 761.3438,1207.7813 761.3438,1207.3906 C761.3438,1206.9375 760.9531,1206.5469 760.4844,1206.5469 C760.2656,1206.5469 760.0625,1206.625 759.875,1206.8125 C759.4219,1207.2969 759.4219,1207.2969 759.2344,1207.3906 C758.8125,1207.6563 758.125,1207.7813 757.3594,1207.7813 C755.3125,1207.7813 754.0156,1206.6875 754.0156,1204.9844 L754.0156,1203.8906 C754.0156,1202.1094 755.2656,1200.7969 757,1200.7969 C757.5781,1200.7969 758.1875,1200.9531 758.6563,1201.2031 C759.1406,1201.4844 759.3125,1201.7031 759.4063,1202.1094 C759.4688,1202.5156 759.5,1202.6406 759.6406,1202.7656 C759.7813,1202.9063 760.0156,1203.0156 760.2344,1203.0156 C760.5,1203.0156 760.7656,1202.875 760.9375,1202.6563 C761.0469,1202.5 761.0781,1202.3125 761.0781,1201.8906 L761.0781,1200.4688 C761.0781,1200.0313 761.0625,1199.9063 760.9688,1199.75 C760.8125,1199.4844 760.5313,1199.3438 760.2344,1199.3438 C759.9375,1199.3438 759.7344,1199.4375 759.5156,1199.75 L759.3438,1199.6719 Z " fill="#000000"/><text fill="#000000" font-family="sans-serif" font-size="12" lengthAdjust="spacing" textLength="200" x="771" y="1208.1543">FileSystemXmlApplicationContext</text><line style="stroke:#A80036;stroke-width:1.5;" x1="743" x2="973" y1="1220" y2="1220"/><line style="stroke:#A80036;stroke-width:1.5;" x1="743" x2="973" y1="1228" y2="1228"/><!--MD5=[4fb55b0a72f63582ec2f5f9c02ba17ba]
class AnnotationConfigWebApplicationContext--><rect codeLine="131" fill="#FFFFE0" filter="url(#fb9jbe54cqqyt)" height="112.0234" id="AnnotationConfigWebApplicationContext" style="stroke:#008000;stroke-width:2.0;" width="282" x="1009" y="1156"/><ellipse cx="1028.05" cy="1172" fill="#ADD1B2" rx="11" ry="11" style="stroke:#008000;stroke-width:1.0;"/><path d="M1030.3938,1167.6719 C1029.4563,1167.2344 1028.8625,1167.0938 1027.9875,1167.0938 C1025.3625,1167.0938 1023.3625,1169.1719 1023.3625,1171.8906 L1023.3625,1173.0156 C1023.3625,1175.5938 1025.4719,1177.4844 1028.3625,1177.4844 C1029.5813,1177.4844 1030.7375,1177.1875 1031.4875,1176.6406 C1032.0656,1176.2344 1032.3938,1175.7813 1032.3938,1175.3906 C1032.3938,1174.9375 1032.0031,1174.5469 1031.5344,1174.5469 C1031.3156,1174.5469 1031.1125,1174.625 1030.925,1174.8125 C1030.4719,1175.2969 1030.4719,1175.2969 1030.2844,1175.3906 C1029.8625,1175.6563 1029.175,1175.7813 1028.4094,1175.7813 C1026.3625,1175.7813 1025.0656,1174.6875 1025.0656,1172.9844 L1025.0656,1171.8906 C1025.0656,1170.1094 1026.3156,1168.7969 1028.05,1168.7969 C1028.6281,1168.7969 1029.2375,1168.9531 1029.7063,1169.2031 C1030.1906,1169.4844 1030.3625,1169.7031 1030.4563,1170.1094 C1030.5188,1170.5156 1030.55,1170.6406 1030.6906,1170.7656 C1030.8313,1170.9063 1031.0656,1171.0156 1031.2844,1171.0156 C1031.55,1171.0156 1031.8156,1170.875 1031.9875,1170.6563 C1032.0969,1170.5 1032.1281,1170.3125 1032.1281,1169.8906 L1032.1281,1168.4688 C1032.1281,1168.0313 1032.1125,1167.9063 1032.0188,1167.75 C1031.8625,1167.4844 1031.5813,1167.3438 1031.2844,1167.3438 C1030.9875,1167.3438 1030.7844,1167.4375 1030.5656,1167.75 L1030.3938,1167.6719 Z " fill="#000000"/><text fill="#000000" font-family="sans-serif" font-size="12" lengthAdjust="spacing" textLength="241" x="1042.95" y="1176.1543">AnnotationConfigWebApplicationContext</text><line style="stroke:#008000;stroke-width:1.5;" x1="1010" x2="1290" y1="1188" y2="1188"/><text fill="#000000" font-family="sans-serif" font-size="11" lengthAdjust="spacing" textLength="262" x="1015" y="1202.2104">Similar to AnnotationConfigApplicationContext</text><text fill="#000000" font-family="sans-serif" font-size="11" lengthAdjust="spacing" textLength="270" x="1015" y="1215.0151">Implements loadBeanDefinitions() - which uses</text><text fill="#000000" font-family="sans-serif" font-size="11" lengthAdjust="spacing" textLength="210" x="1015" y="1227.8198">AnnotatedBeanDefinitionReader and</text><text fill="#000000" font-family="sans-serif" font-size="11" lengthAdjust="spacing" textLength="256" x="1015" y="1240.6245">ClassPathBeanDefinitionScanner to scan and</text><text fill="#000000" font-family="sans-serif" font-size="11" lengthAdjust="spacing" textLength="154" x="1015" y="1253.4292">load beans to bean factory</text><line style="stroke:#008000;stroke-width:1.0;stroke-dasharray:1.0,2.0;" x1="1010" x2="1290" y1="1260.0234" y2="1260.0234"/><!--MD5=[6da6fa950c2a0921d926be55a4d06b12]
class XmlWebApplicationContext--><rect codeLine="140" fill="#FFFFE0" filter="url(#fb9jbe54cqqyt)" height="73.6094" id="XmlWebApplicationContext" style="stroke:#008000;stroke-width:2.0;" width="349" x="1326.5" y="1175"/><ellipse cx="1415.75" cy="1191" fill="#ADD1B2" rx="11" ry="11" style="stroke:#008000;stroke-width:1.0;"/><path d="M1418.0938,1186.6719 C1417.1563,1186.2344 1416.5625,1186.0938 1415.6875,1186.0938 C1413.0625,1186.0938 1411.0625,1188.1719 1411.0625,1190.8906 L1411.0625,1192.0156 C1411.0625,1194.5938 1413.1719,1196.4844 1416.0625,1196.4844 C1417.2813,1196.4844 1418.4375,1196.1875 1419.1875,1195.6406 C1419.7656,1195.2344 1420.0938,1194.7813 1420.0938,1194.3906 C1420.0938,1193.9375 1419.7031,1193.5469 1419.2344,1193.5469 C1419.0156,1193.5469 1418.8125,1193.625 1418.625,1193.8125 C1418.1719,1194.2969 1418.1719,1194.2969 1417.9844,1194.3906 C1417.5625,1194.6563 1416.875,1194.7813 1416.1094,1194.7813 C1414.0625,1194.7813 1412.7656,1193.6875 1412.7656,1191.9844 L1412.7656,1190.8906 C1412.7656,1189.1094 1414.0156,1187.7969 1415.75,1187.7969 C1416.3281,1187.7969 1416.9375,1187.9531 1417.4063,1188.2031 C1417.8906,1188.4844 1418.0625,1188.7031 1418.1563,1189.1094 C1418.2188,1189.5156 1418.25,1189.6406 1418.3906,1189.7656 C1418.5313,1189.9063 1418.7656,1190.0156 1418.9844,1190.0156 C1419.25,1190.0156 1419.5156,1189.875 1419.6875,1189.6563 C1419.7969,1189.5 1419.8281,1189.3125 1419.8281,1188.8906 L1419.8281,1187.4688 C1419.8281,1187.0313 1419.8125,1186.9063 1419.7188,1186.75 C1419.5625,1186.4844 1419.2813,1186.3438 1418.9844,1186.3438 C1418.6875,1186.3438 1418.4844,1186.4375 1418.2656,1186.75 L1418.0938,1186.6719 Z " fill="#000000"/><text fill="#000000" font-family="sans-serif" font-size="12" lengthAdjust="spacing" textLength="162" x="1436.25" y="1195.1543">XmlWebApplicationContext</text><line style="stroke:#008000;stroke-width:1.5;" x1="1327.5" x2="1674.5" y1="1207" y2="1207"/><text fill="#000000" font-family="sans-serif" font-size="11" lengthAdjust="spacing" textLength="288" x="1332.5" y="1221.2104">Similar to AnnotationConfigWebApplicationContext</text><line style="stroke:#008000;stroke-width:1.0;stroke-dasharray:1.0,2.0;" x1="1327.5" x2="1674.5" y1="1227.8047" y2="1227.8047"/><text fill="#000000" font-family="sans-serif" font-size="11" lengthAdjust="spacing" textLength="337" x="1332.5" y="1242.0151">Implements loadBeanDefinitions() using XML based reader</text><!--MD5=[dd51f9b233ec2bd28f89817201e7326f]
class WebServerApplicationContext--><rect codeLine="153" fill="#FFFFE0" filter="url(#fb9jbe54cqqyt)" height="73.6094" id="WebServerApplicationContext" style="stroke:#00008B;stroke-width:2.0;" width="483" x="2068.5" y="291"/><ellipse cx="2215.75" cy="307" fill="#B4A7E5" rx="11" ry="11" style="stroke:#00008B;stroke-width:1.0;"/><path d="M2216.7031,303.7813 L2218.4219,303.7813 C2218.8125,303.7813 2219,303.75 2219.125,303.6719 C2219.3906,303.5156 2219.5313,303.2344 2219.5313,302.9375 C2219.5313,302.6719 2219.4219,302.4063 2219.1875,302.2344 C2219.0156,302.125 2218.875,302.0938 2218.4219,302.0938 L2213.2813,302.0938 C2212.8438,302.0938 2212.7188,302.1094 2212.5625,302.2031 C2212.3125,302.3594 2212.1563,302.6563 2212.1563,302.9375 C2212.1563,303.2188 2212.2969,303.4688 2212.5156,303.6406 C2212.6719,303.75 2212.8594,303.7813 2213.2813,303.7813 L2215,303.7813 L2215,310.2969 L2213.2813,310.2969 C2212.8438,310.2969 2212.7188,310.3125 2212.5625,310.4219 C2212.3125,310.5781 2212.1563,310.8594 2212.1563,311.1563 C2212.1563,311.4063 2212.2969,311.6719 2212.5156,311.8281 C2212.6719,311.9531 2212.875,312 2213.2813,312 L2218.4219,312 C2219.1719,312 2219.5313,311.7188 2219.5313,311.1563 C2219.5313,310.875 2219.4219,310.625 2219.1875,310.4531 C2219.0156,310.3281 2218.875,310.2969 2218.4219,310.2969 L2216.7031,310.2969 L2216.7031,303.7813 Z " fill="#000000"/><text fill="#000000" font-family="sans-serif" font-size="12" font-style="italic" lengthAdjust="spacing" textLength="180" x="2236.25" y="311.1543">WebServerApplicationContext</text><line style="stroke:#00008B;stroke-width:1.5;" x1="2069.5" x2="2550.5" y1="323" y2="323"/><text fill="#000000" font-family="sans-serif" font-size="11" lengthAdjust="spacing" textLength="471" x="2074.5" y="337.2104">Defines that the context uses WebServer representing an embedded webserver.</text><text fill="#000000" font-family="sans-serif" font-size="11" lengthAdjust="spacing" textLength="247" x="2074.5" y="350.0151">Derived must provide the emb server impl</text><line style="stroke:#00008B;stroke-width:1.0;stroke-dasharray:1.0,2.0;" x1="2069.5" x2="2550.5" y1="356.6094" y2="356.6094"/><!--MD5=[9b96cc9daa08bffd64443b9418f4f37e]
class ConfigurableWebServerApplicationContext--><rect codeLine="159" fill="#FFFFE0" filter="url(#fb9jbe54cqqyt)" height="60.8047" id="ConfigurableWebServerApplicationContext" style="stroke:#00008B;stroke-width:2.0;" width="288" x="2068" y="475"/><ellipse cx="2083" cy="491" fill="#B4A7E5" rx="11" ry="11" style="stroke:#00008B;stroke-width:1.0;"/><path d="M2083.9531,487.7813 L2085.6719,487.7813 C2086.0625,487.7813 2086.25,487.75 2086.375,487.6719 C2086.6406,487.5156 2086.7813,487.2344 2086.7813,486.9375 C2086.7813,486.6719 2086.6719,486.4063 2086.4375,486.2344 C2086.2656,486.125 2086.125,486.0938 2085.6719,486.0938 L2080.5313,486.0938 C2080.0938,486.0938 2079.9688,486.1094 2079.8125,486.2031 C2079.5625,486.3594 2079.4063,486.6563 2079.4063,486.9375 C2079.4063,487.2188 2079.5469,487.4688 2079.7656,487.6406 C2079.9219,487.75 2080.1094,487.7813 2080.5313,487.7813 L2082.25,487.7813 L2082.25,494.2969 L2080.5313,494.2969 C2080.0938,494.2969 2079.9688,494.3125 2079.8125,494.4219 C2079.5625,494.5781 2079.4063,494.8594 2079.4063,495.1563 C2079.4063,495.4063 2079.5469,495.6719 2079.7656,495.8281 C2079.9219,495.9531 2080.125,496 2080.5313,496 L2085.6719,496 C2086.4219,496 2086.7813,495.7188 2086.7813,495.1563 C2086.7813,494.875 2086.6719,494.625 2086.4375,494.4531 C2086.2656,494.3281 2086.125,494.2969 2085.6719,494.2969 L2083.9531,494.2969 L2083.9531,487.7813 Z " fill="#000000"/><text fill="#000000" font-family="sans-serif" font-size="12" font-style="italic" lengthAdjust="spacing" textLength="256" x="2097" y="495.1543">ConfigurableWebServerApplicationContext</text><line style="stroke:#00008B;stroke-width:2.0;" x1="2069" x2="2355" y1="507" y2="507"/><text fill="#000000" font-family="sans-serif" font-size="11" lengthAdjust="spacing" textLength="208" x="2074" y="521.2104">Ability to set webserver namespace</text><line style="stroke:#00008B;stroke-width:2.0;" x1="2069" x2="2355" y1="527.8047" y2="527.8047"/><!--MD5=[8e07e5361c05f00ffd64f46ceefa7ceb]
class ServletWebServerApplicationContext--><rect codeLine="166" fill="#FFFFE0" filter="url(#fb9jbe54cqqyt)" height="73.6094" id="ServletWebServerApplicationContext" style="stroke:#00008B;stroke-width:2.0;" width="347" x="1583.5" y="1574"/><ellipse cx="1640.75" cy="1590" fill="#ADD1B2" rx="11" ry="11" style="stroke:#00008B;stroke-width:1.0;"/><path d="M1643.0938,1585.6719 C1642.1563,1585.2344 1641.5625,1585.0938 1640.6875,1585.0938 C1638.0625,1585.0938 1636.0625,1587.1719 1636.0625,1589.8906 L1636.0625,1591.0156 C1636.0625,1593.5938 1638.1719,1595.4844 1641.0625,1595.4844 C1642.2813,1595.4844 1643.4375,1595.1875 1644.1875,1594.6406 C1644.7656,1594.2344 1645.0938,1593.7813 1645.0938,1593.3906 C1645.0938,1592.9375 1644.7031,1592.5469 1644.2344,1592.5469 C1644.0156,1592.5469 1643.8125,1592.625 1643.625,1592.8125 C1643.1719,1593.2969 1643.1719,1593.2969 1642.9844,1593.3906 C1642.5625,1593.6563 1641.875,1593.7813 1641.1094,1593.7813 C1639.0625,1593.7813 1637.7656,1592.6875 1637.7656,1590.9844 L1637.7656,1589.8906 C1637.7656,1588.1094 1639.0156,1586.7969 1640.75,1586.7969 C1641.3281,1586.7969 1641.9375,1586.9531 1642.4063,1587.2031 C1642.8906,1587.4844 1643.0625,1587.7031 1643.1563,1588.1094 C1643.2188,1588.5156 1643.25,1588.6406 1643.3906,1588.7656 C1643.5313,1588.9063 1643.7656,1589.0156 1643.9844,1589.0156 C1644.25,1589.0156 1644.5156,1588.875 1644.6875,1588.6563 C1644.7969,1588.5 1644.8281,1588.3125 1644.8281,1587.8906 L1644.8281,1586.4688 C1644.8281,1586.0313 1644.8125,1585.9063 1644.7188,1585.75 C1644.5625,1585.4844 1644.2813,1585.3438 1643.9844,1585.3438 C1643.6875,1585.3438 1643.4844,1585.4375 1643.2656,1585.75 L1643.0938,1585.6719 Z " fill="#000000"/><text fill="#000000" font-family="sans-serif" font-size="12" lengthAdjust="spacing" textLength="224" x="1661.25" y="1594.1543">ServletWebServerApplicationContext</text><line style="stroke:#00008B;stroke-width:1.5;" x1="1584.5" x2="1929.5" y1="1606" y2="1606"/><text fill="#000000" font-family="sans-serif" font-size="11" lengthAdjust="spacing" textLength="335" x="1589.5" y="1620.2104">Overrides postProcessBeanFactory() to config bean factory</text><text fill="#000000" font-family="sans-serif" font-size="11" lengthAdjust="spacing" textLength="320" x="1589.5" y="1633.0151">with onRefresh() hook, embedded webserver is created</text><line style="stroke:#00008B;stroke-width:1.0;stroke-dasharray:1.0,2.0;" x1="1584.5" x2="1929.5" y1="1639.6094" y2="1639.6094"/><!--MD5=[afc8ed9fe81e4ff4415db93def74a3e7]
class AnnotationConfigServletWebServerApplicationContext--><rect codeLine="172" fill="#FFFFE0" filter="url(#fb9jbe54cqqyt)" height="86.4141" id="AnnotationConfigServletWebServerApplicationContext" style="stroke:#00008B;stroke-width:2.0;" width="495" x="1509.5" y="1708"/><ellipse cx="1590.25" cy="1724" fill="#ADD1B2" rx="11" ry="11" style="stroke:#00008B;stroke-width:1.0;"/><path d="M1592.5938,1719.6719 C1591.6563,1719.2344 1591.0625,1719.0938 1590.1875,1719.0938 C1587.5625,1719.0938 1585.5625,1721.1719 1585.5625,1723.8906 L1585.5625,1725.0156 C1585.5625,1727.5938 1587.6719,1729.4844 1590.5625,1729.4844 C1591.7813,1729.4844 1592.9375,1729.1875 1593.6875,1728.6406 C1594.2656,1728.2344 1594.5938,1727.7813 1594.5938,1727.3906 C1594.5938,1726.9375 1594.2031,1726.5469 1593.7344,1726.5469 C1593.5156,1726.5469 1593.3125,1726.625 1593.125,1726.8125 C1592.6719,1727.2969 1592.6719,1727.2969 1592.4844,1727.3906 C1592.0625,1727.6563 1591.375,1727.7813 1590.6094,1727.7813 C1588.5625,1727.7813 1587.2656,1726.6875 1587.2656,1724.9844 L1587.2656,1723.8906 C1587.2656,1722.1094 1588.5156,1720.7969 1590.25,1720.7969 C1590.8281,1720.7969 1591.4375,1720.9531 1591.9063,1721.2031 C1592.3906,1721.4844 1592.5625,1721.7031 1592.6563,1722.1094 C1592.7188,1722.5156 1592.75,1722.6406 1592.8906,1722.7656 C1593.0313,1722.9063 1593.2656,1723.0156 1593.4844,1723.0156 C1593.75,1723.0156 1594.0156,1722.875 1594.1875,1722.6563 C1594.2969,1722.5 1594.3281,1722.3125 1594.3281,1721.8906 L1594.3281,1720.4688 C1594.3281,1720.0313 1594.3125,1719.9063 1594.2188,1719.75 C1594.0625,1719.4844 1593.7813,1719.3438 1593.4844,1719.3438 C1593.1875,1719.3438 1592.9844,1719.4375 1592.7656,1719.75 L1592.5938,1719.6719 Z " fill="#000000"/><text fill="#000000" font-family="sans-serif" font-size="12" lengthAdjust="spacing" textLength="325" x="1610.75" y="1728.1543">AnnotationConfigServletWebServerApplicationContext</text><line style="stroke:#00008B;stroke-width:1.5;" x1="1510.5" x2="2003.5" y1="1740" y2="1740"/><text fill="#000000" font-family="sans-serif" font-size="11" lengthAdjust="spacing" textLength="262" x="1515.5" y="1754.2104">Similar to AnnotationConfigApplicationContext</text><line style="stroke:#00008B;stroke-width:1.0;stroke-dasharray:1.0,2.0;" x1="1510.5" x2="2003.5" y1="1760.8047" y2="1760.8047"/><text fill="#000000" font-family="sans-serif" font-size="11" lengthAdjust="spacing" textLength="483" x="1515.5" y="1775.0151">Implements postProcessBeanFactory() - which uses ClassPathBeanDefinitionScanner</text><text fill="#000000" font-family="sans-serif" font-size="11" lengthAdjust="spacing" textLength="300" x="1515.5" y="1787.8198">to scan and AnnotatedBeanDefinitionReader to read</text><!--MD5=[b07d32c4ff3ecdea5053f3a2ce888384]
reverse link ListableBeanFactory to ApplicationContext--><path d="M1867,109.34 C1867,127.29 1867,147.64 1867,163.84 " fill="none" id="ListableBeanFactory-backto-ApplicationContext" style="stroke:#A80036;stroke-width:1.0;"/><polygon fill="none" points="1860,109.09,1867,89.09,1874,109.09,1860,109.09" style="stroke:#A80036;stroke-width:1.0;"/><!--MD5=[470ca5d9f35e2b5ed94a2a37f770afca]
reverse link ApplicationContext to ConfigurableApplicationContext--><path d="M1750.81,231.44 C1735,236.77 1719.04,242.36 1704,248 C1674.21,259.16 1642.21,272.44 1613.39,284.89 " fill="none" id="ApplicationContext-backto-ConfigurableApplicationContext" style="stroke:#A80036;stroke-width:1.0;"/><polygon fill="none" points="1748.76,224.75,1769.95,225.11,1753.16,238.04,1748.76,224.75" style="stroke:#A80036;stroke-width:1.0;"/><!--MD5=[18817da13b5077a129740727b00cf8e2]
reverse link ApplicationContext to WebApplicationContext--><path d="M1867,245.16 C1867,260.23 1867,276.51 1867,290.54 " fill="none" id="ApplicationContext-backto-WebApplicationContext" style="stroke:#A80036;stroke-width:1.0;"/><polygon fill="none" points="1860,245.01,1867,225.01,1874,245.01,1860,245.01" style="stroke:#A80036;stroke-width:1.0;"/><!--MD5=[3b380d925510ce8806e75cae5c92e8cf]
reverse link ConfigurableApplicationContext to ConfigurableWebApplicationContext--><path d="M1555.53,388.39 C1570.02,412.61 1586.45,440.07 1599.69,462.2 " fill="none" id="ConfigurableApplicationContext-backto-ConfigurableWebApplicationContext" style="stroke:#A80036;stroke-width:1.0;"/><polygon fill="none" points="1549.41,391.79,1545.15,371.04,1561.43,384.61,1549.41,391.79" style="stroke:#A80036;stroke-width:1.0;"/><!--MD5=[8bda4f8c7848f93c6570054d6a6f26f9]
reverse link WebApplicationContext to ConfigurableWebApplicationContext--><path d="M1800.92,376.92 C1764.14,403.6 1718.76,436.51 1683.3,462.22 " fill="none" id="WebApplicationContext-backto-ConfigurableWebApplicationContext" style="stroke:#A80036;stroke-width:1.0;"/><polygon fill="none" points="1796.85,371.23,1817.15,365.15,1805.07,382.56,1796.85,371.23" style="stroke:#A80036;stroke-width:1.0;"/><!--MD5=[7c8c9ea097a84aee196d5fee1889692c]
reverse link ConfigurableApplicationContext to AbstractApplicationContext--><path d="M1351.09,376.51 C1265.17,400.67 1160.76,430.04 1073.63,454.54 " fill="none" id="ConfigurableApplicationContext-backto-AbstractApplicationContext" style="stroke:#A80036;stroke-width:1.0;"/><polygon fill="none" points="1349.39,369.71,1370.54,371.04,1353.18,383.19,1349.39,369.71" style="stroke:#A80036;stroke-width:1.0;"/><!--MD5=[bcaba93e9af0ccc02c88d2824803769f]
reverse link AbstractApplicationContext to AbstractRefreshableApplicationContext--><path d="M896,600.5 C896,613.69 896,627.09 896,639.83 " fill="none" id="AbstractApplicationContext-backto-AbstractRefreshableApplicationContext" style="stroke:#A80036;stroke-width:1.0;"/><polygon fill="none" points="889,600.06,896,580.06,903,600.06,889,600.06" style="stroke:#A80036;stroke-width:1.0;"/><!--MD5=[106a4901860931f938320ef8ab1486b6]
reverse link AbstractRefreshableApplicationContext to AbstractRefreshableConfigApplicationContext--><path d="M896,809.63 C896,823.84 896,837.534 896,848.911 " fill="none" id="AbstractRefreshableApplicationContext-backto-AbstractRefreshableConfigApplicationContext" style="stroke:#A80036;stroke-width:1.0;"/><polygon fill="none" points="889,809.37,896,789.37,903,809.37,889,809.37" style="stroke:#A80036;stroke-width:1.0;"/><!--MD5=[c4fc165fc6e1954635a8a4cf5e791c66]
reverse link AbstractRefreshableConfigApplicationContext to AbstractXmlApplicationContext--><path d="M854.05,924.988 C840.373,939.492 825.237,955.543 811.728,969.869 " fill="none" id="AbstractRefreshableConfigApplicationContext-backto-AbstractXmlApplicationContext" style="stroke:#A80036;stroke-width:1.0;"/><polygon fill="none" points="849.358,919.76,868.172,910.011,859.544,929.365,849.358,919.76" style="stroke:#A80036;stroke-width:1.0;"/><!--MD5=[bc72d8732be4a79ac3c6a2348148b2e6]
reverse link AbstractRefreshableConfigApplicationContext to AbstractRefreshableWebApplicationContext--><path d="M970.928,919.291 C1001.64,935.193 1037.27,953.638 1068.62,969.869 " fill="none" id="AbstractRefreshableConfigApplicationContext-backto-AbstractRefreshableWebApplicationContext" style="stroke:#A80036;stroke-width:1.0;"/><polygon fill="none" points="967.545,925.423,953.003,910.011,973.982,912.99,967.545,925.423" style="stroke:#A80036;stroke-width:1.0;"/><!--MD5=[005978582973c957011976d6815b2f4f]
reverse link ConfigurableWebApplicationContext to AbstractRefreshableWebApplicationContext--><path d="M1571.62,563.31 C1475.34,665.77 1274.7,879.288 1189.57,969.892 " fill="none" id="ConfigurableWebApplicationContext-backto-AbstractRefreshableWebApplicationContext" style="stroke:#A80036;stroke-width:1.0;"/><polygon fill="none" points="1566.52,558.51,1585.32,548.73,1576.72,568.1,1566.52,558.51" style="stroke:#A80036;stroke-width:1.0;"/><!--MD5=[7a6b178763b16385f64c24cc03026bc3]
reverse link AbstractApplicationContext to GenericApplicationContext--><path d="M761.433,591.75 C740.499,606.94 719.651,623.28 701,640 C526.179,796.75 355.283,1014.888 268.988,1130.926 " fill="none" id="AbstractApplicationContext-backto-GenericApplicationContext" style="stroke:#A80036;stroke-width:1.0;stroke-dasharray:7.0,7.0;"/><polygon fill="none" points="757.455,585.99,777.811,580.1,765.569,597.4,757.455,585.99" style="stroke:#A80036;stroke-width:1.0;"/><!--MD5=[48c47b0ac702bd18e6ec7d95302910bb]
reverse link GenericApplicationContext to GenericWebApplicationContext--><path d="M418.061,1293.163 C752.575,1375.065 1130.02,1405.986 1342.3,1417.91 " fill="none" id="GenericApplicationContext-backto-GenericWebApplicationContext" style="stroke:#A80036;stroke-width:1.0;"/><polygon fill="none" points="416.352,1299.951,398.63,1288.336,419.728,1286.364,416.352,1299.951" style="stroke:#A80036;stroke-width:1.0;"/><!--MD5=[a5554dc665f80976cc82b04d7a3fe27b]
reverse link ConfigurableWebApplicationContext to GenericWebApplicationContext--><path d="M1652.99,567.21 C1683.8,639.68 1729,765.32 1729,878.5 C1729,878.5 1729,878.5 1729,1014 C1729,1139.028 1757.11,1185.66 1693,1293 C1670.32,1330.971 1632.04,1361.061 1596.25,1382.864 " fill="none" id="ConfigurableWebApplicationContext-backto-GenericWebApplicationContext" style="stroke:#A80036;stroke-width:1.0;stroke-dasharray:7.0,7.0;"/><polygon fill="none" points="1646.49,569.8,1644.93,548.67,1659.32,564.22,1646.49,569.8" style="stroke:#A80036;stroke-width:1.0;"/><!--MD5=[c25b2dc65fb10b6786164d1d76c3dbdc]
reverse link GenericApplicationContext to AnnotationConfigApplicationContext--><path d="M211,1313.197 C211,1326.542 211,1340.011 211,1352.753 " fill="none" id="GenericApplicationContext-backto-AnnotationConfigApplicationContext" style="stroke:#A80036;stroke-width:1.0;"/><polygon fill="none" points="204,1313.148,211,1293.148,218,1313.148,204,1313.148" style="stroke:#A80036;stroke-width:1.0;"/><!--MD5=[c3c349104a1a48ceeac738690c43ee79]
reverse link AbstractXmlApplicationContext to ClassPathXmlApplicationContext--><path d="M714.332,1070.24 C690.378,1093.602 662.41,1120.878 637.506,1145.165 " fill="none" id="AbstractXmlApplicationContext-backto-ClassPathXmlApplicationContext" style="stroke:#A80036;stroke-width:1.0;stroke-dasharray:7.0,7.0;"/><polygon fill="none" points="709.46,1065.214,728.666,1056.261,719.235,1075.237,709.46,1065.214" style="stroke:#A80036;stroke-width:1.0;"/><!--MD5=[b9ecebb4159c088488e163935de3c3fb]
reverse link AbstractXmlApplicationContext to FileSystemXmlApplicationContext--><path d="M798.523,1074.756 C815.231,1113.03 835.85,1160.262 847.902,1187.868 " fill="none" id="AbstractXmlApplicationContext-backto-FileSystemXmlApplicationContext" style="stroke:#A80036;stroke-width:1.0;stroke-dasharray:7.0,7.0;"/><polygon fill="none" points="792.036,1077.392,790.449,1056.261,804.866,1071.79,792.036,1077.392" style="stroke:#A80036;stroke-width:1.0;"/><!--MD5=[cd289f80267a6717baa335fddde84b49]
reverse link AbstractRefreshableWebApplicationContext to AnnotationConfigWebApplicationContext--><path d="M1150,1076.559 C1150,1101.972 1150,1131.085 1150,1155.706 " fill="none" id="AbstractRefreshableWebApplicationContext-backto-AnnotationConfigWebApplicationContext" style="stroke:#A80036;stroke-width:1.0;stroke-dasharray:7.0,7.0;"/><polygon fill="none" points="1143,1076.261,1150,1056.261,1157,1076.261,1143,1076.261" style="stroke:#A80036;stroke-width:1.0;"/><!--MD5=[71e6d52dc988aa15ab1465f198337783]
reverse link AbstractRefreshableWebApplicationContext to XmlWebApplicationContext--><path d="M1263.38,1064.926 C1278.53,1072.365 1293.75,1080.167 1308,1088 C1356.92,1114.896 1410.28,1149.319 1448.46,1174.905 " fill="none" id="AbstractRefreshableWebApplicationContext-backto-XmlWebApplicationContext" style="stroke:#A80036;stroke-width:1.0;"/><polygon fill="none" points="1259.96,1071.05,1244.99,1056.055,1266.05,1058.441,1259.96,1071.05" style="stroke:#A80036;stroke-width:1.0;"/><!--MD5=[0dd97f8b69ef297da7fd2344b1b9a7ca]
reverse link ApplicationContext to WebServerApplicationContext--><path d="M1985.82,230.77 C2048.51,249.38 2125.3,272.18 2188.41,290.91 " fill="none" id="ApplicationContext-backto-WebServerApplicationContext" style="stroke:#A80036;stroke-width:1.0;"/><polygon fill="none" points="1983.6,237.41,1966.42,225.01,1987.58,223.99,1983.6,237.41" style="stroke:#A80036;stroke-width:1.0;"/><!--MD5=[36a7fe0a1a929fe857d030f5a6f12cdd]
reverse link WebServerApplicationContext to ConfigurableWebServerApplicationContext--><path d="M2279.73,383.21 C2262.86,413.42 2242.51,449.87 2228.54,474.88 " fill="none" id="WebServerApplicationContext-backto-ConfigurableWebServerApplicationContext" style="stroke:#A80036;stroke-width:1.0;"/><polygon fill="none" points="2273.83,379.41,2289.69,365.36,2286.06,386.24,2273.83,379.41" style="stroke:#A80036;stroke-width:1.0;"/><!--MD5=[8b9a4509dded1a836bc50c521e06a646]
reverse link ConfigurableApplicationContext to ConfigurableWebServerApplicationContext--><path d="M1707.19,370.71 C1800.7,379.04 1964.13,367.65 2028,388 C2085.28,406.25 2142.39,446.77 2177.44,474.86 " fill="none" id="ConfigurableApplicationContext-backto-ConfigurableWebServerApplicationContext" style="stroke:#A80036;stroke-width:1.0;"/><polygon fill="none" points="1706.34,377.66,1687.25,368.46,1707.91,363.75,1706.34,377.66" style="stroke:#A80036;stroke-width:1.0;"/><!--MD5=[097fb82502b5e73f87c6269ee1642302]
reverse link GenericWebApplicationContext to ServletWebServerApplicationContext--><path d="M1582.41,1481.169 C1622.95,1511.081 1672.19,1547.417 1708.03,1573.864 " fill="none" id="GenericWebApplicationContext-backto-ServletWebServerApplicationContext" style="stroke:#A80036;stroke-width:1.0;"/><polygon fill="none" points="1578.14,1486.721,1566.21,1469.214,1586.46,1475.456,1578.14,1486.721" style="stroke:#A80036;stroke-width:1.0;"/><!--MD5=[15e3405bb235546492fddbab38106e17]
reverse link ConfigurableWebServerApplicationContext to ServletWebServerApplicationContext--><path d="M2167.53,551.11 C2106.97,616.81 2006,746.19 2006,878.5 C2006,878.5 2006,878.5 2006,1213 C2006,1366.564 1870.64,1509.498 1799.52,1573.996 " fill="none" id="ConfigurableWebServerApplicationContext-backto-ServletWebServerApplicationContext" style="stroke:#A80036;stroke-width:1.0;stroke-dasharray:7.0,7.0;"/><polygon fill="none" points="2162.79,545.93,2181.6,536.19,2172.97,555.54,2162.79,545.93" style="stroke:#A80036;stroke-width:1.0;"/><!--MD5=[8055d90d486e2c49dabbee8a8c70e760]
reverse link ServletWebServerApplicationContext to AnnotationConfigServletWebServerApplicationContext--><path d="M1757,1668.619 C1757,1681.659 1757,1695.309 1757,1707.622 " fill="none" id="ServletWebServerApplicationContext-backto-AnnotationConfigServletWebServerApplicationContext" style="stroke:#A80036;stroke-width:1.0;"/><polygon fill="none" points="1750,1668.258,1757,1648.258,1764,1668.258,1750,1668.258" style="stroke:#A80036;stroke-width:1.0;"/><!--MD5=[d2359f0babee2ab70facaf6b6bdd2650]
@startuml
package Spring_BeanFactory_Interfaces {
interface ListableBeanFactory
}

package Spring_Context_Interfaces {

interface ApplicationContext extends ListableBeanFactory {
    Proxy for bean factory, resource loader etc
}

interface ConfigurableApplicationContext extends ApplicationContext{
    API to set/add class loader, parent, env, bean factory PP,
     app listener
    ..
    Key API refresh()
}

interface WebApplicationContext #line:green;back:LightYellow;line.bold extends ApplicationContext{
    ServletConfig=getServletContext()
    defines bean names for storing Config attributes
    ..
}

interface ConfigurableWebApplicationContext #line:green;back:LightYellow;line.bold extends ConfigurableApplicationContext, WebApplicationContext {
    setServletContext, setServletConfig, getServletConfig
    setConfigLocation(s) - loc of configs like bean def XMLs
     (can be set by helpers who read web.xml)
}

}

package Spring_Context_Abstract <<Rectangle>> {

abstract AbstractApplicationContext extends ConfigurableApplicationContext {
Skeleton impl with home for parent, env,
bean factory pps, app listeners
..
Impl refresh() by obtain bean factory from derived
..
refresh calls derived postProcessBeanFactory()
..
Demands derived - refreshBeanFactory(), getBeanFactory(),
closeBeanFactory()
..
}



abstract AbstractRefreshableApplicationContext extends AbstractApplicationContext {
Skeleton impl with home for parent, env,
bean factory pps, app listeners
..
Impl refresh() by obtain bean factory from derived
..
refresh calls derived postProcessBeanFactory()
..
Demands derived - refreshBeanFactory(), getBeanFactory(),
 closeBeanFactory()
..
}

abstract AbstractRefreshableConfigApplicationContext extends AbstractRefreshableApplicationContext {
    Simple impl to set and store config locations
}

abstract AbstractXmlApplicationContext extends AbstractRefreshableConfigApplicationContext {
Implements loadBeanDefinitions() - which loads defs from
config locations in XML format and/or resources from derived class
..
Requires getConfigResources() from derived
}


abstract AbstractRefreshableWebApplicationContext #line:green;back:LightYellow;line.bold extends AbstractRefreshableConfigApplicationContext, ConfigurableWebApplicationContext {
Similar to base; adds "web" impls
Impl postProcessBeanFactory() to configure bean
 factory and add bean PPs
}

}

package Spring_Context_Concretes <<Rectangle>> {

class GenericApplicationContext implements AbstractApplicationContext {
Concrete context
..
Owns DefaultListableBeanFactory which is also
BeanDefinitionRegistry
..
Proxies BDR api calls to above factory
..
Impl all demanded apis above
..
Sugg Usage: bean defs can be fed from utils like
XmlBeanDefinitionReader and PropertiesBeanDefinitionReader.
}

class GenericWebApplicationContext #line:green;back:LightYellow;line.bold extends GenericApplicationContext implements ConfigurableWebApplicationContext {
    Impls "web" apis (setConfigLoc.. not supported)
    ..
    Impl postProcessBeanFactory() to configure beanfactory,
    add web related beans etc
}

class AnnotationConfigApplicationContext extends GenericApplicationContext {
Concrete
..
Bean def registration is internalised now.
Specialized to scan/add bean defs from
@Configuration/@Bean annotations recursively
by scanning base packages
(using ClassPathBeanDefinitionScanner)
..
Role of AnnotatedBeanDefinitionReader?
}

class ClassPathXmlApplicationContext implements AbstractXmlApplicationContext {
Implements getConfigResources() - interprets
plain paths as class path resource names.
..
Useful for test harnesses as well as for
application contexts embedded within JARs.
..
has APIs such that both indiv resource paths
and config locations can be set
}

class FileSystemXmlApplicationContext implements AbstractXmlApplicationContext {
}

class AnnotationConfigWebApplicationContext #line:green;back:LightYellow;line.bold implements AbstractRefreshableWebApplicationContext {
Similar to AnnotationConfigApplicationContext
Implements loadBeanDefinitions() - which uses
AnnotatedBeanDefinitionReader and
 ClassPathBeanDefinitionScanner to scan and
 load beans to bean factory
..
}

class XmlWebApplicationContext #line:green;back:LightYellow;line.bold extends AbstractRefreshableWebApplicationContext {
Similar to AnnotationConfigWebApplicationContext
..
Implements loadBeanDefinitions() using XML based reader
}




}

package SpringBoot_Context_Interfaces <<Rectangle>> {

interface WebServerApplicationContext #line:DarkBlue;back:LightYellow;line.bold extends ApplicationContext {
Defines that the context uses WebServer representing an embedded webserver.
Derived must provide the emb server impl
..
}

interface ConfigurableWebServerApplicationContext #line:DarkBlue;back:LightYellow;line.bold extends WebServerApplicationContext,  ConfigurableApplicationContext {
Ability to set webserver namespace
}

}

package SpringBoot_Context_Concretes {
class ServletWebServerApplicationContext #line:DarkBlue;back:LightYellow;line.bold extends GenericWebApplicationContext implements ConfigurableWebServerApplicationContext {
Overrides postProcessBeanFactory() to config bean factory
with onRefresh() hook, embedded webserver is created
..
}

class AnnotationConfigServletWebServerApplicationContext #line:DarkBlue;back:LightYellow;line.bold extends ServletWebServerApplicationContext {
Similar to AnnotationConfigApplicationContext
..
Implements postProcessBeanFactory() - which uses ClassPathBeanDefinitionScanner
to scan and AnnotatedBeanDefinitionReader to read
}

}
@enduml

PlantUML version 1.2021.6beta4(Unknown compile time)
(GPL source distribution)
Java Runtime: Java(TM) SE Runtime Environment
JVM: Java HotSpot(TM) 64-Bit Server VM
Default Encoding: UTF-8
Language: en
Country: US
--></g></svg>